<svg width="275" height="386" viewBox="0 0 275 386" fill="none" xmlns="http://www.w3.org/2000/svg">
<mask id="path-1-inside-1_182_1290" fill="white">
<rect width="274.5" height="386" rx="2"/>
</mask>
<rect width="274.5" height="386" rx="2" fill="white"/>
<rect width="274.5" height="386" rx="2" stroke="black" stroke-opacity="0.05" stroke-width="10" mask="url(#path-1-inside-1_182_1290)"/>
<path d="M84.7431 47.304C83.6871 47.304 82.7804 47.1173 82.0231 46.744C81.2657 46.3707 80.6471 45.8853 80.1671 45.288C79.6977 44.6907 79.3511 44.04 79.1271 43.336C78.9031 42.632 78.7911 41.9547 78.7911 41.304V40.952C78.7911 40.2267 78.9031 39.512 79.1271 38.808C79.3617 38.104 79.7191 37.464 80.1991 36.888C80.6791 36.312 81.2871 35.8533 82.0231 35.512C82.7697 35.16 83.6497 34.984 84.6631 34.984C85.7191 34.984 86.6364 35.176 87.4151 35.56C88.2044 35.9333 88.8337 36.4667 89.3031 37.16C89.7724 37.8427 90.0551 38.6427 90.1511 39.56H87.8631C87.7777 39.0267 87.5857 38.5787 87.2871 38.216C86.9991 37.8427 86.6311 37.5653 86.1831 37.384C85.7351 37.192 85.2284 37.096 84.6631 37.096C84.0871 37.096 83.5751 37.1973 83.1271 37.4C82.6791 37.592 82.3057 37.8693 82.0071 38.232C81.7084 38.5947 81.4791 39.0213 81.3191 39.512C81.1697 40.0027 81.0951 40.5467 81.0951 41.144C81.0951 41.72 81.1697 42.2533 81.3191 42.744C81.4791 43.2347 81.7137 43.6667 82.0231 44.04C82.3324 44.4027 82.7111 44.6853 83.1591 44.888C83.6177 45.0907 84.1457 45.192 84.7431 45.192C85.6177 45.192 86.3537 44.9787 86.9511 44.552C87.5591 44.1147 87.9271 43.5067 88.0551 42.728H90.3431C90.2364 43.56 89.9537 44.3227 89.4951 45.016C89.0364 45.7093 88.4071 46.264 87.6071 46.68C86.8071 47.096 85.8524 47.304 84.7431 47.304ZM96.2603 47.304C95.4923 47.304 94.815 47.1813 94.2283 46.936C93.6416 46.6907 93.1456 46.36 92.7403 45.944C92.335 45.5173 92.0256 45.0373 91.8123 44.504C91.6096 43.9707 91.5083 43.416 91.5083 42.84V42.504C91.5083 41.9067 91.615 41.3413 91.8283 40.808C92.0523 40.264 92.367 39.784 92.7723 39.368C93.1883 38.9413 93.6896 38.6107 94.2763 38.376C94.863 38.1307 95.5243 38.008 96.2603 38.008C96.9963 38.008 97.6576 38.1307 98.2443 38.376C98.831 38.6107 99.327 38.9413 99.7323 39.368C100.148 39.784 100.463 40.264 100.676 40.808C100.89 41.3413 100.996 41.9067 100.996 42.504V42.84C100.996 43.416 100.89 43.9707 100.676 44.504C100.474 45.0373 100.17 45.5173 99.7643 45.944C99.359 46.36 98.863 46.6907 98.2763 46.936C97.6896 47.1813 97.0176 47.304 96.2603 47.304ZM96.2603 45.4C96.8043 45.4 97.263 45.2827 97.6363 45.048C98.0096 44.8027 98.2923 44.4773 98.4843 44.072C98.6763 43.656 98.7723 43.1867 98.7723 42.664C98.7723 42.1307 98.671 41.6613 98.4683 41.256C98.2763 40.84 97.9883 40.5147 97.6043 40.28C97.231 40.0347 96.783 39.912 96.2603 39.912C95.7376 39.912 95.2843 40.0347 94.9003 40.28C94.527 40.5147 94.239 40.84 94.0363 41.256C93.8336 41.6613 93.7323 42.1307 93.7323 42.664C93.7323 43.1867 93.8283 43.656 94.0203 44.072C94.223 44.4773 94.511 44.8027 94.8843 45.048C95.2576 45.2827 95.7163 45.4 96.2603 45.4ZM102.944 47V38.312H104.704V42.04H104.544C104.544 41.1547 104.661 40.4187 104.896 39.832C105.13 39.2347 105.477 38.7867 105.936 38.488C106.405 38.1893 106.986 38.04 107.68 38.04H107.776C108.81 38.04 109.594 38.376 110.128 39.048C110.661 39.7093 110.928 40.7013 110.928 42.024V47H108.704V41.832C108.704 41.2987 108.549 40.8667 108.24 40.536C107.941 40.2053 107.525 40.04 106.992 40.04C106.448 40.04 106.005 40.2107 105.664 40.552C105.333 40.8827 105.168 41.3307 105.168 41.896V47H102.944ZM115 47L112.28 38.312H114.568L117.176 47H115ZM115.656 47V45.176H118.008V47H115.656ZM116.536 47L118.776 38.312H120.92L118.568 47H116.536ZM126.3 47.304C125.554 47.304 124.898 47.176 124.332 46.92C123.778 46.664 123.314 46.3227 122.94 45.896C122.578 45.4587 122.3 44.9733 122.108 44.44C121.927 43.9067 121.836 43.3627 121.836 42.808V42.504C121.836 41.928 121.927 41.3733 122.108 40.84C122.3 40.296 122.578 39.816 122.94 39.4C123.314 38.9733 123.772 38.6373 124.316 38.392C124.86 38.136 125.49 38.008 126.204 38.008C127.143 38.008 127.927 38.216 128.556 38.632C129.196 39.0373 129.676 39.576 129.996 40.248C130.316 40.9093 130.476 41.624 130.476 42.392V43.192H122.78V41.832H129.084L128.396 42.504C128.396 41.9493 128.316 41.4747 128.156 41.08C127.996 40.6853 127.751 40.3813 127.42 40.168C127.1 39.9547 126.695 39.848 126.204 39.848C125.714 39.848 125.298 39.96 124.956 40.184C124.615 40.408 124.354 40.7333 124.172 41.16C124.002 41.576 123.916 42.0773 123.916 42.664C123.916 43.208 124.002 43.6933 124.172 44.12C124.343 44.536 124.604 44.8667 124.956 45.112C125.308 45.3467 125.756 45.464 126.3 45.464C126.844 45.464 127.287 45.3573 127.628 45.144C127.97 44.92 128.188 44.648 128.284 44.328H130.332C130.204 44.9253 129.959 45.448 129.596 45.896C129.234 46.344 128.77 46.6907 128.204 46.936C127.65 47.1813 127.015 47.304 126.3 47.304ZM132.334 47V38.312H134.094V42.04H133.934C133.934 41.1547 134.052 40.4187 134.286 39.832C134.521 39.2347 134.868 38.7867 135.326 38.488C135.796 38.1893 136.377 38.04 137.07 38.04H137.166C138.201 38.04 138.985 38.376 139.518 39.048C140.052 39.7093 140.318 40.7013 140.318 42.024V47H138.094V41.832C138.094 41.2987 137.94 40.8667 137.63 40.536C137.332 40.2053 136.916 40.04 136.382 40.04C135.838 40.04 135.396 40.2107 135.054 40.552C134.724 40.8827 134.558 41.3307 134.558 41.896V47H132.334ZM146.485 47.112C145.685 47.112 145.024 47.0107 144.501 46.808C143.989 46.5947 143.605 46.2427 143.349 45.752C143.093 45.2507 142.965 44.5787 142.965 43.736L142.981 35.864H145.061L145.045 43.88C145.045 44.3067 145.157 44.6373 145.381 44.872C145.616 45.096 145.947 45.208 146.373 45.208H147.733V47.112H146.485ZM141.589 39.944V38.312H147.733V39.944H141.589ZM150.016 47V38.312H152.24V47H150.016ZM148.8 39.976V38.312H152.24V39.976H148.8ZM150.832 37.272C150.395 37.272 150.069 37.16 149.856 36.936C149.653 36.7013 149.552 36.4133 149.552 36.072C149.552 35.7093 149.653 35.416 149.856 35.192C150.069 34.968 150.395 34.856 150.832 34.856C151.269 34.856 151.589 34.968 151.792 35.192C151.995 35.416 152.096 35.7093 152.096 36.072C152.096 36.4133 151.995 36.7013 151.792 36.936C151.589 37.16 151.269 37.272 150.832 37.272ZM158.979 47.304C158.211 47.304 157.534 47.1813 156.947 46.936C156.36 46.6907 155.864 46.36 155.459 45.944C155.054 45.5173 154.744 45.0373 154.531 44.504C154.328 43.9707 154.227 43.416 154.227 42.84V42.504C154.227 41.9067 154.334 41.3413 154.547 40.808C154.771 40.264 155.086 39.784 155.491 39.368C155.907 38.9413 156.408 38.6107 156.995 38.376C157.582 38.1307 158.243 38.008 158.979 38.008C159.715 38.008 160.376 38.1307 160.963 38.376C161.55 38.6107 162.046 38.9413 162.451 39.368C162.867 39.784 163.182 40.264 163.395 40.808C163.608 41.3413 163.715 41.9067 163.715 42.504V42.84C163.715 43.416 163.608 43.9707 163.395 44.504C163.192 45.0373 162.888 45.5173 162.483 45.944C162.078 46.36 161.582 46.6907 160.995 46.936C160.408 47.1813 159.736 47.304 158.979 47.304ZM158.979 45.4C159.523 45.4 159.982 45.2827 160.355 45.048C160.728 44.8027 161.011 44.4773 161.203 44.072C161.395 43.656 161.491 43.1867 161.491 42.664C161.491 42.1307 161.39 41.6613 161.187 41.256C160.995 40.84 160.707 40.5147 160.323 40.28C159.95 40.0347 159.502 39.912 158.979 39.912C158.456 39.912 158.003 40.0347 157.619 40.28C157.246 40.5147 156.958 40.84 156.755 41.256C156.552 41.6613 156.451 42.1307 156.451 42.664C156.451 43.1867 156.547 43.656 156.739 44.072C156.942 44.4773 157.23 44.8027 157.603 45.048C157.976 45.2827 158.435 45.4 158.979 45.4ZM165.662 47V38.312H167.422V42.04H167.262C167.262 41.1547 167.38 40.4187 167.614 39.832C167.849 39.2347 168.196 38.7867 168.654 38.488C169.124 38.1893 169.705 38.04 170.398 38.04H170.494C171.529 38.04 172.313 38.376 172.846 39.048C173.38 39.7093 173.646 40.7013 173.646 42.024V47H171.422V41.832C171.422 41.2987 171.268 40.8667 170.958 40.536C170.66 40.2053 170.244 40.04 169.71 40.04C169.166 40.04 168.724 40.2107 168.382 40.552C168.052 40.8827 167.886 41.3307 167.886 41.896V47H165.662ZM181.301 47V44.424H180.933V41.56C180.933 41.0587 180.811 40.6853 180.565 40.44C180.32 40.1947 179.941 40.072 179.429 40.072C179.163 40.072 178.843 40.0773 178.469 40.088C178.096 40.0987 177.717 40.1147 177.333 40.136C176.96 40.1467 176.624 40.1627 176.325 40.184V38.296C176.571 38.2747 176.848 38.2533 177.157 38.232C177.467 38.2107 177.781 38.2 178.101 38.2C178.432 38.1893 178.741 38.184 179.029 38.184C179.925 38.184 180.667 38.3013 181.253 38.536C181.851 38.7707 182.299 39.1387 182.597 39.64C182.907 40.1413 183.061 40.7973 183.061 41.608V47H181.301ZM178.501 47.224C177.872 47.224 177.317 47.112 176.837 46.888C176.368 46.664 176 46.344 175.733 45.928C175.477 45.512 175.349 45.0107 175.349 44.424C175.349 43.784 175.504 43.2613 175.813 42.856C176.133 42.4507 176.576 42.1467 177.141 41.944C177.717 41.7413 178.389 41.64 179.157 41.64H181.173V42.968H179.125C178.613 42.968 178.219 43.096 177.941 43.352C177.675 43.5973 177.541 43.9173 177.541 44.312C177.541 44.7067 177.675 45.0267 177.941 45.272C178.219 45.5173 178.613 45.64 179.125 45.64C179.435 45.64 179.717 45.5867 179.973 45.48C180.24 45.3627 180.459 45.1707 180.629 44.904C180.811 44.6267 180.912 44.2533 180.933 43.784L181.477 44.408C181.424 45.016 181.275 45.528 181.029 45.944C180.795 46.36 180.464 46.68 180.037 46.904C179.621 47.1173 179.109 47.224 178.501 47.224ZM185.556 47V35.32H187.78V47H185.556ZM184.468 36.984V35.32H187.78V36.984H184.468ZM58.1337 66.304C57.0777 66.304 56.171 66.1173 55.4137 65.744C54.6564 65.3707 54.0377 64.8853 53.5577 64.288C53.0884 63.6907 52.7417 63.04 52.5177 62.336C52.2937 61.632 52.1817 60.9547 52.1817 60.304V59.952C52.1817 59.2267 52.2937 58.512 52.5177 57.808C52.7524 57.104 53.1097 56.464 53.5897 55.888C54.0697 55.312 54.6777 54.8533 55.4137 54.512C56.1604 54.16 57.0404 53.984 58.0537 53.984C59.1097 53.984 60.027 54.176 60.8057 54.56C61.595 54.9333 62.2244 55.4667 62.6937 56.16C63.163 56.8427 63.4457 57.6427 63.5417 58.56H61.2537C61.1684 58.0267 60.9764 57.5787 60.6777 57.216C60.3897 56.8427 60.0217 56.5653 59.5737 56.384C59.1257 56.192 58.619 56.096 58.0537 56.096C57.4777 56.096 56.9657 56.1973 56.5177 56.4C56.0697 56.592 55.6964 56.8693 55.3977 57.232C55.099 57.5947 54.8697 58.0213 54.7097 58.512C54.5604 59.0027 54.4857 59.5467 54.4857 60.144C54.4857 60.72 54.5604 61.2533 54.7097 61.744C54.8697 62.2347 55.1044 62.6667 55.4137 63.04C55.723 63.4027 56.1017 63.6853 56.5497 63.888C57.0084 64.0907 57.5364 64.192 58.1337 64.192C59.0084 64.192 59.7444 63.9787 60.3417 63.552C60.9497 63.1147 61.3177 62.5067 61.4457 61.728H63.7337C63.627 62.56 63.3444 63.3227 62.8857 64.016C62.427 64.7093 61.7977 65.264 60.9977 65.68C60.1977 66.096 59.243 66.304 58.1337 66.304ZM69.3629 66.304C68.6163 66.304 67.9603 66.176 67.3949 65.92C66.8403 65.664 66.3763 65.3227 66.0029 64.896C65.6403 64.4587 65.3629 63.9733 65.1709 63.44C64.9896 62.9067 64.8989 62.3627 64.8989 61.808V61.504C64.8989 60.928 64.9896 60.3733 65.1709 59.84C65.3629 59.296 65.6403 58.816 66.0029 58.4C66.3763 57.9733 66.8349 57.6373 67.3789 57.392C67.9229 57.136 68.5523 57.008 69.2669 57.008C70.2056 57.008 70.9896 57.216 71.6189 57.632C72.2589 58.0373 72.7389 58.576 73.0589 59.248C73.3789 59.9093 73.5389 60.624 73.5389 61.392V62.192H65.8429V60.832H72.1469L71.4589 61.504C71.4589 60.9493 71.3789 60.4747 71.2189 60.08C71.0589 59.6853 70.8136 59.3813 70.4829 59.168C70.1629 58.9547 69.7576 58.848 69.2669 58.848C68.7763 58.848 68.3603 58.96 68.0189 59.184C67.6776 59.408 67.4163 59.7333 67.2349 60.16C67.0643 60.576 66.9789 61.0773 66.9789 61.664C66.9789 62.208 67.0643 62.6933 67.2349 63.12C67.4056 63.536 67.6669 63.8667 68.0189 64.112C68.3709 64.3467 68.8189 64.464 69.3629 64.464C69.9069 64.464 70.3496 64.3573 70.6909 64.144C71.0323 63.92 71.2509 63.648 71.3469 63.328H73.3949C73.2669 63.9253 73.0216 64.448 72.6589 64.896C72.2963 65.344 71.8323 65.6907 71.2669 65.936C70.7123 66.1813 70.0776 66.304 69.3629 66.304ZM75.3968 66V57.312H77.1568V61.04H76.9968C76.9968 60.1653 77.1088 59.4347 77.3328 58.848C77.5568 58.2507 77.8875 57.8027 78.3248 57.504C78.7728 57.1947 79.3275 57.04 79.9888 57.04H80.0848C80.7568 57.04 81.3115 57.1947 81.7488 57.504C82.1968 57.8027 82.5275 58.2507 82.7408 58.848C82.9648 59.4347 83.0768 60.1653 83.0768 61.04H82.5168C82.5168 60.1653 82.6288 59.4347 82.8528 58.848C83.0875 58.2507 83.4235 57.8027 83.8608 57.504C84.3088 57.1947 84.8635 57.04 85.5248 57.04H85.6208C86.2928 57.04 86.8528 57.1947 87.3008 57.504C87.7488 57.8027 88.0848 58.2507 88.3088 58.848C88.5435 59.4347 88.6608 60.1653 88.6608 61.04V66H86.4368V60.832C86.4368 60.288 86.2981 59.856 86.0208 59.536C85.7435 59.2053 85.3488 59.04 84.8368 59.04C84.3248 59.04 83.9141 59.2107 83.6048 59.552C83.2955 59.8827 83.1408 60.3307 83.1408 60.896V66H80.9168V60.832C80.9168 60.288 80.7781 59.856 80.5008 59.536C80.2235 59.2053 79.8288 59.04 79.3168 59.04C78.8048 59.04 78.3941 59.2107 78.0848 59.552C77.7755 59.8827 77.6208 60.3307 77.6208 60.896V66H75.3968ZM94.9254 66.304C94.1788 66.304 93.5228 66.176 92.9574 65.92C92.4028 65.664 91.9388 65.3227 91.5654 64.896C91.2028 64.4587 90.9254 63.9733 90.7334 63.44C90.5521 62.9067 90.4614 62.3627 90.4614 61.808V61.504C90.4614 60.928 90.5521 60.3733 90.7334 59.84C90.9254 59.296 91.2028 58.816 91.5654 58.4C91.9388 57.9733 92.3974 57.6373 92.9414 57.392C93.4854 57.136 94.1148 57.008 94.8294 57.008C95.7681 57.008 96.5521 57.216 97.1814 57.632C97.8214 58.0373 98.3014 58.576 98.6214 59.248C98.9414 59.9093 99.1014 60.624 99.1014 61.392V62.192H91.4054V60.832H97.7094L97.0214 61.504C97.0214 60.9493 96.9414 60.4747 96.7814 60.08C96.6214 59.6853 96.3761 59.3813 96.0454 59.168C95.7254 58.9547 95.3201 58.848 94.8294 58.848C94.3388 58.848 93.9228 58.96 93.5814 59.184C93.2401 59.408 92.9788 59.7333 92.7974 60.16C92.6268 60.576 92.5414 61.0773 92.5414 61.664C92.5414 62.208 92.6268 62.6933 92.7974 63.12C92.9681 63.536 93.2294 63.8667 93.5814 64.112C93.9334 64.3467 94.3814 64.464 94.9254 64.464C95.4694 64.464 95.9121 64.3573 96.2534 64.144C96.5948 63.92 96.8134 63.648 96.9094 63.328H98.9574C98.8294 63.9253 98.5841 64.448 98.2214 64.896C97.8588 65.344 97.3948 65.6907 96.8294 65.936C96.2748 66.1813 95.6401 66.304 94.9254 66.304ZM100.959 66V57.312H102.719V61.04H102.559C102.559 60.1547 102.677 59.4187 102.911 58.832C103.146 58.2347 103.493 57.7867 103.951 57.488C104.421 57.1893 105.002 57.04 105.695 57.04H105.791C106.826 57.04 107.61 57.376 108.143 58.048C108.677 58.7093 108.943 59.7013 108.943 61.024V66H106.719V60.832C106.719 60.2987 106.565 59.8667 106.255 59.536C105.957 59.2053 105.541 59.04 105.007 59.04C104.463 59.04 104.021 59.2107 103.679 59.552C103.349 59.8827 103.183 60.3307 103.183 60.896V66H100.959ZM115.11 66.112C114.31 66.112 113.649 66.0107 113.126 65.808C112.614 65.5947 112.23 65.2427 111.974 64.752C111.718 64.2507 111.59 63.5787 111.59 62.736L111.606 54.864H113.686L113.67 62.88C113.67 63.3067 113.782 63.6373 114.006 63.872C114.241 64.096 114.572 64.208 114.998 64.208H116.358V66.112H115.11ZM110.214 58.944V57.312H116.358V58.944H110.214ZM123.806 62.416V60.448H126.078C126.537 60.448 126.921 60.3573 127.23 60.176C127.55 59.9947 127.79 59.744 127.95 59.424C128.121 59.104 128.206 58.736 128.206 58.32C128.206 57.904 128.121 57.536 127.95 57.216C127.79 56.896 127.55 56.6507 127.23 56.48C126.921 56.2987 126.537 56.208 126.078 56.208H123.806V54.24H125.886C126.867 54.24 127.699 54.4 128.382 54.72C129.075 55.04 129.603 55.4987 129.966 56.096C130.329 56.6827 130.51 57.3813 130.51 58.192V58.448C130.51 59.2587 130.329 59.9627 129.966 60.56C129.603 61.1467 129.075 61.6053 128.382 61.936C127.699 62.256 126.867 62.416 125.886 62.416H123.806ZM121.854 66V54.24H124.126V66H121.854ZM132.272 66V57.312H134.032V60.992H133.984C133.984 59.744 134.25 58.8 134.784 58.16C135.317 57.52 136.101 57.2 137.136 57.2H137.456V59.136H136.848C136.101 59.136 135.52 59.3387 135.104 59.744C134.698 60.1387 134.496 60.7147 134.496 61.472V66H132.272ZM143.057 66.304C142.289 66.304 141.612 66.1813 141.025 65.936C140.439 65.6907 139.943 65.36 139.537 64.944C139.132 64.5173 138.823 64.0373 138.609 63.504C138.407 62.9707 138.305 62.416 138.305 61.84V61.504C138.305 60.9067 138.412 60.3413 138.625 59.808C138.849 59.264 139.164 58.784 139.569 58.368C139.985 57.9413 140.487 57.6107 141.073 57.376C141.66 57.1307 142.321 57.008 143.057 57.008C143.793 57.008 144.455 57.1307 145.041 57.376C145.628 57.6107 146.124 57.9413 146.529 58.368C146.945 58.784 147.26 59.264 147.473 59.808C147.687 60.3413 147.793 60.9067 147.793 61.504V61.84C147.793 62.416 147.687 62.9707 147.473 63.504C147.271 64.0373 146.967 64.5173 146.561 64.944C146.156 65.36 145.66 65.6907 145.073 65.936C144.487 66.1813 143.815 66.304 143.057 66.304ZM143.057 64.4C143.601 64.4 144.06 64.2827 144.433 64.048C144.807 63.8027 145.089 63.4773 145.281 63.072C145.473 62.656 145.569 62.1867 145.569 61.664C145.569 61.1307 145.468 60.6613 145.265 60.256C145.073 59.84 144.785 59.5147 144.401 59.28C144.028 59.0347 143.58 58.912 143.057 58.912C142.535 58.912 142.081 59.0347 141.697 59.28C141.324 59.5147 141.036 59.84 140.833 60.256C140.631 60.6613 140.529 61.1307 140.529 61.664C140.529 62.1867 140.625 62.656 140.817 63.072C141.02 63.4773 141.308 63.8027 141.681 64.048C142.055 64.2827 142.513 64.4 143.057 64.4ZM153.341 66.288C152.733 66.288 152.173 66.176 151.661 65.952C151.149 65.728 150.706 65.4133 150.333 65.008C149.959 64.6027 149.671 64.1333 149.469 63.6C149.266 63.056 149.165 62.4693 149.165 61.84V61.504C149.165 60.8853 149.261 60.304 149.453 59.76C149.655 59.216 149.933 58.7413 150.285 58.336C150.647 57.9307 151.079 57.616 151.581 57.392C152.093 57.1573 152.658 57.04 153.277 57.04C153.959 57.04 154.557 57.1893 155.069 57.488C155.591 57.776 156.007 58.2133 156.317 58.8C156.626 59.3867 156.797 60.1227 156.829 61.008L156.173 60.24V54.32H158.397V66H156.637V62.304H157.021C156.989 63.1893 156.807 63.9307 156.477 64.528C156.146 65.1147 155.709 65.5573 155.165 65.856C154.631 66.144 154.023 66.288 153.341 66.288ZM153.837 64.416C154.274 64.416 154.674 64.32 155.037 64.128C155.399 63.9253 155.687 63.6373 155.901 63.264C156.125 62.88 156.237 62.432 156.237 61.92V61.28C156.237 60.768 156.125 60.3413 155.901 60C155.677 59.648 155.383 59.3813 155.021 59.2C154.658 59.008 154.263 58.912 153.837 58.912C153.357 58.912 152.93 59.0293 152.557 59.264C152.194 59.488 151.906 59.808 151.693 60.224C151.49 60.64 151.389 61.1253 151.389 61.68C151.389 62.2347 151.495 62.72 151.709 63.136C151.922 63.5413 152.21 63.856 152.573 64.08C152.946 64.304 153.367 64.416 153.837 64.416ZM163.888 66.272C162.885 66.272 162.107 65.9413 161.552 65.28C161.008 64.6187 160.736 63.6373 160.736 62.336V57.296H162.96V62.528C162.96 63.0613 163.109 63.488 163.408 63.808C163.707 64.1173 164.112 64.272 164.624 64.272C165.136 64.272 165.552 64.1067 165.872 63.776C166.203 63.4453 166.368 62.9973 166.368 62.432V57.296H168.592V66H166.832V62.304H167.008C167.008 63.1787 166.896 63.9093 166.672 64.496C166.448 65.0827 166.112 65.5253 165.664 65.824C165.216 66.1227 164.656 66.272 163.984 66.272H163.888ZM175.003 66.304C174.245 66.304 173.589 66.176 173.035 65.92C172.491 65.664 172.032 65.3227 171.659 64.896C171.296 64.4693 171.024 63.9893 170.843 63.456C170.661 62.9227 170.571 62.3787 170.571 61.824V61.52C170.571 60.9333 170.661 60.3733 170.843 59.84C171.035 59.296 171.317 58.816 171.691 58.4C172.064 57.9733 172.523 57.6373 173.067 57.392C173.621 57.136 174.261 57.008 174.987 57.008C175.744 57.008 176.421 57.1573 177.019 57.456C177.616 57.744 178.091 58.1493 178.443 58.672C178.805 59.1947 179.008 59.8027 179.051 60.496H176.891C176.837 60.048 176.645 59.6747 176.315 59.376C175.995 59.0773 175.552 58.928 174.987 58.928C174.496 58.928 174.085 59.0453 173.755 59.28C173.435 59.5147 173.195 59.84 173.035 60.256C172.875 60.6613 172.795 61.1307 172.795 61.664C172.795 62.176 172.869 62.64 173.019 63.056C173.179 63.472 173.419 63.7973 173.739 64.032C174.069 64.2667 174.491 64.384 175.003 64.384C175.387 64.384 175.717 64.3147 175.995 64.176C176.272 64.0373 176.491 63.8453 176.651 63.6C176.821 63.3547 176.928 63.0773 176.971 62.768H179.131C179.088 63.472 178.88 64.0907 178.507 64.624C178.144 65.1467 177.659 65.5573 177.051 65.856C176.453 66.1547 175.771 66.304 175.003 66.304ZM184.688 66.112C183.888 66.112 183.227 66.0107 182.704 65.808C182.192 65.5947 181.808 65.2427 181.552 64.752C181.296 64.2507 181.168 63.5787 181.168 62.736L181.184 54.864H183.264L183.248 62.88C183.248 63.3067 183.36 63.6373 183.584 63.872C183.819 64.096 184.15 64.208 184.576 64.208H185.936V66.112H184.688ZM179.792 58.944V57.312H185.936V58.944H179.792ZM188.219 66V57.312H190.443V66H188.219ZM187.003 58.976V57.312H190.443V58.976H187.003ZM189.035 56.272C188.598 56.272 188.272 56.16 188.059 55.936C187.856 55.7013 187.755 55.4133 187.755 55.072C187.755 54.7093 187.856 54.416 188.059 54.192C188.272 53.968 188.598 53.856 189.035 53.856C189.472 53.856 189.792 53.968 189.995 54.192C190.198 54.416 190.299 54.7093 190.299 55.072C190.299 55.4133 190.198 55.7013 189.995 55.936C189.792 56.16 189.472 56.272 189.035 56.272ZM197.182 66.304C196.414 66.304 195.737 66.1813 195.15 65.936C194.564 65.6907 194.068 65.36 193.662 64.944C193.257 64.5173 192.948 64.0373 192.734 63.504C192.532 62.9707 192.43 62.416 192.43 61.84V61.504C192.43 60.9067 192.537 60.3413 192.75 59.808C192.974 59.264 193.289 58.784 193.694 58.368C194.11 57.9413 194.612 57.6107 195.198 57.376C195.785 57.1307 196.446 57.008 197.182 57.008C197.918 57.008 198.58 57.1307 199.166 57.376C199.753 57.6107 200.249 57.9413 200.654 58.368C201.07 58.784 201.385 59.264 201.598 59.808C201.812 60.3413 201.918 60.9067 201.918 61.504V61.84C201.918 62.416 201.812 62.9707 201.598 63.504C201.396 64.0373 201.092 64.5173 200.686 64.944C200.281 65.36 199.785 65.6907 199.198 65.936C198.612 66.1813 197.94 66.304 197.182 66.304ZM197.182 64.4C197.726 64.4 198.185 64.2827 198.558 64.048C198.932 63.8027 199.214 63.4773 199.406 63.072C199.598 62.656 199.694 62.1867 199.694 61.664C199.694 61.1307 199.593 60.6613 199.39 60.256C199.198 59.84 198.91 59.5147 198.526 59.28C198.153 59.0347 197.705 58.912 197.182 58.912C196.66 58.912 196.206 59.0347 195.822 59.28C195.449 59.5147 195.161 59.84 194.958 60.256C194.756 60.6613 194.654 61.1307 194.654 61.664C194.654 62.1867 194.75 62.656 194.942 63.072C195.145 63.4773 195.433 63.8027 195.806 64.048C196.18 64.2827 196.638 64.4 197.182 64.4ZM203.866 66V57.312H205.626V61.04H205.466C205.466 60.1547 205.583 59.4187 205.818 58.832C206.052 58.2347 206.399 57.7867 206.858 57.488C207.327 57.1893 207.908 57.04 208.602 57.04H208.698C209.732 57.04 210.516 57.376 211.05 58.048C211.583 58.7093 211.85 59.7013 211.85 61.024V66H209.626V60.832C209.626 60.2987 209.471 59.8667 209.162 59.536C208.863 59.2053 208.447 59.04 207.914 59.04C207.37 59.04 206.927 59.2107 206.586 59.552C206.255 59.8827 206.09 60.3307 206.09 60.896V66H203.866Z" fill="#134832"/>
<path d="M36.4921 360V351.18H38.1961V360H36.4921ZM41.8441 360L39.1561 356.184H41.0641L43.8361 360H41.8441ZM37.6921 357.072V355.692H39.9241C40.2361 355.692 40.5041 355.628 40.7281 355.5C40.9601 355.372 41.1401 355.192 41.2681 354.96C41.3961 354.728 41.4601 354.464 41.4601 354.168C41.4601 353.864 41.3961 353.596 41.2681 353.364C41.1401 353.132 40.9601 352.952 40.7281 352.824C40.5041 352.696 40.2361 352.632 39.9241 352.632H37.6921V351.18H39.7441C40.4481 351.18 41.0561 351.284 41.5681 351.492C42.0881 351.7 42.4881 352.016 42.7681 352.44C43.0481 352.864 43.1881 353.396 43.1881 354.036V354.228C43.1881 354.876 43.0441 355.408 42.7561 355.824C42.4761 356.24 42.0801 356.552 41.5681 356.76C41.0561 356.968 40.4481 357.072 39.7441 357.072H37.6921ZM48.9448 360V358.068H48.6688V355.92C48.6688 355.544 48.5768 355.264 48.3928 355.08C48.2088 354.896 47.9248 354.804 47.5408 354.804C47.3408 354.804 47.1008 354.808 46.8208 354.816C46.5408 354.824 46.2568 354.836 45.9688 354.852C45.6888 354.86 45.4368 354.872 45.2128 354.888V353.472C45.3968 353.456 45.6048 353.44 45.8368 353.424C46.0688 353.408 46.3048 353.4 46.5448 353.4C46.7928 353.392 47.0248 353.388 47.2408 353.388C47.9128 353.388 48.4688 353.476 48.9088 353.652C49.3568 353.828 49.6928 354.104 49.9168 354.48C50.1488 354.856 50.2648 355.348 50.2648 355.956V360H48.9448ZM46.8448 360.168C46.3728 360.168 45.9568 360.084 45.5968 359.916C45.2448 359.748 44.9688 359.508 44.7688 359.196C44.5768 358.884 44.4808 358.508 44.4808 358.068C44.4808 357.588 44.5968 357.196 44.8288 356.892C45.0688 356.588 45.4008 356.36 45.8248 356.208C46.2568 356.056 46.7608 355.98 47.3368 355.98H48.8488V356.976H47.3128C46.9288 356.976 46.6328 357.072 46.4248 357.264C46.2248 357.448 46.1248 357.688 46.1248 357.984C46.1248 358.28 46.2248 358.52 46.4248 358.704C46.6328 358.888 46.9288 358.98 47.3128 358.98C47.5448 358.98 47.7568 358.94 47.9488 358.86C48.1488 358.772 48.3128 358.628 48.4408 358.428C48.5768 358.22 48.6528 357.94 48.6688 357.588L49.0768 358.056C49.0368 358.512 48.9248 358.896 48.7408 359.208C48.5648 359.52 48.3168 359.76 47.9968 359.928C47.6848 360.088 47.3008 360.168 46.8448 360.168ZM54.2015 360L55.4375 353.7H57.3575L58.7855 360H57.4655L56.0135 353.736H56.7095L55.4255 360H54.2015ZM53.7095 360L53.6975 358.632H55.0295V360H53.7095ZM53.0375 360L51.2615 353.484H52.8815L54.5735 360H53.0375ZM57.8855 360V358.632H59.2175L59.2055 360H57.8855ZM58.4135 360L59.9135 353.484H61.4255L59.8535 360H58.4135ZM65.4609 360V351.24H67.7889L69.9849 356.472H70.2009L72.3849 351.24H74.7489V360H73.0569V352.524L73.2729 352.548L70.9089 358.212H69.1689L66.7929 352.548L67.0209 352.524V360H65.4609ZM80.7261 360V358.068H80.4501V355.92C80.4501 355.544 80.3581 355.264 80.1741 355.08C79.9901 354.896 79.7061 354.804 79.3221 354.804C79.1221 354.804 78.8821 354.808 78.6021 354.816C78.3221 354.824 78.0381 354.836 77.7501 354.852C77.4701 354.86 77.2181 354.872 76.9941 354.888V353.472C77.1781 353.456 77.3861 353.44 77.6181 353.424C77.8501 353.408 78.0861 353.4 78.3261 353.4C78.5741 353.392 78.8061 353.388 79.0221 353.388C79.6941 353.388 80.2501 353.476 80.6901 353.652C81.1381 353.828 81.4741 354.104 81.6981 354.48C81.9301 354.856 82.0461 355.348 82.0461 355.956V360H80.7261ZM78.6261 360.168C78.1541 360.168 77.7381 360.084 77.3781 359.916C77.0261 359.748 76.7501 359.508 76.5501 359.196C76.3581 358.884 76.2621 358.508 76.2621 358.068C76.2621 357.588 76.3781 357.196 76.6101 356.892C76.8501 356.588 77.1821 356.36 77.6061 356.208C78.0381 356.056 78.5421 355.98 79.1181 355.98H80.6301V356.976H79.0941C78.7101 356.976 78.4141 357.072 78.2061 357.264C78.0061 357.448 77.9061 357.688 77.9061 357.984C77.9061 358.28 78.0061 358.52 78.2061 358.704C78.4141 358.888 78.7101 358.98 79.0941 358.98C79.3261 358.98 79.5381 358.94 79.7301 358.86C79.9301 358.772 80.0941 358.628 80.2221 358.428C80.3581 358.22 80.4341 357.94 80.4501 357.588L80.8581 358.056C80.8181 358.512 80.7061 358.896 80.5221 359.208C80.3461 359.52 80.0981 359.76 79.7781 359.928C79.4661 360.088 79.0821 360.168 78.6261 360.168ZM86.6648 360.084C86.0648 360.084 85.5688 360.008 85.1768 359.856C84.7928 359.696 84.5048 359.432 84.3128 359.064C84.1208 358.688 84.0248 358.184 84.0248 357.552L84.0368 351.648H85.5968L85.5848 357.66C85.5848 357.98 85.6688 358.228 85.8368 358.404C86.0128 358.572 86.2608 358.656 86.5808 358.656H87.6008V360.084H86.6648ZM82.9928 354.708V353.484H87.6008V354.708H82.9928ZM91.8816 360.228C91.3216 360.228 90.8296 360.132 90.4056 359.94C89.9896 359.748 89.6416 359.492 89.3616 359.172C89.0896 358.844 88.8816 358.48 88.7376 358.08C88.6016 357.68 88.5336 357.272 88.5336 356.856V356.628C88.5336 356.196 88.6016 355.78 88.7376 355.38C88.8816 354.972 89.0896 354.612 89.3616 354.3C89.6416 353.98 89.9856 353.728 90.3936 353.544C90.8016 353.352 91.2736 353.256 91.8096 353.256C92.5136 353.256 93.1016 353.412 93.5736 353.724C94.0536 354.028 94.4136 354.432 94.6536 354.936C94.8936 355.432 95.0136 355.968 95.0136 356.544V357.144H89.2416V356.124H93.9696L93.4536 356.628C93.4536 356.212 93.3936 355.856 93.2736 355.56C93.1536 355.264 92.9696 355.036 92.7216 354.876C92.4816 354.716 92.1776 354.636 91.8096 354.636C91.4416 354.636 91.1296 354.72 90.8736 354.888C90.6176 355.056 90.4216 355.3 90.2856 355.62C90.1576 355.932 90.0936 356.308 90.0936 356.748C90.0936 357.156 90.1576 357.52 90.2856 357.84C90.4136 358.152 90.6096 358.4 90.8736 358.584C91.1376 358.76 91.4736 358.848 91.8816 358.848C92.2896 358.848 92.6216 358.768 92.8776 358.608C93.1336 358.44 93.2976 358.236 93.3696 357.996H94.9056C94.8096 358.444 94.6256 358.836 94.3536 359.172C94.0816 359.508 93.7336 359.768 93.3096 359.952C92.8936 360.136 92.4176 360.228 91.8816 360.228ZM96.407 360V353.484H97.727V356.244H97.691C97.691 355.308 97.891 354.6 98.291 354.12C98.691 353.64 99.279 353.4 100.055 353.4H100.295V354.852H99.839C99.279 354.852 98.843 355.004 98.531 355.308C98.227 355.604 98.075 356.036 98.075 356.604V360H96.407ZM101.723 360V353.484H103.391V360H101.723ZM100.811 354.732V353.484H103.391V354.732H100.811ZM102.335 352.704C102.007 352.704 101.763 352.62 101.603 352.452C101.451 352.276 101.375 352.06 101.375 351.804C101.375 351.532 101.451 351.312 101.603 351.144C101.763 350.976 102.007 350.892 102.335 350.892C102.663 350.892 102.903 350.976 103.055 351.144C103.207 351.312 103.283 351.532 103.283 351.804C103.283 352.06 103.207 352.276 103.055 352.452C102.903 352.62 102.663 352.704 102.335 352.704ZM109.261 360V358.068H108.985V355.92C108.985 355.544 108.893 355.264 108.709 355.08C108.525 354.896 108.241 354.804 107.857 354.804C107.657 354.804 107.417 354.808 107.137 354.816C106.857 354.824 106.573 354.836 106.285 354.852C106.005 354.86 105.753 354.872 105.529 354.888V353.472C105.713 353.456 105.921 353.44 106.153 353.424C106.385 353.408 106.621 353.4 106.861 353.4C107.109 353.392 107.341 353.388 107.557 353.388C108.229 353.388 108.785 353.476 109.225 353.652C109.673 353.828 110.009 354.104 110.233 354.48C110.465 354.856 110.581 355.348 110.581 355.956V360H109.261ZM107.161 360.168C106.689 360.168 106.273 360.084 105.913 359.916C105.561 359.748 105.285 359.508 105.085 359.196C104.893 358.884 104.797 358.508 104.797 358.068C104.797 357.588 104.913 357.196 105.145 356.892C105.385 356.588 105.717 356.36 106.141 356.208C106.573 356.056 107.077 355.98 107.653 355.98H109.165V356.976H107.629C107.245 356.976 106.949 357.072 106.741 357.264C106.541 357.448 106.441 357.688 106.441 357.984C106.441 358.28 106.541 358.52 106.741 358.704C106.949 358.888 107.245 358.98 107.629 358.98C107.861 358.98 108.073 358.94 108.265 358.86C108.465 358.772 108.629 358.628 108.757 358.428C108.893 358.22 108.969 357.94 108.985 357.588L109.393 358.056C109.353 358.512 109.241 358.896 109.057 359.208C108.881 359.52 108.633 359.76 108.313 359.928C108.001 360.088 107.617 360.168 107.161 360.168ZM112.452 360V351.24H114.12V360H112.452ZM111.636 352.488V351.24H114.12V352.488H111.636ZM115.76 360V358.08H117.632V360H115.76ZM115.76 355.86V353.94H117.632V355.86H115.76ZM121.969 360V351.24H123.673V360H121.969ZM123.433 360V358.5H127.213V360H123.433ZM128.781 360V353.484H130.449V360H128.781ZM127.869 354.732V353.484H130.449V354.732H127.869ZM129.393 352.704C129.065 352.704 128.821 352.62 128.661 352.452C128.509 352.276 128.433 352.06 128.433 351.804C128.433 351.532 128.509 351.312 128.661 351.144C128.821 350.976 129.065 350.892 129.393 350.892C129.721 350.892 129.961 350.976 130.113 351.144C130.265 351.312 130.341 351.532 130.341 351.804C130.341 352.06 130.265 352.276 130.113 352.452C129.961 352.62 129.721 352.704 129.393 352.704ZM132.372 360V353.484H133.692V356.28H133.572C133.572 355.624 133.656 355.076 133.824 354.636C133.992 354.188 134.24 353.852 134.568 353.628C134.904 353.396 135.32 353.28 135.816 353.28H135.888C136.392 353.28 136.808 353.396 137.136 353.628C137.472 353.852 137.72 354.188 137.88 354.636C138.048 355.076 138.132 355.624 138.132 356.28H137.712C137.712 355.624 137.796 355.076 137.964 354.636C138.14 354.188 138.392 353.852 138.72 353.628C139.056 353.396 139.472 353.28 139.968 353.28H140.04C140.544 353.28 140.964 353.396 141.3 353.628C141.636 353.852 141.888 354.188 142.056 354.636C142.232 355.076 142.32 355.624 142.32 356.28V360H140.652V356.124C140.652 355.716 140.548 355.392 140.34 355.152C140.132 354.904 139.836 354.78 139.452 354.78C139.068 354.78 138.76 354.908 138.528 355.164C138.296 355.412 138.18 355.748 138.18 356.172V360H136.512V356.124C136.512 355.716 136.408 355.392 136.2 355.152C135.992 354.904 135.696 354.78 135.312 354.78C134.928 354.78 134.62 354.908 134.388 355.164C134.156 355.412 134.04 355.748 134.04 356.172V360H132.372ZM147.018 360.228C146.458 360.228 145.966 360.132 145.542 359.94C145.126 359.748 144.778 359.492 144.498 359.172C144.226 358.844 144.018 358.48 143.874 358.08C143.738 357.68 143.67 357.272 143.67 356.856V356.628C143.67 356.196 143.738 355.78 143.874 355.38C144.018 354.972 144.226 354.612 144.498 354.3C144.778 353.98 145.122 353.728 145.53 353.544C145.938 353.352 146.41 353.256 146.946 353.256C147.65 353.256 148.238 353.412 148.71 353.724C149.19 354.028 149.55 354.432 149.79 354.936C150.03 355.432 150.15 355.968 150.15 356.544V357.144H144.378V356.124H149.106L148.59 356.628C148.59 356.212 148.53 355.856 148.41 355.56C148.29 355.264 148.106 355.036 147.858 354.876C147.618 354.716 147.314 354.636 146.946 354.636C146.578 354.636 146.266 354.72 146.01 354.888C145.754 355.056 145.558 355.3 145.422 355.62C145.294 355.932 145.23 356.308 145.23 356.748C145.23 357.156 145.294 357.52 145.422 357.84C145.55 358.152 145.746 358.4 146.01 358.584C146.274 358.76 146.61 358.848 147.018 358.848C147.426 358.848 147.758 358.768 148.014 358.608C148.27 358.44 148.434 358.236 148.506 357.996H150.042C149.946 358.444 149.762 358.836 149.49 359.172C149.218 359.508 148.87 359.768 148.446 359.952C148.03 360.136 147.554 360.228 147.018 360.228ZM153.908 360.204C153.012 360.204 152.308 360.016 151.796 359.64C151.292 359.256 151.028 358.728 151.004 358.056H152.504C152.528 358.28 152.652 358.484 152.876 358.668C153.1 358.852 153.452 358.944 153.932 358.944C154.332 358.944 154.648 358.872 154.88 358.728C155.12 358.584 155.24 358.388 155.24 358.14C155.24 357.924 155.148 357.752 154.964 357.624C154.788 357.496 154.484 357.412 154.052 357.372L153.476 357.312C152.748 357.232 152.188 357.024 151.796 356.688C151.404 356.352 151.208 355.904 151.208 355.344C151.208 354.896 151.32 354.52 151.544 354.216C151.768 353.912 152.076 353.684 152.468 353.532C152.868 353.372 153.324 353.292 153.836 353.292C154.636 353.292 155.284 353.468 155.78 353.82C156.276 354.172 156.536 354.688 156.56 355.368H155.06C155.044 355.144 154.932 354.952 154.724 354.792C154.516 354.632 154.216 354.552 153.824 354.552C153.472 354.552 153.2 354.62 153.008 354.756C152.816 354.892 152.72 355.068 152.72 355.284C152.72 355.492 152.796 355.652 152.948 355.764C153.108 355.876 153.364 355.952 153.716 355.992L154.292 356.052C155.06 356.132 155.66 356.344 156.092 356.688C156.532 357.032 156.752 357.496 156.752 358.08C156.752 358.512 156.632 358.888 156.392 359.208C156.16 359.52 155.832 359.764 155.408 359.94C154.984 360.116 154.484 360.204 153.908 360.204ZM160.962 360.084C160.362 360.084 159.866 360.008 159.474 359.856C159.09 359.696 158.802 359.432 158.61 359.064C158.418 358.688 158.322 358.184 158.322 357.552L158.334 351.648H159.894L159.882 357.66C159.882 357.98 159.966 358.228 160.134 358.404C160.31 358.572 160.558 358.656 160.878 358.656H161.898V360.084H160.962ZM157.29 354.708V353.484H161.898V354.708H157.29ZM166.394 360.228C165.818 360.228 165.31 360.136 164.87 359.952C164.43 359.768 164.058 359.52 163.754 359.208C163.45 358.888 163.218 358.528 163.058 358.128C162.906 357.728 162.83 357.312 162.83 356.88V356.628C162.83 356.18 162.91 355.756 163.07 355.356C163.238 354.948 163.474 354.588 163.778 354.276C164.09 353.956 164.466 353.708 164.906 353.532C165.346 353.348 165.842 353.256 166.394 353.256C166.946 353.256 167.442 353.348 167.882 353.532C168.322 353.708 168.694 353.956 168.998 354.276C169.31 354.588 169.546 354.948 169.706 355.356C169.866 355.756 169.946 356.18 169.946 356.628V356.88C169.946 357.312 169.866 357.728 169.706 358.128C169.554 358.528 169.326 358.888 169.022 359.208C168.718 359.52 168.346 359.768 167.906 359.952C167.466 360.136 166.962 360.228 166.394 360.228ZM166.394 358.8C166.802 358.8 167.146 358.712 167.426 358.536C167.706 358.352 167.918 358.108 168.062 357.804C168.206 357.492 168.278 357.14 168.278 356.748C168.278 356.348 168.202 355.996 168.05 355.692C167.906 355.38 167.69 355.136 167.402 354.96C167.122 354.776 166.786 354.684 166.394 354.684C166.002 354.684 165.662 354.776 165.374 354.96C165.094 355.136 164.878 355.38 164.726 355.692C164.574 355.996 164.498 356.348 164.498 356.748C164.498 357.14 164.57 357.492 164.714 357.804C164.866 358.108 165.082 358.352 165.362 358.536C165.642 358.712 165.986 358.8 166.394 358.8ZM171.407 360V353.484H172.727V356.28H172.607C172.607 355.616 172.695 355.064 172.871 354.624C173.047 354.176 173.307 353.84 173.651 353.616C174.003 353.392 174.439 353.28 174.959 353.28H175.031C175.807 353.28 176.395 353.532 176.795 354.036C177.195 354.532 177.395 355.276 177.395 356.268V360H175.727V356.124C175.727 355.724 175.611 355.4 175.379 355.152C175.155 354.904 174.843 354.78 174.443 354.78C174.035 354.78 173.703 354.908 173.447 355.164C173.199 355.412 173.075 355.748 173.075 356.172V360H171.407ZM182.104 360.228C181.544 360.228 181.052 360.132 180.628 359.94C180.212 359.748 179.864 359.492 179.584 359.172C179.312 358.844 179.104 358.48 178.96 358.08C178.824 357.68 178.756 357.272 178.756 356.856V356.628C178.756 356.196 178.824 355.78 178.96 355.38C179.104 354.972 179.312 354.612 179.584 354.3C179.864 353.98 180.208 353.728 180.616 353.544C181.024 353.352 181.496 353.256 182.032 353.256C182.736 353.256 183.324 353.412 183.796 353.724C184.276 354.028 184.636 354.432 184.876 354.936C185.116 355.432 185.236 355.968 185.236 356.544V357.144H179.464V356.124H184.192L183.676 356.628C183.676 356.212 183.616 355.856 183.496 355.56C183.376 355.264 183.192 355.036 182.944 354.876C182.704 354.716 182.4 354.636 182.032 354.636C181.664 354.636 181.352 354.72 181.096 354.888C180.84 355.056 180.644 355.3 180.508 355.62C180.38 355.932 180.316 356.308 180.316 356.748C180.316 357.156 180.38 357.52 180.508 357.84C180.636 358.152 180.832 358.4 181.096 358.584C181.36 358.76 181.696 358.848 182.104 358.848C182.512 358.848 182.844 358.768 183.1 358.608C183.356 358.44 183.52 358.236 183.592 357.996H185.128C185.032 358.444 184.848 358.836 184.576 359.172C184.304 359.508 183.956 359.768 183.532 359.952C183.116 360.136 182.64 360.228 182.104 360.228ZM193.299 360.228C192.507 360.228 191.827 360.088 191.259 359.808C190.691 359.528 190.227 359.164 189.867 358.716C189.515 358.268 189.255 357.78 189.087 357.252C188.919 356.724 188.835 356.216 188.835 355.728V355.464C188.835 354.92 188.919 354.384 189.087 353.856C189.263 353.328 189.531 352.848 189.891 352.416C190.251 351.984 190.707 351.64 191.259 351.384C191.819 351.12 192.479 350.988 193.239 350.988C194.031 350.988 194.719 351.132 195.303 351.42C195.895 351.7 196.367 352.1 196.719 352.62C197.071 353.132 197.283 353.732 197.355 354.42H195.639C195.575 354.02 195.431 353.684 195.207 353.412C194.991 353.132 194.715 352.924 194.379 352.788C194.043 352.644 193.663 352.572 193.239 352.572C192.807 352.572 192.423 352.648 192.087 352.8C191.751 352.944 191.471 353.152 191.247 353.424C191.023 353.696 190.851 354.016 190.731 354.384C190.619 354.752 190.563 355.16 190.563 355.608C190.563 356.04 190.619 356.44 190.731 356.808C190.851 357.176 191.027 357.5 191.259 357.78C191.491 358.052 191.775 358.264 192.111 358.416C192.455 358.568 192.851 358.644 193.299 358.644C193.955 358.644 194.507 358.484 194.955 358.164C195.411 357.836 195.687 357.38 195.783 356.796H197.499C197.419 357.42 197.207 357.992 196.863 358.512C196.519 359.032 196.047 359.448 195.447 359.76C194.847 360.072 194.131 360.228 193.299 360.228ZM202.753 360V358.068H202.477V355.92C202.477 355.544 202.385 355.264 202.201 355.08C202.017 354.896 201.733 354.804 201.349 354.804C201.149 354.804 200.909 354.808 200.629 354.816C200.349 354.824 200.065 354.836 199.777 354.852C199.497 354.86 199.245 354.872 199.021 354.888V353.472C199.205 353.456 199.413 353.44 199.645 353.424C199.877 353.408 200.113 353.4 200.353 353.4C200.601 353.392 200.833 353.388 201.049 353.388C201.721 353.388 202.277 353.476 202.717 353.652C203.165 353.828 203.501 354.104 203.725 354.48C203.957 354.856 204.073 355.348 204.073 355.956V360H202.753ZM200.653 360.168C200.181 360.168 199.765 360.084 199.405 359.916C199.053 359.748 198.777 359.508 198.577 359.196C198.385 358.884 198.289 358.508 198.289 358.068C198.289 357.588 198.405 357.196 198.637 356.892C198.877 356.588 199.209 356.36 199.633 356.208C200.065 356.056 200.569 355.98 201.145 355.98H202.657V356.976H201.121C200.737 356.976 200.441 357.072 200.233 357.264C200.033 357.448 199.933 357.688 199.933 357.984C199.933 358.28 200.033 358.52 200.233 358.704C200.441 358.888 200.737 358.98 201.121 358.98C201.353 358.98 201.565 358.94 201.757 358.86C201.957 358.772 202.121 358.628 202.249 358.428C202.385 358.22 202.461 357.94 202.477 357.588L202.885 358.056C202.845 358.512 202.733 358.896 202.549 359.208C202.373 359.52 202.125 359.76 201.805 359.928C201.493 360.088 201.109 360.168 200.653 360.168ZM209.94 360.228C209.148 360.228 208.468 360.088 207.9 359.808C207.332 359.528 206.868 359.164 206.508 358.716C206.156 358.268 205.896 357.78 205.728 357.252C205.56 356.724 205.476 356.216 205.476 355.728V355.464C205.476 354.92 205.56 354.384 205.728 353.856C205.904 353.328 206.172 352.848 206.532 352.416C206.892 351.984 207.348 351.64 207.9 351.384C208.46 351.12 209.12 350.988 209.88 350.988C210.672 350.988 211.36 351.132 211.944 351.42C212.536 351.7 213.008 352.1 213.36 352.62C213.712 353.132 213.924 353.732 213.996 354.42H212.28C212.216 354.02 212.072 353.684 211.848 353.412C211.632 353.132 211.356 352.924 211.02 352.788C210.684 352.644 210.304 352.572 209.88 352.572C209.448 352.572 209.064 352.648 208.728 352.8C208.392 352.944 208.112 353.152 207.888 353.424C207.664 353.696 207.492 354.016 207.372 354.384C207.26 354.752 207.204 355.16 207.204 355.608C207.204 356.04 207.26 356.44 207.372 356.808C207.492 357.176 207.668 357.5 207.9 357.78C208.132 358.052 208.416 358.264 208.752 358.416C209.096 358.568 209.492 358.644 209.94 358.644C210.596 358.644 211.148 358.484 211.596 358.164C212.052 357.836 212.328 357.38 212.424 356.796H214.14C214.06 357.42 213.848 357.992 213.504 358.512C213.16 359.032 212.688 359.448 212.088 359.76C211.488 360.072 210.772 360.228 209.94 360.228ZM219.694 360.228C218.902 360.228 218.214 360.088 217.63 359.808C217.054 359.528 216.574 359.164 216.19 358.716C215.814 358.26 215.53 357.772 215.338 357.252C215.154 356.724 215.062 356.216 215.062 355.728V355.464C215.062 354.928 215.158 354.396 215.35 353.868C215.542 353.332 215.83 352.848 216.214 352.416C216.606 351.984 217.09 351.64 217.666 351.384C218.242 351.12 218.918 350.988 219.694 350.988C220.462 350.988 221.134 351.12 221.71 351.384C222.286 351.64 222.766 351.984 223.15 352.416C223.542 352.848 223.834 353.332 224.026 353.868C224.218 354.396 224.314 354.928 224.314 355.464V355.728C224.314 356.216 224.218 356.724 224.026 357.252C223.842 357.772 223.558 358.26 223.174 358.716C222.798 359.164 222.318 359.528 221.734 359.808C221.158 360.088 220.478 360.228 219.694 360.228ZM219.694 358.644C220.142 358.644 220.542 358.564 220.894 358.404C221.254 358.244 221.558 358.024 221.806 357.744C222.062 357.456 222.254 357.132 222.382 356.772C222.518 356.404 222.586 356.016 222.586 355.608C222.586 355.168 222.518 354.764 222.382 354.396C222.254 354.028 222.062 353.708 221.806 353.436C221.558 353.164 221.254 352.952 220.894 352.8C220.534 352.648 220.134 352.572 219.694 352.572C219.246 352.572 218.842 352.648 218.482 352.8C218.122 352.952 217.814 353.164 217.558 353.436C217.31 353.708 217.118 354.028 216.982 354.396C216.854 354.764 216.79 355.168 216.79 355.608C216.79 356.016 216.854 356.404 216.982 356.772C217.118 357.132 217.31 357.456 217.558 357.744C217.814 358.024 218.122 358.244 218.482 358.404C218.842 358.564 219.246 358.644 219.694 358.644ZM228.553 360.228C227.881 360.228 227.301 360.1 226.813 359.844C226.333 359.588 225.965 359.248 225.709 358.824C225.453 358.392 225.325 357.912 225.325 357.384H226.969C226.969 357.808 227.109 358.152 227.389 358.416C227.677 358.672 228.065 358.8 228.553 358.8C228.881 358.8 229.161 358.74 229.393 358.62C229.633 358.492 229.817 358.32 229.945 358.104C230.073 357.88 230.137 357.624 230.137 357.336C230.137 356.904 229.997 356.552 229.717 356.28C229.437 356 229.053 355.86 228.565 355.86C228.325 355.86 228.113 355.892 227.929 355.956C227.753 356.02 227.597 356.104 227.461 356.208L226.681 354.864L229.561 352.896L229.453 352.692H225.685V351.24H231.409V352.992L228.445 354.96L227.521 354.792C227.673 354.744 227.837 354.708 228.013 354.684C228.189 354.652 228.381 354.636 228.589 354.636C229.253 354.636 229.821 354.752 230.293 354.984C230.773 355.208 231.141 355.52 231.397 355.92C231.653 356.32 231.781 356.78 231.781 357.3V357.456C231.781 357.96 231.653 358.424 231.397 358.848C231.141 359.264 230.773 359.6 230.293 359.856C229.813 360.104 229.233 360.228 228.553 360.228Z" fill="#134832"/>
<path d="M214.387 147.6C214.387 133.839 204.371 122.377 191.467 119.626C188.71 106.713 177.222 97 163.493 97C158.87 97 154.398 98.1031 150.385 100.182C143.532 90.034 132.103 83.8 119.493 83.8C99.351 83.8 82.879 99.8016 82.1206 119.762C69.5111 122.734 59.8 134.056 59.8 147.6C59.8 163.404 72.9522 176.2 88.6933 176.2H185.493C201.235 176.2 214.387 163.404 214.387 147.6Z" stroke="black" stroke-opacity="0.05" stroke-width="4.4"/>
<path d="M95.5194 143.604C95.2314 143.604 94.9754 143.552 94.7514 143.448C94.5274 143.336 94.3194 143.212 94.1274 143.076C93.9434 142.932 93.7674 142.808 93.5994 142.704C93.4314 142.592 93.2594 142.536 93.0834 142.536C92.9234 142.536 92.7834 142.596 92.6634 142.716C92.5434 142.836 92.4554 143.04 92.3994 143.328L91.3914 143.34C91.4154 142.868 91.5114 142.48 91.6794 142.176C91.8554 141.864 92.0714 141.632 92.3274 141.48C92.5834 141.328 92.8474 141.252 93.1194 141.252C93.4074 141.252 93.6634 141.308 93.8874 141.42C94.1114 141.524 94.3154 141.644 94.4994 141.78C94.6914 141.916 94.8714 142.04 95.0394 142.152C95.2074 142.256 95.3754 142.308 95.5434 142.308C95.7114 142.308 95.8554 142.248 95.9754 142.128C96.0954 142.008 96.1794 141.804 96.2274 141.516H97.2354C97.2194 141.996 97.1234 142.392 96.9474 142.704C96.7714 143.008 96.5554 143.236 96.2994 143.388C96.0514 143.532 95.7914 143.604 95.5194 143.604ZM102.289 146.28V138.576L102.817 138.984H100.501V137.52H103.981V146.28H102.289ZM111.537 146.364C110.937 146.364 110.441 146.288 110.049 146.136C109.665 145.976 109.377 145.712 109.185 145.344C108.993 144.968 108.897 144.464 108.897 143.832L108.909 137.928H110.469L110.457 143.94C110.457 144.26 110.541 144.508 110.709 144.684C110.885 144.852 111.133 144.936 111.453 144.936H112.473V146.364H111.537ZM107.865 140.988V139.764H112.473V140.988H107.865ZM116.97 146.508C116.394 146.508 115.886 146.416 115.446 146.232C115.006 146.048 114.634 145.8 114.33 145.488C114.026 145.168 113.794 144.808 113.634 144.408C113.482 144.008 113.406 143.592 113.406 143.16V142.908C113.406 142.46 113.486 142.036 113.646 141.636C113.814 141.228 114.05 140.868 114.354 140.556C114.666 140.236 115.042 139.988 115.482 139.812C115.922 139.628 116.418 139.536 116.97 139.536C117.522 139.536 118.018 139.628 118.458 139.812C118.898 139.988 119.27 140.236 119.574 140.556C119.886 140.868 120.122 141.228 120.282 141.636C120.442 142.036 120.522 142.46 120.522 142.908V143.16C120.522 143.592 120.442 144.008 120.282 144.408C120.13 144.808 119.902 145.168 119.598 145.488C119.294 145.8 118.922 146.048 118.482 146.232C118.042 146.416 117.538 146.508 116.97 146.508ZM116.97 145.08C117.378 145.08 117.722 144.992 118.002 144.816C118.282 144.632 118.494 144.388 118.638 144.084C118.782 143.772 118.854 143.42 118.854 143.028C118.854 142.628 118.778 142.276 118.626 141.972C118.482 141.66 118.266 141.416 117.978 141.24C117.698 141.056 117.362 140.964 116.97 140.964C116.578 140.964 116.238 141.056 115.95 141.24C115.67 141.416 115.454 141.66 115.302 141.972C115.15 142.276 115.074 142.628 115.074 143.028C115.074 143.42 115.146 143.772 115.29 144.084C115.442 144.388 115.658 144.632 115.938 144.816C116.218 144.992 116.562 145.08 116.97 145.08ZM121.982 146.28V139.764H123.302V142.56H123.182C123.182 141.896 123.27 141.344 123.446 140.904C123.622 140.456 123.882 140.12 124.226 139.896C124.578 139.672 125.014 139.56 125.534 139.56H125.606C126.382 139.56 126.97 139.812 127.37 140.316C127.77 140.812 127.97 141.556 127.97 142.548V146.28H126.302V142.404C126.302 142.004 126.186 141.68 125.954 141.432C125.73 141.184 125.418 141.06 125.018 141.06C124.61 141.06 124.278 141.188 124.022 141.444C123.774 141.692 123.65 142.028 123.65 142.452V146.28H121.982ZM136.433 146.508C135.641 146.508 134.961 146.368 134.393 146.088C133.825 145.808 133.361 145.444 133.001 144.996C132.649 144.548 132.389 144.06 132.221 143.532C132.053 143.004 131.969 142.496 131.969 142.008V141.744C131.969 141.2 132.053 140.664 132.221 140.136C132.397 139.608 132.665 139.128 133.025 138.696C133.385 138.264 133.841 137.92 134.393 137.664C134.953 137.4 135.613 137.268 136.373 137.268C137.165 137.268 137.853 137.412 138.437 137.7C139.029 137.98 139.501 138.38 139.853 138.9C140.205 139.412 140.417 140.012 140.489 140.7H138.773C138.709 140.3 138.565 139.964 138.341 139.692C138.125 139.412 137.849 139.204 137.513 139.068C137.177 138.924 136.797 138.852 136.373 138.852C135.941 138.852 135.557 138.928 135.221 139.08C134.885 139.224 134.605 139.432 134.381 139.704C134.157 139.976 133.985 140.296 133.865 140.664C133.753 141.032 133.697 141.44 133.697 141.888C133.697 142.32 133.753 142.72 133.865 143.088C133.985 143.456 134.161 143.78 134.393 144.06C134.625 144.332 134.909 144.544 135.245 144.696C135.589 144.848 135.985 144.924 136.433 144.924C137.089 144.924 137.641 144.764 138.089 144.444C138.545 144.116 138.821 143.66 138.917 143.076H140.633C140.553 143.7 140.341 144.272 139.997 144.792C139.653 145.312 139.181 145.728 138.581 146.04C137.981 146.352 137.265 146.508 136.433 146.508ZM146.187 146.508C145.395 146.508 144.707 146.368 144.123 146.088C143.547 145.808 143.067 145.444 142.683 144.996C142.307 144.54 142.023 144.052 141.831 143.532C141.647 143.004 141.555 142.496 141.555 142.008V141.744C141.555 141.208 141.651 140.676 141.843 140.148C142.035 139.612 142.323 139.128 142.707 138.696C143.099 138.264 143.583 137.92 144.159 137.664C144.735 137.4 145.411 137.268 146.187 137.268C146.955 137.268 147.627 137.4 148.203 137.664C148.779 137.92 149.259 138.264 149.643 138.696C150.035 139.128 150.327 139.612 150.519 140.148C150.711 140.676 150.807 141.208 150.807 141.744V142.008C150.807 142.496 150.711 143.004 150.519 143.532C150.335 144.052 150.051 144.54 149.667 144.996C149.291 145.444 148.811 145.808 148.227 146.088C147.651 146.368 146.971 146.508 146.187 146.508ZM146.187 144.924C146.635 144.924 147.035 144.844 147.387 144.684C147.747 144.524 148.051 144.304 148.299 144.024C148.555 143.736 148.747 143.412 148.875 143.052C149.011 142.684 149.079 142.296 149.079 141.888C149.079 141.448 149.011 141.044 148.875 140.676C148.747 140.308 148.555 139.988 148.299 139.716C148.051 139.444 147.747 139.232 147.387 139.08C147.027 138.928 146.627 138.852 146.187 138.852C145.739 138.852 145.335 138.928 144.975 139.08C144.615 139.232 144.307 139.444 144.051 139.716C143.803 139.988 143.611 140.308 143.475 140.676C143.347 141.044 143.283 141.448 143.283 141.888C143.283 142.296 143.347 142.684 143.475 143.052C143.611 143.412 143.803 143.736 144.051 144.024C144.307 144.304 144.615 144.524 144.975 144.684C145.335 144.844 145.739 144.924 146.187 144.924ZM155.49 147.84H151.698V146.856L153.006 145.572C153.246 145.34 153.434 145.148 153.57 144.996C153.706 144.836 153.802 144.692 153.858 144.564C153.914 144.436 153.942 144.304 153.942 144.168C153.942 144.024 153.894 143.912 153.798 143.832C153.71 143.752 153.586 143.712 153.426 143.712C153.274 143.712 153.11 143.752 152.934 143.832C152.766 143.912 152.578 144.044 152.37 144.228L151.65 143.34C151.906 143.116 152.19 142.936 152.502 142.8C152.822 142.656 153.194 142.584 153.618 142.584C154.138 142.584 154.554 142.712 154.866 142.968C155.186 143.216 155.346 143.576 155.346 144.048C155.346 144.288 155.302 144.512 155.214 144.72C155.126 144.92 154.986 145.132 154.794 145.356C154.602 145.572 154.35 145.824 154.038 146.112L153.426 146.664H155.49V147.84ZM156.173 147L158.645 136.92H160.313L157.841 147H156.173ZM164.33 146.364C163.73 146.364 163.234 146.288 162.842 146.136C162.458 145.976 162.17 145.712 161.978 145.344C161.786 144.968 161.69 144.464 161.69 143.832L161.702 137.928H163.262L163.25 143.94C163.25 144.26 163.334 144.508 163.502 144.684C163.678 144.852 163.926 144.936 164.246 144.936H165.266V146.364H164.33ZM160.658 140.988V139.764H165.266V140.988H160.658ZM169.763 146.508C169.187 146.508 168.679 146.416 168.239 146.232C167.799 146.048 167.427 145.8 167.123 145.488C166.819 145.168 166.587 144.808 166.427 144.408C166.275 144.008 166.199 143.592 166.199 143.16V142.908C166.199 142.46 166.279 142.036 166.439 141.636C166.607 141.228 166.843 140.868 167.147 140.556C167.459 140.236 167.835 139.988 168.275 139.812C168.715 139.628 169.211 139.536 169.763 139.536C170.315 139.536 170.811 139.628 171.251 139.812C171.691 139.988 172.063 140.236 172.367 140.556C172.679 140.868 172.915 141.228 173.075 141.636C173.235 142.036 173.315 142.46 173.315 142.908V143.16C173.315 143.592 173.235 144.008 173.075 144.408C172.923 144.808 172.695 145.168 172.391 145.488C172.087 145.8 171.715 146.048 171.275 146.232C170.835 146.416 170.331 146.508 169.763 146.508ZM169.763 145.08C170.171 145.08 170.515 144.992 170.795 144.816C171.075 144.632 171.287 144.388 171.431 144.084C171.575 143.772 171.647 143.42 171.647 143.028C171.647 142.628 171.571 142.276 171.419 141.972C171.275 141.66 171.059 141.416 170.771 141.24C170.491 141.056 170.155 140.964 169.763 140.964C169.371 140.964 169.031 141.056 168.743 141.24C168.463 141.416 168.247 141.66 168.095 141.972C167.943 142.276 167.867 142.628 167.867 143.028C167.867 143.42 167.939 143.772 168.083 144.084C168.235 144.388 168.451 144.632 168.731 144.816C169.011 144.992 169.355 145.08 169.763 145.08ZM174.775 146.28V139.764H176.095V142.56H175.975C175.975 141.896 176.063 141.344 176.239 140.904C176.415 140.456 176.675 140.12 177.019 139.896C177.371 139.672 177.807 139.56 178.327 139.56H178.399C179.175 139.56 179.763 139.812 180.163 140.316C180.563 140.812 180.763 141.556 180.763 142.548V146.28H179.095V142.404C179.095 142.004 178.979 141.68 178.747 141.432C178.523 141.184 178.211 141.06 177.811 141.06C177.403 141.06 177.071 141.188 176.815 141.444C176.567 141.692 176.443 142.028 176.443 142.452V146.28H174.775Z" fill="#134832"/>
<path d="M144.45 226.38C143.13 226.38 141.997 226.147 141.05 225.68C140.104 225.213 139.33 224.607 138.73 223.86C138.144 223.113 137.71 222.3 137.43 221.42C137.15 220.54 137.01 219.693 137.01 218.88V218.44C137.01 217.533 137.15 216.64 137.43 215.76C137.724 214.88 138.17 214.08 138.77 213.36C139.37 212.64 140.13 212.067 141.05 211.64C141.984 211.2 143.084 210.98 144.35 210.98C145.67 210.98 146.817 211.22 147.79 211.7C148.777 212.167 149.564 212.833 150.15 213.7C150.737 214.553 151.09 215.553 151.21 216.7H148.35C148.244 216.033 148.004 215.473 147.63 215.02C147.27 214.553 146.81 214.207 146.25 213.98C145.69 213.74 145.057 213.62 144.35 213.62C143.63 213.62 142.99 213.747 142.43 214C141.87 214.24 141.404 214.587 141.03 215.04C140.657 215.493 140.37 216.027 140.17 216.64C139.984 217.253 139.89 217.933 139.89 218.68C139.89 219.4 139.984 220.067 140.17 220.68C140.37 221.293 140.664 221.833 141.05 222.3C141.437 222.753 141.91 223.107 142.47 223.36C143.044 223.613 143.704 223.74 144.45 223.74C145.544 223.74 146.464 223.473 147.21 222.94C147.97 222.393 148.43 221.633 148.59 220.66H151.45C151.317 221.7 150.964 222.653 150.39 223.52C149.817 224.387 149.03 225.08 148.03 225.6C147.03 226.12 145.837 226.38 144.45 226.38ZM160.707 226.38C159.387 226.38 158.24 226.147 157.267 225.68C156.307 225.213 155.507 224.607 154.867 223.86C154.24 223.1 153.767 222.287 153.447 221.42C153.14 220.54 152.987 219.693 152.987 218.88V218.44C152.987 217.547 153.147 216.66 153.467 215.78C153.787 214.887 154.267 214.08 154.907 213.36C155.56 212.64 156.367 212.067 157.327 211.64C158.287 211.2 159.414 210.98 160.707 210.98C161.987 210.98 163.107 211.2 164.067 211.64C165.027 212.067 165.827 212.64 166.467 213.36C167.12 214.08 167.607 214.887 167.927 215.78C168.247 216.66 168.407 217.547 168.407 218.44V218.88C168.407 219.693 168.247 220.54 167.927 221.42C167.62 222.287 167.147 223.1 166.507 223.86C165.88 224.607 165.08 225.213 164.107 225.68C163.147 226.147 162.014 226.38 160.707 226.38ZM160.707 223.74C161.454 223.74 162.12 223.607 162.707 223.34C163.307 223.073 163.814 222.707 164.227 222.24C164.654 221.76 164.974 221.22 165.187 220.62C165.414 220.007 165.527 219.36 165.527 218.68C165.527 217.947 165.414 217.273 165.187 216.66C164.974 216.047 164.654 215.513 164.227 215.06C163.814 214.607 163.307 214.253 162.707 214C162.107 213.747 161.44 213.62 160.707 213.62C159.96 213.62 159.287 213.747 158.687 214C158.087 214.253 157.574 214.607 157.147 215.06C156.734 215.513 156.414 216.047 156.187 216.66C155.974 217.273 155.867 217.947 155.867 218.68C155.867 219.36 155.974 220.007 156.187 220.62C156.414 221.22 156.734 221.76 157.147 222.24C157.574 222.707 158.087 223.073 158.687 223.34C159.287 223.607 159.96 223.74 160.707 223.74ZM176.212 228.6H169.892V226.96L172.072 224.82C172.472 224.433 172.785 224.113 173.012 223.86C173.238 223.593 173.398 223.353 173.492 223.14C173.585 222.927 173.632 222.707 173.632 222.48C173.632 222.24 173.552 222.053 173.392 221.92C173.245 221.787 173.038 221.72 172.772 221.72C172.518 221.72 172.245 221.787 171.952 221.92C171.672 222.053 171.358 222.273 171.012 222.58L169.812 221.1C170.238 220.727 170.712 220.427 171.232 220.2C171.765 219.96 172.385 219.84 173.092 219.84C173.958 219.84 174.652 220.053 175.172 220.48C175.705 220.893 175.972 221.493 175.972 222.28C175.972 222.68 175.898 223.053 175.752 223.4C175.605 223.733 175.372 224.087 175.052 224.46C174.732 224.82 174.312 225.24 173.792 225.72L172.772 226.64H176.212V228.6Z" fill="#D9D9D9"/>
<path d="M128.512 212.233L114.443 192.568C114.317 192.392 114.151 192.249 113.959 192.151C113.768 192.052 113.555 192 113.339 192H113.336C113.12 192 112.906 192.053 112.714 192.152C112.522 192.251 112.356 192.395 112.23 192.572L98.2512 212.238C98.1065 212.441 98.0208 212.68 98.0033 212.929C97.9859 213.178 98.0375 213.427 98.1524 213.648C98.2666 213.87 98.4397 214.056 98.6527 214.185C98.8658 214.315 99.1104 214.383 99.3598 214.383H105.939L105.938 232.046C105.938 232.224 105.973 232.401 106.041 232.566C106.11 232.731 106.21 232.88 106.336 233.007C106.462 233.133 106.612 233.233 106.777 233.301C106.942 233.369 107.118 233.404 107.297 233.404L119.469 233.403C119.647 233.403 119.824 233.368 119.989 233.3C120.154 233.232 120.304 233.132 120.43 233.005C120.556 232.879 120.656 232.729 120.724 232.564C120.793 232.399 120.828 232.223 120.828 232.044V214.384H127.409C127.916 214.384 128.382 214.097 128.616 213.645C128.731 213.423 128.782 213.174 128.763 212.925C128.745 212.675 128.658 212.436 128.512 212.233Z" fill="#D9D9D9"/>
<g clip-path="url(#clip0_182_1290)">
<path d="M133.906 332.578H155.125V307.547H131.062L133.906 332.578ZM147.531 311.094C147.531 310.609 147.922 310.219 148.406 310.219H151.531C152.016 310.219 152.406 310.609 152.406 311.094V314.219C152.406 314.703 152.016 315.094 151.531 315.094C146.828 315.047 147.578 315.797 147.531 311.094ZM147.531 317.266C147.531 316.781 147.922 316.391 148.406 316.391H151.531C152.016 316.391 152.406 316.781 152.406 317.266V320.391C152.406 320.875 152.016 321.266 151.531 321.266C146.828 321.219 147.578 321.969 147.531 317.266ZM147.531 323.453C147.531 322.969 147.922 322.578 148.406 322.578H151.531C152.016 322.578 152.406 322.969 152.406 323.453V326.578C152.406 327.062 152.016 327.453 151.531 327.453C146.828 327.391 147.578 328.141 147.531 323.453ZM140.594 311.094C140.594 310.609 140.984 310.219 141.469 310.219H144.578C145.062 310.219 145.453 310.609 145.453 311.094V314.219C145.453 314.703 145.062 315.094 144.578 315.094C139.891 315.047 140.641 315.781 140.594 311.094ZM140.594 317.266C140.594 316.781 140.984 316.391 141.469 316.391H144.578C145.062 316.391 145.453 316.781 145.453 317.266V320.391C145.453 320.875 145.062 321.266 144.578 321.266C139.891 321.219 140.641 321.953 140.594 317.266ZM140.594 323.453C140.594 322.969 140.984 322.578 141.469 322.578H144.578C145.062 322.578 145.453 322.969 145.453 323.453V326.578C145.453 327.062 145.062 327.453 144.578 327.453C139.891 327.406 140.641 328.141 140.594 323.453ZM133.656 311.094C133.656 310.609 134.047 310.219 134.531 310.219H137.641C138.125 310.219 138.516 310.609 138.516 311.094V314.219C138.516 314.703 138.125 315.094 137.641 315.094C132.953 315.047 133.719 315.781 133.656 311.094ZM134.531 316.391C139.234 316.437 138.469 315.703 138.516 320.391C138.516 320.875 138.125 321.266 137.641 321.266H134.531C134.047 321.266 133.656 320.875 133.656 320.391V317.266C133.656 316.781 134.062 316.391 134.531 316.391ZM156.859 313.328V332.578H176.844V307.828L156.859 313.328ZM162.781 328.062C162.766 329.219 161.047 329.219 161.031 328.062V317.266C161.047 316.109 162.766 316.109 162.781 317.266V328.062ZM167.734 328.062C167.719 329.219 166 329.219 165.984 328.062V317.266C166 316.109 167.719 316.109 167.734 317.266V328.062ZM172.672 328.062C172.656 329.219 170.938 329.219 170.922 328.062V317.266C170.938 316.109 172.656 316.109 172.672 317.266V328.062ZM156.859 306.672C156.859 306.187 156.469 305.797 155.984 305.797H152.391V296.641C154.438 295.875 163.578 292.391 165.797 291.547V309.047L156.859 311.516V306.672ZM134.906 305.797H150.656V296.031C150.656 295.672 150.891 295.344 151.219 295.219L154.297 294.047V283.641L134.922 288.937V305.797H134.906ZM138.438 291.609H147.578C148.734 291.625 148.734 293.344 147.578 293.359H138.438C137.297 293.359 137.297 291.609 138.438 291.609ZM138.438 296.547H147.578C148.734 296.562 148.734 298.281 147.578 298.297H138.438C137.297 298.312 137.297 296.547 138.438 296.547ZM138.438 301.484H147.578C148.734 301.5 148.734 303.219 147.578 303.234H138.438C137.297 303.25 137.297 301.484 138.438 301.484ZM110.328 271.656H102.188V270.391H110.328V271.656ZM127.938 281.609H121.422V280.844H127.938V281.609ZM148.359 261.328C150.016 262.125 151.656 264.156 151.688 266.047C151.703 267.594 150.234 268.437 149.016 268.156C148.672 268.109 148.328 268.266 148.141 268.562C147.953 268.859 147.969 269.234 148.172 269.516C148.938 270.625 148.734 272.172 147.703 273.031C146.672 273.906 145.109 273.812 144.172 272.844C143.906 272.578 143.5 272.5 143.172 272.672C142.828 272.828 142.641 273.187 142.672 273.562C142.906 276.609 138.734 276.937 138.359 273.984C138.297 273.031 136.891 272.906 136.641 273.828C136.266 275.531 133.984 276.109 132.828 274.078C132.625 273.687 132.156 273.516 131.766 273.672C131.359 273.828 131.109 274.25 131.203 274.672C131.641 276.531 129.578 278.187 127.859 277.344C127.094 276.969 126.266 277.906 126.75 278.609C126.828 278.734 126.922 278.906 126.984 279.094H122.156C122.422 277.953 123.516 277.141 124.75 277.156C125.344 277.141 125.828 276.516 125.562 275.937C124.609 273.687 125.031 271.109 126.625 269.469C128.203 267.844 130.75 267.516 132.938 268.531C133.453 268.781 134.141 268.406 134.172 267.828C134.578 264.656 137.469 263.562 139.141 265.562C139.578 266.047 140.453 265.875 140.625 265.219C141.531 262.016 145.281 259.906 148.359 261.328ZM103.75 268.641C101.188 265.375 104.547 261.016 108.359 262.734C108.906 263.016 109.594 262.547 109.594 261.953C109.656 257.891 112.359 254.422 116.016 253.687C118.719 253.156 121.641 254.219 123.625 256.5C123.812 256.703 124.078 256.812 124.359 256.797C124.641 256.766 124.891 256.609 125.031 256.359C127.5 252.312 132.109 252.609 133.188 256.312C133.375 256.937 134.266 257.125 134.672 256.609C138.875 251.578 147.547 252.828 148.922 259.672C145.422 258.141 141 260.078 139.391 263.5C136.906 261.703 133.438 263.422 132.625 266.531C130.656 265.922 128.469 266.125 126.688 267.156C126.719 266.953 126.766 266.75 126.844 266.531C127.156 265.641 125.906 264.953 125.328 265.703C123.688 267.844 120.172 267.266 119.781 263.687C119.719 262.703 118.281 262.609 118.047 263.578C117.516 266.453 113.625 267.469 111.734 265.219C111.484 264.922 111.062 264.844 110.703 265.016C110.359 265.172 110.156 265.547 110.219 265.937C110.391 266.594 110.109 268.031 109.422 268.641H103.75ZM110.625 290.937H101.891L103.875 273.406H108.625L110.625 290.937ZM120.984 299.5H128.375L128.672 302.078L128.688 302.187H120.688L120.984 299.5ZM111.234 296.25H101.281C101.328 295.891 101.641 293.125 101.688 292.703H110.828C110.922 293.5 111.141 295.422 111.234 296.25ZM121.188 297.734L122.812 283.359H126.531L128.156 297.734H121.188ZM118.297 307.547L116.281 325.219L114.266 307.547H118.297ZM128.875 303.937L132.141 332.578H117.219L120.469 303.937H128.875ZM111.422 298L115.359 332.578H97.1562L101.094 298H111.422ZM136.781 313.344H135.422V311.969H136.781V313.344ZM136.781 319.516H135.422V318.141H136.781V319.516ZM143.703 313.344H142.344V311.969H143.703V313.344ZM150.641 313.344H149.266V311.969H150.641V313.344ZM143.703 319.516H142.344V318.141H143.703V319.516ZM150.641 319.516H149.266V318.141H150.641V319.516ZM143.703 325.687H142.344V324.312H143.703V325.687ZM150.641 325.687H149.266V324.312H150.641V325.687Z" fill="#134832"/>
</g>
<defs>
<clipPath id="clip0_182_1290">
<rect width="80" height="80" fill="white" transform="translate(97 253)"/>
</clipPath>
</defs>
</svg>
