<svg width="425" height="343" viewBox="0 0 425 343" fill="none" xmlns="http://www.w3.org/2000/svg">
<rect width="425" height="342" transform="translate(0 0.489746)" fill="white"/>
<path opacity="0.5" d="M15.0054 328.234C14.2948 328.234 13.6881 328.113 13.1854 327.87C12.6914 327.619 12.2884 327.281 11.9764 326.856C11.6731 326.431 11.4521 325.942 11.3134 325.387C11.1748 324.824 11.1054 324.23 11.1054 323.606V322.904C11.1054 322.029 11.2398 321.24 11.5084 320.538C11.7858 319.836 12.2104 319.281 12.7824 318.874C13.3631 318.458 14.1041 318.25 15.0054 318.25C15.9068 318.25 16.6434 318.458 17.2154 318.874C17.7874 319.281 18.2078 319.836 18.4764 320.538C18.7538 321.24 18.8924 322.029 18.8924 322.904V323.606C18.8924 324.23 18.8231 324.824 18.6844 325.387C18.5458 325.942 18.3204 326.431 18.0084 326.856C17.7051 327.281 17.3064 327.619 16.8124 327.87C16.3184 328.113 15.7161 328.234 15.0054 328.234ZM15.0054 327.09C15.9068 327.09 16.5654 326.787 16.9814 326.18C17.4061 325.565 17.6184 324.594 17.6184 323.268C17.6184 321.881 17.4018 320.889 16.9684 320.291C16.5438 319.693 15.8894 319.394 15.0054 319.394C14.1128 319.394 13.4498 319.693 13.0164 320.291C12.5918 320.889 12.3794 321.873 12.3794 323.242C12.3794 324.577 12.5918 325.552 13.0164 326.167C13.4411 326.782 14.1041 327.09 15.0054 327.09Z" fill="black"/>
<path opacity="0.5" d="M59.3088 328V326.44C59.3088 326.059 59.3608 325.734 59.4648 325.465C59.5775 325.196 59.7681 324.954 60.0368 324.737C60.3055 324.512 60.6695 324.295 61.1288 324.087L62.9098 323.268C63.3431 323.069 63.6855 322.813 63.9368 322.501C64.1881 322.18 64.3138 321.769 64.3138 321.266C64.3138 320.659 64.1448 320.187 63.8068 319.849C63.4688 319.511 62.9921 319.342 62.3768 319.342C61.7701 319.342 61.2935 319.511 60.9468 319.849C60.6001 320.187 60.4268 320.659 60.4268 321.266H59.2048C59.2048 320.72 59.3175 320.217 59.5428 319.758C59.7768 319.299 60.1278 318.935 60.5958 318.666C61.0638 318.389 61.6575 318.25 62.3768 318.25C63.0961 318.25 63.6855 318.389 64.1448 318.666C64.6128 318.935 64.9595 319.29 65.1848 319.732C65.4188 320.174 65.5358 320.655 65.5358 321.175V321.357C65.5358 322.042 65.3365 322.618 64.9378 323.086C64.5478 323.554 64.0191 323.94 63.3518 324.243L61.5708 325.062C61.1721 325.244 60.9035 325.426 60.7648 325.608C60.6261 325.79 60.5568 326.033 60.5568 326.336V327.532L60.2188 326.934H65.6528V328H59.3088ZM71.6929 328.234C70.9823 328.234 70.3756 328.113 69.8729 327.87C69.3789 327.619 68.9759 327.281 68.6639 326.856C68.3606 326.431 68.1396 325.942 68.0009 325.387C67.8623 324.824 67.7929 324.23 67.7929 323.606V322.904C67.7929 322.029 67.9273 321.24 68.1959 320.538C68.4733 319.836 68.8979 319.281 69.4699 318.874C70.0506 318.458 70.7916 318.25 71.6929 318.25C72.5943 318.25 73.3309 318.458 73.9029 318.874C74.4749 319.281 74.8953 319.836 75.1639 320.538C75.4413 321.24 75.5799 322.029 75.5799 322.904V323.606C75.5799 324.23 75.5106 324.824 75.3719 325.387C75.2333 325.942 75.0079 326.431 74.6959 326.856C74.3926 327.281 73.9939 327.619 73.4999 327.87C73.0059 328.113 72.4036 328.234 71.6929 328.234ZM71.6929 327.09C72.5943 327.09 73.2529 326.787 73.6689 326.18C74.0936 325.565 74.3059 324.594 74.3059 323.268C74.3059 321.881 74.0893 320.889 73.6559 320.291C73.2313 319.693 72.5769 319.394 71.6929 319.394C70.8003 319.394 70.1373 319.693 69.7039 320.291C69.2793 320.889 69.0669 321.873 69.0669 323.242C69.0669 324.577 69.2793 325.552 69.7039 326.167C70.1286 326.782 70.7916 327.09 71.6929 327.09ZM81.8541 328.234C81.1434 328.234 80.5367 328.113 80.0341 327.87C79.5401 327.619 79.1371 327.281 78.8251 326.856C78.5217 326.431 78.3007 325.942 78.1621 325.387C78.0234 324.824 77.9541 324.23 77.9541 323.606V322.904C77.9541 322.029 78.0884 321.24 78.3571 320.538C78.6344 319.836 79.0591 319.281 79.6311 318.874C80.2117 318.458 80.9527 318.25 81.8541 318.25C82.7554 318.25 83.4921 318.458 84.0641 318.874C84.6361 319.281 85.0564 319.836 85.3251 320.538C85.6024 321.24 85.7411 322.029 85.7411 322.904V323.606C85.7411 324.23 85.6717 324.824 85.5331 325.387C85.3944 325.942 85.1691 326.431 84.8571 326.856C84.5537 327.281 84.1551 327.619 83.6611 327.87C83.1671 328.113 82.5647 328.234 81.8541 328.234ZM81.8541 327.09C82.7554 327.09 83.4141 326.787 83.8301 326.18C84.2547 325.565 84.4671 324.594 84.4671 323.268C84.4671 321.881 84.2504 320.889 83.8171 320.291C83.3924 319.693 82.7381 319.394 81.8541 319.394C80.9614 319.394 80.2984 319.693 79.8651 320.291C79.4404 320.889 79.2281 321.873 79.2281 323.242C79.2281 324.577 79.4404 325.552 79.8651 326.167C80.2897 326.782 80.9527 327.09 81.8541 327.09Z" fill="black"/>
<path opacity="0.5" d="M125.792 325.751V324.217L129.731 318.276L130.602 318.965L126.923 324.529L127.04 324.763H133.176V325.751H125.792ZM130.745 328V321.279H131.915V328H130.745ZM138.845 328.234C138.135 328.234 137.528 328.113 137.025 327.87C136.531 327.619 136.128 327.281 135.816 326.856C135.513 326.431 135.292 325.942 135.153 325.387C135.015 324.824 134.945 324.23 134.945 323.606V322.904C134.945 322.029 135.08 321.24 135.348 320.538C135.626 319.836 136.05 319.281 136.622 318.874C137.203 318.458 137.944 318.25 138.845 318.25C139.747 318.25 140.483 318.458 141.055 318.874C141.627 319.281 142.048 319.836 142.316 320.538C142.594 321.24 142.732 322.029 142.732 322.904V323.606C142.732 324.23 142.663 324.824 142.524 325.387C142.386 325.942 142.16 326.431 141.848 326.856C141.545 327.281 141.146 327.619 140.652 327.87C140.158 328.113 139.556 328.234 138.845 328.234ZM138.845 327.09C139.747 327.09 140.405 326.787 140.821 326.18C141.246 325.565 141.458 324.594 141.458 323.268C141.458 321.881 141.242 320.889 140.808 320.291C140.384 319.693 139.729 319.394 138.845 319.394C137.953 319.394 137.29 319.693 136.856 320.291C136.432 320.889 136.219 321.873 136.219 323.242C136.219 324.577 136.432 325.552 136.856 326.167C137.281 326.782 137.944 327.09 138.845 327.09ZM149.006 328.234C148.296 328.234 147.689 328.113 147.186 327.87C146.692 327.619 146.289 327.281 145.977 326.856C145.674 326.431 145.453 325.942 145.314 325.387C145.176 324.824 145.106 324.23 145.106 323.606V322.904C145.106 322.029 145.241 321.24 145.509 320.538C145.787 319.836 146.211 319.281 146.783 318.874C147.364 318.458 148.105 318.25 149.006 318.25C149.908 318.25 150.644 318.458 151.216 318.874C151.788 319.281 152.209 319.836 152.477 320.538C152.755 321.24 152.893 322.029 152.893 322.904V323.606C152.893 324.23 152.824 324.824 152.685 325.387C152.547 325.942 152.321 326.431 152.009 326.856C151.706 327.281 151.307 327.619 150.813 327.87C150.319 328.113 149.717 328.234 149.006 328.234ZM149.006 327.09C149.908 327.09 150.566 326.787 150.982 326.18C151.407 325.565 151.619 324.594 151.619 323.268C151.619 321.881 151.403 320.889 150.969 320.291C150.545 319.693 149.89 319.394 149.006 319.394C148.114 319.394 147.451 319.693 147.017 320.291C146.593 320.889 146.38 321.873 146.38 323.242C146.38 324.577 146.593 325.552 147.017 326.167C147.442 326.782 148.105 327.09 149.006 327.09Z" fill="black"/>
<path opacity="0.5" d="M196.591 328.26C195.898 328.26 195.317 328.139 194.849 327.896C194.39 327.653 194.022 327.324 193.744 326.908C193.476 326.483 193.281 325.998 193.159 325.452C193.047 324.906 192.99 324.334 192.99 323.736V323.112C192.99 321.613 193.363 320.46 194.108 319.654C194.854 318.839 195.933 318.432 197.345 318.432C197.683 318.432 197.969 318.441 198.203 318.458C198.437 318.475 198.693 318.501 198.97 318.536V319.602C198.684 319.567 198.42 319.541 198.177 319.524C197.935 319.507 197.64 319.498 197.293 319.498C196.505 319.498 195.881 319.645 195.421 319.94C194.962 320.235 194.633 320.659 194.433 321.214C194.234 321.76 194.134 322.423 194.134 323.203V323.788L193.822 324.945C193.831 324.26 193.961 323.693 194.212 323.242C194.472 322.791 194.823 322.453 195.265 322.228C195.716 322.003 196.232 321.89 196.812 321.89C197.488 321.89 198.06 322.029 198.528 322.306C198.996 322.575 199.347 322.947 199.581 323.424C199.824 323.901 199.945 324.442 199.945 325.049C199.945 325.664 199.82 326.215 199.568 326.7C199.317 327.185 198.94 327.567 198.437 327.844C197.943 328.121 197.328 328.26 196.591 328.26ZM196.591 327.168C197.068 327.168 197.467 327.077 197.787 326.895C198.108 326.713 198.346 326.466 198.502 326.154C198.667 325.833 198.749 325.465 198.749 325.049C198.749 324.633 198.671 324.265 198.515 323.944C198.359 323.623 198.125 323.376 197.813 323.203C197.51 323.021 197.133 322.93 196.682 322.93C196.24 322.93 195.842 323.012 195.486 323.177C195.14 323.342 194.867 323.584 194.667 323.905C194.468 324.217 194.368 324.603 194.368 325.062C194.368 325.443 194.446 325.794 194.602 326.115C194.758 326.436 195.001 326.691 195.33 326.882C195.66 327.073 196.08 327.168 196.591 327.168ZM205.96 328.234C205.249 328.234 204.642 328.113 204.14 327.87C203.646 327.619 203.243 327.281 202.931 326.856C202.627 326.431 202.406 325.942 202.268 325.387C202.129 324.824 202.06 324.23 202.06 323.606V322.904C202.06 322.029 202.194 321.24 202.463 320.538C202.74 319.836 203.165 319.281 203.737 318.874C204.317 318.458 205.058 318.25 205.96 318.25C206.861 318.25 207.598 318.458 208.17 318.874C208.742 319.281 209.162 319.836 209.431 320.538C209.708 321.24 209.847 322.029 209.847 322.904V323.606C209.847 324.23 209.777 324.824 209.639 325.387C209.5 325.942 209.275 326.431 208.963 326.856C208.659 327.281 208.261 327.619 207.767 327.87C207.273 328.113 206.67 328.234 205.96 328.234ZM205.96 327.09C206.861 327.09 207.52 326.787 207.936 326.18C208.36 325.565 208.573 324.594 208.573 323.268C208.573 321.881 208.356 320.889 207.923 320.291C207.498 319.693 206.844 319.394 205.96 319.394C205.067 319.394 204.404 319.693 203.971 320.291C203.546 320.889 203.334 321.873 203.334 323.242C203.334 324.577 203.546 325.552 203.971 326.167C204.395 326.782 205.058 327.09 205.96 327.09ZM216.121 328.234C215.41 328.234 214.803 328.113 214.301 327.87C213.807 327.619 213.404 327.281 213.092 326.856C212.788 326.431 212.567 325.942 212.429 325.387C212.29 324.824 212.221 324.23 212.221 323.606V322.904C212.221 322.029 212.355 321.24 212.624 320.538C212.901 319.836 213.326 319.281 213.898 318.874C214.478 318.458 215.219 318.25 216.121 318.25C217.022 318.25 217.759 318.458 218.331 318.874C218.903 319.281 219.323 319.836 219.592 320.538C219.869 321.24 220.008 322.029 220.008 322.904V323.606C220.008 324.23 219.938 324.824 219.8 325.387C219.661 325.942 219.436 326.431 219.124 326.856C218.82 327.281 218.422 327.619 217.928 327.87C217.434 328.113 216.831 328.234 216.121 328.234ZM216.121 327.09C217.022 327.09 217.681 326.787 218.097 326.18C218.521 325.565 218.734 324.594 218.734 323.268C218.734 321.881 218.517 320.889 218.084 320.291C217.659 319.693 217.005 319.394 216.121 319.394C215.228 319.394 214.565 319.693 214.132 320.291C213.707 320.889 213.495 321.873 213.495 323.242C213.495 324.577 213.707 325.552 214.132 326.167C214.556 326.782 215.219 327.09 216.121 327.09Z" fill="black"/>
<path opacity="0.5" d="M263.334 328.234C262.658 328.234 262.056 328.113 261.527 327.87C261.007 327.627 260.596 327.289 260.292 326.856C259.998 326.423 259.85 325.92 259.85 325.348C259.85 324.967 259.924 324.624 260.071 324.321C260.219 324.009 260.422 323.74 260.682 323.515C260.942 323.29 261.237 323.116 261.566 322.995V322.865C261.306 322.752 261.068 322.601 260.851 322.41C260.643 322.219 260.474 321.994 260.344 321.734C260.223 321.474 260.162 321.179 260.162 320.85C260.162 320.304 260.305 319.84 260.591 319.459C260.886 319.078 261.272 318.787 261.748 318.588C262.234 318.38 262.762 318.276 263.334 318.276C263.915 318.276 264.444 318.38 264.92 318.588C265.406 318.787 265.791 319.078 266.077 319.459C266.363 319.84 266.506 320.304 266.506 320.85C266.506 321.179 266.446 321.474 266.324 321.734C266.203 321.994 266.034 322.219 265.817 322.41C265.609 322.601 265.371 322.752 265.102 322.865V322.995C265.44 323.116 265.739 323.294 265.999 323.528C266.259 323.753 266.463 324.022 266.61 324.334C266.758 324.637 266.831 324.975 266.831 325.348C266.831 325.92 266.68 326.423 266.376 326.856C266.082 327.289 265.67 327.627 265.141 327.87C264.621 328.113 264.019 328.234 263.334 328.234ZM263.334 327.168C263.811 327.168 264.218 327.094 264.556 326.947C264.894 326.791 265.154 326.574 265.336 326.297C265.518 326.011 265.609 325.677 265.609 325.296C265.609 324.915 265.518 324.585 265.336 324.308C265.163 324.031 264.907 323.818 264.569 323.671C264.231 323.515 263.82 323.437 263.334 323.437C262.858 323.437 262.45 323.515 262.112 323.671C261.774 323.818 261.514 324.031 261.332 324.308C261.159 324.585 261.072 324.915 261.072 325.296C261.072 325.677 261.159 326.011 261.332 326.297C261.514 326.574 261.774 326.791 262.112 326.947C262.45 327.094 262.858 327.168 263.334 327.168ZM263.334 322.449C263.924 322.449 264.396 322.323 264.751 322.072C265.107 321.812 265.284 321.418 265.284 320.889C265.284 320.352 265.102 319.962 264.738 319.719C264.383 319.468 263.915 319.342 263.334 319.342C262.754 319.342 262.281 319.468 261.917 319.719C261.562 319.97 261.384 320.36 261.384 320.889C261.384 321.418 261.562 321.812 261.917 322.072C262.281 322.323 262.754 322.449 263.334 322.449ZM272.814 328.234C272.103 328.234 271.496 328.113 270.994 327.87C270.5 327.619 270.097 327.281 269.785 326.856C269.481 326.431 269.26 325.942 269.122 325.387C268.983 324.824 268.914 324.23 268.914 323.606V322.904C268.914 322.029 269.048 321.24 269.317 320.538C269.594 319.836 270.019 319.281 270.591 318.874C271.171 318.458 271.912 318.25 272.814 318.25C273.715 318.25 274.452 318.458 275.024 318.874C275.596 319.281 276.016 319.836 276.285 320.538C276.562 321.24 276.701 322.029 276.701 322.904V323.606C276.701 324.23 276.631 324.824 276.493 325.387C276.354 325.942 276.129 326.431 275.817 326.856C275.513 327.281 275.115 327.619 274.621 327.87C274.127 328.113 273.524 328.234 272.814 328.234ZM272.814 327.09C273.715 327.09 274.374 326.787 274.79 326.18C275.214 325.565 275.427 324.594 275.427 323.268C275.427 321.881 275.21 320.889 274.777 320.291C274.352 319.693 273.698 319.394 272.814 319.394C271.921 319.394 271.258 319.693 270.825 320.291C270.4 320.889 270.188 321.873 270.188 323.242C270.188 324.577 270.4 325.552 270.825 326.167C271.249 326.782 271.912 327.09 272.814 327.09ZM282.975 328.234C282.264 328.234 281.657 328.113 281.155 327.87C280.661 327.619 280.258 327.281 279.946 326.856C279.642 326.431 279.421 325.942 279.283 325.387C279.144 324.824 279.075 324.23 279.075 323.606V322.904C279.075 322.029 279.209 321.24 279.478 320.538C279.755 319.836 280.18 319.281 280.752 318.874C281.332 318.458 282.073 318.25 282.975 318.25C283.876 318.25 284.613 318.458 285.185 318.874C285.757 319.281 286.177 319.836 286.446 320.538C286.723 321.24 286.862 322.029 286.862 322.904V323.606C286.862 324.23 286.792 324.824 286.654 325.387C286.515 325.942 286.29 326.431 285.978 326.856C285.674 327.281 285.276 327.619 284.782 327.87C284.288 328.113 283.685 328.234 282.975 328.234ZM282.975 327.09C283.876 327.09 284.535 326.787 284.951 326.18C285.375 325.565 285.588 324.594 285.588 323.268C285.588 321.881 285.371 320.889 284.938 320.291C284.513 319.693 283.859 319.394 282.975 319.394C282.082 319.394 281.419 319.693 280.986 320.291C280.561 320.889 280.349 321.873 280.349 323.242C280.349 324.577 280.561 325.552 280.986 326.167C281.41 326.782 282.073 327.09 282.975 327.09Z" fill="black"/>
<path opacity="0.5" d="M328.681 328V319.134L329.253 319.576H326.575V318.51H329.929V328H328.681ZM336.824 328.234C336.113 328.234 335.506 328.113 335.004 327.87C334.51 327.619 334.107 327.281 333.795 326.856C333.491 326.431 333.27 325.942 333.132 325.387C332.993 324.824 332.924 324.23 332.924 323.606V322.904C332.924 322.029 333.058 321.24 333.327 320.538C333.604 319.836 334.029 319.281 334.601 318.874C335.181 318.458 335.922 318.25 336.824 318.25C337.725 318.25 338.462 318.458 339.034 318.874C339.606 319.281 340.026 319.836 340.295 320.538C340.572 321.24 340.711 322.029 340.711 322.904V323.606C340.711 324.23 340.641 324.824 340.503 325.387C340.364 325.942 340.139 326.431 339.827 326.856C339.523 327.281 339.125 327.619 338.631 327.87C338.137 328.113 337.534 328.234 336.824 328.234ZM336.824 327.09C337.725 327.09 338.384 326.787 338.8 326.18C339.224 325.565 339.437 324.594 339.437 323.268C339.437 321.881 339.22 320.889 338.787 320.291C338.362 319.693 337.708 319.394 336.824 319.394C335.931 319.394 335.268 319.693 334.835 320.291C334.41 320.889 334.198 321.873 334.198 323.242C334.198 324.577 334.41 325.552 334.835 326.167C335.259 326.782 335.922 327.09 336.824 327.09ZM346.985 328.234C346.274 328.234 345.668 328.113 345.165 327.87C344.671 327.619 344.268 327.281 343.956 326.856C343.653 326.431 343.432 325.942 343.293 325.387C343.154 324.824 343.085 324.23 343.085 323.606V322.904C343.085 322.029 343.219 321.24 343.488 320.538C343.765 319.836 344.19 319.281 344.762 318.874C345.343 318.458 346.084 318.25 346.985 318.25C347.886 318.25 348.623 318.458 349.195 318.874C349.767 319.281 350.187 319.836 350.456 320.538C350.733 321.24 350.872 322.029 350.872 322.904V323.606C350.872 324.23 350.803 324.824 350.664 325.387C350.525 325.942 350.3 326.431 349.988 326.856C349.685 327.281 349.286 327.619 348.792 327.87C348.298 328.113 347.696 328.234 346.985 328.234ZM346.985 327.09C347.886 327.09 348.545 326.787 348.961 326.18C349.386 325.565 349.598 324.594 349.598 323.268C349.598 321.881 349.381 320.889 348.948 320.291C348.523 319.693 347.869 319.394 346.985 319.394C346.092 319.394 345.429 319.693 344.996 320.291C344.571 320.889 344.359 321.873 344.359 323.242C344.359 324.577 344.571 325.552 344.996 326.167C345.421 326.782 346.084 327.09 346.985 327.09ZM357.146 328.234C356.435 328.234 355.829 328.113 355.326 327.87C354.832 327.619 354.429 327.281 354.117 326.856C353.814 326.431 353.593 325.942 353.454 325.387C353.315 324.824 353.246 324.23 353.246 323.606V322.904C353.246 322.029 353.38 321.24 353.649 320.538C353.926 319.836 354.351 319.281 354.923 318.874C355.504 318.458 356.245 318.25 357.146 318.25C358.047 318.25 358.784 318.458 359.356 318.874C359.928 319.281 360.348 319.836 360.617 320.538C360.894 321.24 361.033 322.029 361.033 322.904V323.606C361.033 324.23 360.964 324.824 360.825 325.387C360.686 325.942 360.461 326.431 360.149 326.856C359.846 327.281 359.447 327.619 358.953 327.87C358.459 328.113 357.857 328.234 357.146 328.234ZM357.146 327.09C358.047 327.09 358.706 326.787 359.122 326.18C359.547 325.565 359.759 324.594 359.759 323.268C359.759 321.881 359.542 320.889 359.109 320.291C358.684 319.693 358.03 319.394 357.146 319.394C356.253 319.394 355.59 319.693 355.157 320.291C354.732 320.889 354.52 321.873 354.52 323.242C354.52 324.577 354.732 325.552 355.157 326.167C355.582 326.782 356.245 327.09 357.146 327.09Z" fill="black"/>
<path opacity="0.1" d="M14 309.49L362.064 309.49" stroke="black"/>
<path opacity="0.1" d="M14 23.8879L14 309.49" stroke="black"/>
<path opacity="0.5" d="M121.856 230.577V229.017C121.856 228.635 121.908 228.31 122.012 228.042C122.124 227.773 122.315 227.53 122.584 227.314C122.852 227.088 123.216 226.872 123.676 226.664L125.457 225.845C125.89 225.645 126.232 225.39 126.484 225.078C126.735 224.757 126.861 224.345 126.861 223.843C126.861 223.236 126.692 222.764 126.354 222.426C126.016 222.088 125.539 221.919 124.924 221.919C124.317 221.919 123.84 222.088 123.494 222.426C123.147 222.764 122.974 223.236 122.974 223.843H121.752C121.752 223.297 121.864 222.794 122.09 222.335C122.324 221.875 122.675 221.511 123.143 221.243C123.611 220.965 124.204 220.827 124.924 220.827C125.643 220.827 126.232 220.965 126.692 221.243C127.16 221.511 127.506 221.867 127.732 222.309C127.966 222.751 128.083 223.232 128.083 223.752V223.934C128.083 224.618 127.883 225.195 127.485 225.663C127.095 226.131 126.566 226.516 125.899 226.82L124.118 227.639C123.719 227.821 123.45 228.003 123.312 228.185C123.173 228.367 123.104 228.609 123.104 228.913V230.109L122.766 229.511H128.2V230.577H121.856ZM133.538 230.811C132.862 230.811 132.259 230.689 131.731 230.447C131.211 230.204 130.799 229.866 130.496 229.433C130.201 228.999 130.054 228.497 130.054 227.925C130.054 227.543 130.127 227.201 130.275 226.898C130.422 226.586 130.626 226.317 130.886 226.092C131.146 225.866 131.44 225.693 131.77 225.572V225.442C131.51 225.329 131.271 225.177 131.055 224.987C130.847 224.796 130.678 224.571 130.548 224.311C130.426 224.051 130.366 223.756 130.366 223.427C130.366 222.881 130.509 222.417 130.795 222.036C131.089 221.654 131.475 221.364 131.952 221.165C132.437 220.957 132.966 220.853 133.538 220.853C134.118 220.853 134.647 220.957 135.124 221.165C135.609 221.364 135.995 221.654 136.281 222.036C136.567 222.417 136.71 222.881 136.71 223.427C136.71 223.756 136.649 224.051 136.528 224.311C136.406 224.571 136.237 224.796 136.021 224.987C135.813 225.177 135.574 225.329 135.306 225.442V225.572C135.644 225.693 135.943 225.871 136.203 226.105C136.463 226.33 136.666 226.599 136.814 226.911C136.961 227.214 137.035 227.552 137.035 227.925C137.035 228.497 136.883 228.999 136.58 229.433C136.285 229.866 135.873 230.204 135.345 230.447C134.825 230.689 134.222 230.811 133.538 230.811ZM133.538 229.745C134.014 229.745 134.422 229.671 134.76 229.524C135.098 229.368 135.358 229.151 135.54 228.874C135.722 228.588 135.813 228.254 135.813 227.873C135.813 227.491 135.722 227.162 135.54 226.885C135.366 226.607 135.111 226.395 134.773 226.248C134.435 226.092 134.023 226.014 133.538 226.014C133.061 226.014 132.654 226.092 132.316 226.248C131.978 226.395 131.718 226.607 131.536 226.885C131.362 227.162 131.276 227.491 131.276 227.873C131.276 228.254 131.362 228.588 131.536 228.874C131.718 229.151 131.978 229.368 132.316 229.524C132.654 229.671 133.061 229.745 133.538 229.745ZM133.538 225.026C134.127 225.026 134.599 224.9 134.955 224.649C135.31 224.389 135.488 223.994 135.488 223.466C135.488 222.928 135.306 222.538 134.942 222.296C134.586 222.044 134.118 221.919 133.538 221.919C132.957 221.919 132.485 222.044 132.121 222.296C131.765 222.547 131.588 222.937 131.588 223.466C131.588 223.994 131.765 224.389 132.121 224.649C132.485 224.9 132.957 225.026 133.538 225.026ZM140.053 230.577L144.07 222.27L143.992 222.153H138.805V221.087H145.175V222.595L141.353 230.577H140.053ZM138.805 223.661V221.087H139.845V223.661H138.805Z" fill="black"/>
<rect x="14" y="182.689" width="94.7568" height="87.7757" fill="#87C540"/>
<path d="M31.5661 230.824C30.7081 230.824 29.9715 230.672 29.3561 230.369C28.7408 230.065 28.2381 229.671 27.8481 229.186C27.4668 228.7 27.1851 228.172 27.0031 227.6C26.8211 227.028 26.7301 226.477 26.7301 225.949V225.663C26.7301 225.073 26.8211 224.493 27.0031 223.921C27.1938 223.349 27.4841 222.829 27.8741 222.361C28.2641 221.893 28.7581 221.52 29.3561 221.243C29.9628 220.957 30.6778 220.814 31.5011 220.814C32.3591 220.814 33.1045 220.97 33.7371 221.282C34.3785 221.585 34.8898 222.018 35.2711 222.582C35.6525 223.136 35.8821 223.786 35.9601 224.532H34.1011C34.0318 224.098 33.8758 223.734 33.6331 223.44C33.3991 223.136 33.1001 222.911 32.7361 222.764C32.3721 222.608 31.9605 222.53 31.5011 222.53C31.0331 222.53 30.6171 222.612 30.2531 222.777C29.8891 222.933 29.5858 223.158 29.3431 223.453C29.1005 223.747 28.9141 224.094 28.7841 224.493C28.6628 224.891 28.6021 225.333 28.6021 225.819C28.6021 226.287 28.6628 226.72 28.7841 227.119C28.9141 227.517 29.1048 227.868 29.3561 228.172C29.6075 228.466 29.9151 228.696 30.2791 228.861C30.6518 229.025 31.0808 229.108 31.5661 229.108C32.2768 229.108 32.8748 228.934 33.3601 228.588C33.8541 228.232 34.1531 227.738 34.2571 227.106H36.1161C36.0295 227.782 35.7998 228.401 35.4271 228.965C35.0545 229.528 34.5431 229.979 33.8931 230.317C33.2431 230.655 32.4675 230.824 31.5661 230.824ZM38.1999 230.577V221.087H40.0459V230.577H38.1999ZM42.9141 230.577V221.022H44.7601V230.577H42.9141ZM48.7121 230.577L45.8001 226.443H47.8671L50.8701 230.577H48.7121ZM44.2141 227.405V225.91H46.6321C46.9701 225.91 47.2605 225.84 47.5031 225.702C47.7545 225.563 47.9495 225.368 48.0881 225.117C48.2268 224.865 48.2961 224.579 48.2961 224.259C48.2961 223.929 48.2268 223.639 48.0881 223.388C47.9495 223.136 47.7545 222.941 47.5031 222.803C47.2605 222.664 46.9701 222.595 46.6321 222.595H44.2141V221.022H46.4371C47.1998 221.022 47.8585 221.134 48.4131 221.36C48.9765 221.585 49.4098 221.927 49.7131 222.387C50.0165 222.846 50.1681 223.422 50.1681 224.116V224.324C50.1681 225.026 50.0121 225.602 49.7001 226.053C49.3968 226.503 48.9678 226.841 48.4131 227.067C47.8585 227.292 47.1998 227.405 46.4371 227.405H44.2141ZM56.9206 230.824C56.0626 230.824 55.326 230.672 54.7106 230.369C54.0953 230.065 53.5926 229.671 53.2026 229.186C52.8213 228.7 52.5396 228.172 52.3576 227.6C52.1756 227.028 52.0846 226.477 52.0846 225.949V225.663C52.0846 225.073 52.1756 224.493 52.3576 223.921C52.5483 223.349 52.8386 222.829 53.2286 222.361C53.6186 221.893 54.1126 221.52 54.7106 221.243C55.3173 220.957 56.0323 220.814 56.8556 220.814C57.7136 220.814 58.459 220.97 59.0916 221.282C59.733 221.585 60.2443 222.018 60.6256 222.582C61.007 223.136 61.2366 223.786 61.3146 224.532H59.4556C59.3863 224.098 59.2303 223.734 58.9876 223.44C58.7536 223.136 58.4546 222.911 58.0906 222.764C57.7266 222.608 57.315 222.53 56.8556 222.53C56.3876 222.53 55.9716 222.612 55.6076 222.777C55.2436 222.933 54.9403 223.158 54.6976 223.453C54.455 223.747 54.2686 224.094 54.1386 224.493C54.0173 224.891 53.9566 225.333 53.9566 225.819C53.9566 226.287 54.0173 226.72 54.1386 227.119C54.2686 227.517 54.4593 227.868 54.7106 228.172C54.962 228.466 55.2696 228.696 55.6336 228.861C56.0063 229.025 56.4353 229.108 56.9206 229.108C57.6313 229.108 58.2293 228.934 58.7146 228.588C59.2086 228.232 59.5076 227.738 59.6116 227.106H61.4706C61.384 227.782 61.1543 228.401 60.7816 228.965C60.409 229.528 59.8976 229.979 59.2476 230.317C58.5976 230.655 57.822 230.824 56.9206 230.824ZM63.5284 230.577V221.022H65.3744V230.577H63.5284ZM69.3264 230.577L66.4144 226.443H68.4814L71.4844 230.577H69.3264ZM64.8284 227.405V225.91H67.2464C67.5844 225.91 67.8747 225.84 68.1174 225.702C68.3687 225.563 68.5637 225.368 68.7024 225.117C68.8411 224.865 68.9104 224.579 68.9104 224.259C68.9104 223.929 68.8411 223.639 68.7024 223.388C68.5637 223.136 68.3687 222.941 68.1174 222.803C67.8747 222.664 67.5844 222.595 67.2464 222.595H64.8284V221.022H67.0514C67.8141 221.022 68.4727 221.134 69.0274 221.36C69.5907 221.585 70.0241 221.927 70.3274 222.387C70.6307 222.846 70.7824 223.422 70.7824 224.116V224.324C70.7824 225.026 70.6264 225.602 70.3144 226.053C70.0111 226.503 69.5821 226.841 69.0274 227.067C68.4727 227.292 67.8141 227.405 67.0514 227.405H64.8284ZM73.3848 230.577V221.087H75.1918V230.577H73.3848ZM74.9318 230.577V229.017H79.2348V230.577H74.9318ZM74.9318 226.534V224.974H78.8968V226.534H74.9318ZM74.9318 222.647V221.087H79.1308V222.647H74.9318ZM83.501 230.577V222.452H85.347V230.577H83.501ZM80.758 222.712V221.087H88.09V222.712H80.758ZM90.0636 230.577V221.087H91.8706V230.577H90.0636ZM91.6106 230.577V229.017H95.9136V230.577H91.6106ZM91.6106 226.534V224.974H95.5756V226.534H91.6106ZM91.6106 222.647V221.087H95.8096V222.647H91.6106Z" fill="white"/>
<path opacity="0.5" d="M352.387 101.051C353.081 101.051 353.657 101.172 354.116 101.415C354.584 101.658 354.953 101.991 355.221 102.416C355.499 102.832 355.694 103.313 355.806 103.859C355.928 104.405 355.988 104.977 355.988 105.575V106.199C355.988 107.698 355.616 108.855 354.87 109.67C354.125 110.476 353.046 110.879 351.633 110.879C351.295 110.879 351.009 110.87 350.775 110.853C350.541 110.836 350.286 110.81 350.008 110.775V109.709C350.294 109.744 350.559 109.77 350.801 109.787C351.044 109.804 351.339 109.813 351.685 109.813C352.474 109.813 353.098 109.666 353.557 109.371C354.017 109.076 354.346 108.656 354.545 108.11C354.745 107.555 354.844 106.888 354.844 106.108V105.523L355.156 104.366C355.148 105.051 355.013 105.618 354.753 106.069C354.502 106.52 354.151 106.858 353.7 107.083C353.258 107.308 352.747 107.421 352.166 107.421C351.49 107.421 350.918 107.287 350.45 107.018C349.982 106.741 349.627 106.364 349.384 105.887C349.15 105.41 349.033 104.869 349.033 104.262C349.033 103.647 349.159 103.096 349.41 102.611C349.662 102.126 350.034 101.744 350.528 101.467C351.031 101.19 351.651 101.051 352.387 101.051ZM352.387 102.143C351.911 102.143 351.512 102.234 351.191 102.416C350.871 102.598 350.628 102.849 350.463 103.17C350.307 103.482 350.229 103.846 350.229 104.262C350.229 104.678 350.307 105.046 350.463 105.367C350.619 105.688 350.849 105.939 351.152 106.121C351.464 106.294 351.846 106.381 352.296 106.381C352.738 106.381 353.133 106.299 353.479 106.134C353.835 105.969 354.112 105.731 354.311 105.419C354.511 105.098 354.61 104.708 354.61 104.249C354.61 103.868 354.532 103.517 354.376 103.196C354.22 102.875 353.978 102.62 353.648 102.429C353.319 102.238 352.899 102.143 352.387 102.143ZM358.415 110.801V109.241C358.415 108.86 358.467 108.535 358.571 108.266C358.683 107.997 358.874 107.755 359.143 107.538C359.411 107.313 359.775 107.096 360.235 106.888L362.016 106.069C362.449 105.87 362.791 105.614 363.043 105.302C363.294 104.981 363.42 104.57 363.42 104.067C363.42 103.46 363.251 102.988 362.913 102.65C362.575 102.312 362.098 102.143 361.483 102.143C360.876 102.143 360.399 102.312 360.053 102.65C359.706 102.988 359.533 103.46 359.533 104.067H358.311C358.311 103.521 358.423 103.018 358.649 102.559C358.883 102.1 359.234 101.736 359.702 101.467C360.17 101.19 360.763 101.051 361.483 101.051C362.202 101.051 362.791 101.19 363.251 101.467C363.719 101.736 364.065 102.091 364.291 102.533C364.525 102.975 364.642 103.456 364.642 103.976V104.158C364.642 104.843 364.442 105.419 364.044 105.887C363.654 106.355 363.125 106.741 362.458 107.044L360.677 107.863C360.278 108.045 360.009 108.227 359.871 108.409C359.732 108.591 359.663 108.834 359.663 109.137V110.333L359.325 109.735H364.759V110.801H358.415ZM370.071 111.035C369.343 111.035 368.728 110.888 368.225 110.593C367.722 110.29 367.341 109.895 367.081 109.41C366.821 108.925 366.691 108.409 366.691 107.863H367.913C367.913 108.262 368 108.617 368.173 108.929C368.355 109.241 368.606 109.488 368.927 109.67C369.248 109.852 369.629 109.943 370.071 109.943C370.504 109.943 370.881 109.856 371.202 109.683C371.531 109.501 371.787 109.254 371.969 108.942C372.151 108.621 372.242 108.262 372.242 107.863C372.242 107.464 372.151 107.105 371.969 106.784C371.796 106.463 371.544 106.208 371.215 106.017C370.894 105.826 370.513 105.731 370.071 105.731C369.75 105.731 369.425 105.787 369.096 105.9C368.767 106.004 368.502 106.156 368.303 106.355H367.159L367.64 101.311H372.619V102.377H368.368L368.68 101.948L368.316 105.627L367.978 105.51C368.229 105.259 368.533 105.059 368.888 104.912C369.252 104.765 369.664 104.691 370.123 104.691C370.851 104.691 371.462 104.843 371.956 105.146C372.45 105.441 372.823 105.826 373.074 106.303C373.334 106.771 373.464 107.261 373.464 107.772V107.954C373.464 108.465 373.334 108.959 373.074 109.436C372.814 109.904 372.428 110.29 371.917 110.593C371.414 110.888 370.799 111.035 370.071 111.035Z" fill="black"/>
<rect x="14" y="62.9131" width="322.21" height="87.7757" fill="#E5E5E5"/>
<path d="M89.2414 111.048C88.3834 111.048 87.6468 110.896 87.0314 110.593C86.4161 110.29 85.9134 109.895 85.5234 109.41C85.1421 108.925 84.8604 108.396 84.6784 107.824C84.4964 107.252 84.4054 106.702 84.4054 106.173V105.887C84.4054 105.298 84.4964 104.717 84.6784 104.145C84.8691 103.573 85.1594 103.053 85.5494 102.585C85.9394 102.117 86.4334 101.744 87.0314 101.467C87.6381 101.181 88.3531 101.038 89.1764 101.038C90.0344 101.038 90.7798 101.194 91.4124 101.506C92.0538 101.809 92.5651 102.243 92.9464 102.806C93.3278 103.361 93.5574 104.011 93.6354 104.756H91.7764C91.7071 104.323 91.5511 103.959 91.3084 103.664C91.0744 103.361 90.7754 103.135 90.4114 102.988C90.0474 102.832 89.6358 102.754 89.1764 102.754C88.7084 102.754 88.2924 102.836 87.9284 103.001C87.5644 103.157 87.2611 103.382 87.0184 103.677C86.7758 103.972 86.5894 104.318 86.4594 104.717C86.3381 105.116 86.2774 105.558 86.2774 106.043C86.2774 106.511 86.3381 106.944 86.4594 107.343C86.5894 107.742 86.7801 108.093 87.0314 108.396C87.2828 108.691 87.5904 108.92 87.9544 109.085C88.3271 109.25 88.7561 109.332 89.2414 109.332C89.9521 109.332 90.5501 109.159 91.0354 108.812C91.5294 108.457 91.8284 107.963 91.9324 107.33H93.7914C93.7048 108.006 93.4751 108.626 93.1024 109.189C92.7298 109.752 92.2184 110.203 91.5684 110.541C90.9184 110.879 90.1428 111.048 89.2414 111.048ZM100.308 111.048C99.4502 111.048 98.7049 110.896 98.0722 110.593C97.4482 110.29 96.9282 109.895 96.5122 109.41C96.1049 108.916 95.7972 108.387 95.5892 107.824C95.3899 107.252 95.2902 106.702 95.2902 106.173V105.887C95.2902 105.306 95.3942 104.73 95.6022 104.158C95.8102 103.577 96.1222 103.053 96.5382 102.585C96.9629 102.117 97.4872 101.744 98.1112 101.467C98.7352 101.181 99.4675 101.038 100.308 101.038C101.14 101.038 101.868 101.181 102.492 101.467C103.116 101.744 103.636 102.117 104.052 102.585C104.477 103.053 104.793 103.577 105.001 104.158C105.209 104.73 105.313 105.306 105.313 105.887V106.173C105.313 106.702 105.209 107.252 105.001 107.824C104.802 108.387 104.494 108.916 104.078 109.41C103.671 109.895 103.151 110.29 102.518 110.593C101.894 110.896 101.158 111.048 100.308 111.048ZM100.308 109.332C100.794 109.332 101.227 109.245 101.608 109.072C101.998 108.899 102.328 108.66 102.596 108.357C102.874 108.045 103.082 107.694 103.22 107.304C103.368 106.905 103.441 106.485 103.441 106.043C103.441 105.566 103.368 105.129 103.22 104.73C103.082 104.331 102.874 103.985 102.596 103.69C102.328 103.395 101.998 103.166 101.608 103.001C101.218 102.836 100.785 102.754 100.308 102.754C99.8229 102.754 99.3852 102.836 98.9952 103.001C98.6052 103.166 98.2715 103.395 97.9942 103.69C97.7255 103.985 97.5175 104.331 97.3702 104.73C97.2315 105.129 97.1622 105.566 97.1622 106.043C97.1622 106.485 97.2315 106.905 97.3702 107.304C97.5175 107.694 97.7255 108.045 97.9942 108.357C98.2715 108.66 98.6052 108.899 98.9952 109.072C99.3852 109.245 99.8229 109.332 100.308 109.332ZM107.597 110.801V101.311H110.626L114.617 109.267H115.046L114.786 109.501V101.311H116.528V110.801H113.486L109.495 102.845H109.053L109.313 102.611V110.801H107.597ZM121.503 110.801L118.474 101.311H120.385L122.894 109.527L122.348 109.267H123.752L123.193 109.527L125.507 101.311H127.353L124.545 110.801H121.503ZM129.341 110.801V101.311H131.148V110.801H129.341ZM130.888 110.801V109.241H135.191V110.801H130.888ZM130.888 106.758V105.198H134.853V106.758H130.888ZM130.888 102.871V101.311H135.087V102.871H130.888ZM137.586 110.801V101.311H140.615L144.606 109.267H145.035L144.775 109.501V101.311H146.517V110.801H143.475L139.484 102.845H139.042L139.302 102.611V110.801H137.586ZM151.231 110.801V102.676H153.077V110.801H151.231ZM148.488 102.936V101.311H155.82V102.936H148.488ZM157.82 110.801V101.311H159.666V110.801H157.82ZM166.993 111.048C166.135 111.048 165.389 110.896 164.757 110.593C164.133 110.29 163.613 109.895 163.197 109.41C162.789 108.916 162.482 108.387 162.274 107.824C162.074 107.252 161.975 106.702 161.975 106.173V105.887C161.975 105.306 162.079 104.73 162.287 104.158C162.495 103.577 162.807 103.053 163.223 102.585C163.647 102.117 164.172 101.744 164.796 101.467C165.42 101.181 166.152 101.038 166.993 101.038C167.825 101.038 168.553 101.181 169.177 101.467C169.801 101.744 170.321 102.117 170.737 102.585C171.161 103.053 171.478 103.577 171.686 104.158C171.894 104.73 171.998 105.306 171.998 105.887V106.173C171.998 106.702 171.894 107.252 171.686 107.824C171.486 108.387 171.179 108.916 170.763 109.41C170.355 109.895 169.835 110.29 169.203 110.593C168.579 110.896 167.842 111.048 166.993 111.048ZM166.993 109.332C167.478 109.332 167.911 109.245 168.293 109.072C168.683 108.899 169.012 108.66 169.281 108.357C169.558 108.045 169.766 107.694 169.905 107.304C170.052 106.905 170.126 106.485 170.126 106.043C170.126 105.566 170.052 105.129 169.905 104.73C169.766 104.331 169.558 103.985 169.281 103.69C169.012 103.395 168.683 103.166 168.293 103.001C167.903 102.836 167.469 102.754 166.993 102.754C166.507 102.754 166.07 102.836 165.68 103.001C165.29 103.166 164.956 103.395 164.679 103.69C164.41 103.985 164.202 104.331 164.055 104.73C163.916 105.129 163.847 105.566 163.847 106.043C163.847 106.485 163.916 106.905 164.055 107.304C164.202 107.694 164.41 108.045 164.679 108.357C164.956 108.66 165.29 108.899 165.68 109.072C166.07 109.245 166.507 109.332 166.993 109.332ZM174.282 110.801V101.311H177.311L181.302 109.267H181.731L181.471 109.501V101.311H183.213V110.801H180.171L176.18 102.845H175.738L175.998 102.611V110.801H174.282ZM185.119 110.801L188.356 101.311H191.372L194.7 110.801H192.802L189.981 102.572L190.644 102.858H189.019L189.695 102.572L186.965 110.801H185.119ZM187.381 108.279L187.966 106.719H191.814L192.386 108.279H187.381ZM196.61 110.801V101.311H198.456V110.801H196.61ZM198.196 110.801V109.176H202.291V110.801H198.196ZM211.878 111.048C211.02 111.048 210.283 110.896 209.668 110.593C209.053 110.29 208.55 109.895 208.16 109.41C207.779 108.925 207.497 108.396 207.315 107.824C207.133 107.252 207.042 106.702 207.042 106.173V105.887C207.042 105.298 207.133 104.717 207.315 104.145C207.506 103.573 207.796 103.053 208.186 102.585C208.576 102.117 209.07 101.744 209.668 101.467C210.275 101.181 210.99 101.038 211.813 101.038C212.671 101.038 213.416 101.194 214.049 101.506C214.69 101.809 215.202 102.243 215.583 102.806C215.964 103.361 216.194 104.011 216.272 104.756H214.413C214.344 104.323 214.188 103.959 213.945 103.664C213.711 103.361 213.412 103.135 213.048 102.988C212.684 102.832 212.272 102.754 211.813 102.754C211.345 102.754 210.929 102.836 210.565 103.001C210.201 103.157 209.898 103.382 209.655 103.677C209.412 103.972 209.226 104.318 209.096 104.717C208.975 105.116 208.914 105.558 208.914 106.043C208.914 106.511 208.975 106.944 209.096 107.343C209.226 107.742 209.417 108.093 209.668 108.396C209.919 108.691 210.227 108.92 210.591 109.085C210.964 109.25 211.393 109.332 211.878 109.332C212.589 109.332 213.187 109.159 213.672 108.812C214.166 108.457 214.465 107.963 214.569 107.33H216.428C216.341 108.006 216.112 108.626 215.739 109.189C215.366 109.752 214.855 110.203 214.205 110.541C213.555 110.879 212.779 111.048 211.878 111.048ZM218.486 110.801V101.311H220.293V110.801H218.486ZM220.033 110.801V109.241H224.336V110.801H220.033ZM220.033 106.758V105.198H223.998V106.758H220.033ZM220.033 102.871V101.311H224.232V102.871H220.033ZM226.73 110.801V101.311H229.252L231.631 106.979H231.865L234.231 101.311H236.792V110.801H234.959V102.702L235.193 102.728L232.632 108.864H230.747L228.173 102.728L228.42 102.702V110.801H226.73ZM239.633 110.801V101.311H241.44V110.801H239.633ZM241.18 110.801V109.241H245.483V110.801H241.18ZM241.18 106.758V105.198H245.145V106.758H241.18ZM241.18 102.871V101.311H245.379V102.871H241.18ZM247.878 110.801V101.311H250.907L254.898 109.267H255.327L255.067 109.501V101.311H256.809V110.801H253.767L249.776 102.845H249.334L249.594 102.611V110.801H247.878ZM261.523 110.801V102.676H263.369V110.801H261.523ZM258.78 102.936V101.311H266.112V102.936H258.78Z" fill="black"/>
<path opacity="0.5" d="M371.575 312.634C371.042 312.634 370.586 312.54 370.207 312.354C369.834 312.167 369.533 311.924 369.303 311.626C369.074 311.327 368.906 311.004 368.799 310.658C368.693 310.306 368.639 309.967 368.639 309.642V309.466C368.639 309.114 368.693 308.762 368.799 308.41C368.911 308.058 369.082 307.738 369.311 307.45C369.541 307.162 369.839 306.93 370.207 306.754C370.575 306.578 371.015 306.49 371.527 306.49C372.05 306.49 372.498 306.58 372.871 306.762C373.245 306.943 373.541 307.196 373.759 307.522C373.978 307.847 374.111 308.231 374.159 308.674H373.359C373.317 308.343 373.21 308.071 373.039 307.858C372.869 307.639 372.653 307.476 372.391 307.37C372.135 307.263 371.847 307.21 371.527 307.21C371.181 307.21 370.877 307.271 370.615 307.394C370.354 307.511 370.135 307.679 369.959 307.898C369.789 308.111 369.658 308.359 369.567 308.642C369.482 308.924 369.439 309.231 369.439 309.562C369.439 309.876 369.482 310.175 369.567 310.458C369.658 310.74 369.791 310.991 369.967 311.21C370.149 311.428 370.373 311.602 370.639 311.73C370.906 311.852 371.218 311.914 371.575 311.914C372.077 311.914 372.498 311.788 372.839 311.538C373.181 311.287 373.389 310.924 373.463 310.45H374.263C374.21 310.85 374.074 311.215 373.855 311.546C373.642 311.876 373.343 312.14 372.959 312.338C372.581 312.535 372.119 312.634 371.575 312.634ZM378.515 312.634C377.992 312.634 377.541 312.54 377.163 312.354C376.784 312.167 376.472 311.922 376.227 311.618C375.981 311.314 375.797 310.988 375.675 310.642C375.557 310.295 375.499 309.962 375.499 309.642V309.466C375.499 309.119 375.56 308.77 375.683 308.418C375.805 308.066 375.992 307.746 376.243 307.458C376.493 307.164 376.805 306.93 377.179 306.754C377.557 306.578 378.003 306.49 378.515 306.49C379.027 306.49 379.469 306.578 379.843 306.754C380.221 306.93 380.536 307.164 380.787 307.458C381.037 307.746 381.224 308.066 381.347 308.418C381.469 308.77 381.531 309.119 381.531 309.466V309.642C381.531 309.962 381.469 310.295 381.347 310.642C381.229 310.988 381.048 311.314 380.803 311.618C380.557 311.922 380.245 312.167 379.867 312.354C379.488 312.54 379.037 312.634 378.515 312.634ZM378.515 311.914C378.856 311.914 379.163 311.85 379.435 311.722C379.712 311.594 379.947 311.42 380.139 311.202C380.331 310.978 380.477 310.727 380.579 310.45C380.68 310.167 380.731 309.871 380.731 309.562C380.731 309.236 380.68 308.932 380.579 308.65C380.477 308.367 380.331 308.119 380.139 307.906C379.947 307.687 379.712 307.516 379.435 307.394C379.163 307.271 378.856 307.21 378.515 307.21C378.173 307.21 377.864 307.271 377.587 307.394C377.315 307.516 377.083 307.687 376.891 307.906C376.699 308.119 376.552 308.367 376.451 308.65C376.349 308.932 376.299 309.236 376.299 309.562C376.299 309.871 376.349 310.167 376.451 310.45C376.552 310.727 376.699 310.978 376.891 311.202C377.083 311.42 377.315 311.594 377.587 311.722C377.864 311.85 378.173 311.914 378.515 311.914ZM384.921 313.53H382.665V313.098L383.585 312.202C383.803 311.994 383.966 311.826 384.073 311.698C384.185 311.564 384.259 311.447 384.297 311.346C384.339 311.239 384.361 311.127 384.361 311.01C384.361 310.839 384.31 310.711 384.209 310.626C384.113 310.54 383.985 310.498 383.825 310.498C383.665 310.498 383.518 310.53 383.385 310.594C383.257 310.652 383.123 310.735 382.985 310.842L382.705 310.474C382.859 310.34 383.027 310.234 383.209 310.154C383.395 310.074 383.603 310.034 383.833 310.034C384.174 310.034 384.441 310.119 384.633 310.29C384.83 310.455 384.929 310.684 384.929 310.978C384.929 311.154 384.891 311.316 384.817 311.466C384.747 311.61 384.643 311.759 384.505 311.914C384.371 312.063 384.206 312.231 384.009 312.418L383.361 313.034H384.921V313.53ZM389.45 312.49L387.842 310.498H387.138L389.098 308.218H389.906L388.13 310.274L388.186 309.866L390.338 312.49H389.45ZM386.506 312.49V306.65H387.274V312.49H386.506ZM393.114 314.154C392.916 314.154 392.716 314.146 392.514 314.13C392.316 314.114 392.127 314.092 391.946 314.066V313.418C392.138 313.444 392.338 313.466 392.546 313.482C392.759 313.503 392.959 313.514 393.146 313.514C393.535 313.514 393.844 313.46 394.074 313.354C394.308 313.252 394.476 313.09 394.578 312.866C394.684 312.647 394.738 312.364 394.738 312.018V311.202L394.994 310.594C394.978 311.026 394.887 311.386 394.722 311.674C394.556 311.956 394.34 312.17 394.074 312.314C393.812 312.452 393.522 312.522 393.202 312.522C392.903 312.522 392.628 312.466 392.378 312.354C392.132 312.236 391.919 312.076 391.738 311.874C391.562 311.671 391.423 311.439 391.322 311.178C391.226 310.911 391.178 310.631 391.178 310.338V310.194C391.178 309.895 391.228 309.618 391.33 309.362C391.431 309.1 391.572 308.874 391.754 308.682C391.935 308.49 392.151 308.34 392.402 308.234C392.658 308.127 392.938 308.074 393.242 308.074C393.599 308.074 393.914 308.151 394.186 308.306C394.458 308.455 394.671 308.676 394.826 308.97C394.986 309.258 395.074 309.612 395.09 310.034L394.866 310.042V308.218H395.474V311.986C395.474 312.498 395.394 312.911 395.234 313.226C395.079 313.546 394.828 313.78 394.482 313.93C394.14 314.079 393.684 314.154 393.114 314.154ZM393.346 311.818C393.602 311.818 393.834 311.762 394.042 311.65C394.255 311.538 394.423 311.378 394.546 311.17C394.674 310.956 394.738 310.703 394.738 310.41V310.042C394.738 309.754 394.671 309.511 394.538 309.314C394.41 309.116 394.242 308.967 394.034 308.866C393.826 308.764 393.599 308.714 393.354 308.714C393.076 308.714 392.831 308.778 392.618 308.906C392.404 309.034 392.239 309.215 392.122 309.45C392.004 309.679 391.946 309.951 391.946 310.266C391.946 310.58 392.004 310.855 392.122 311.09C392.244 311.324 392.41 311.506 392.618 311.634C392.831 311.756 393.074 311.818 393.346 311.818ZM396.86 312.97L398.492 306.25H399.212L397.58 312.97H396.86ZM402.31 312.538C401.99 312.538 401.713 312.492 401.478 312.402C401.249 312.311 401.07 312.156 400.942 311.938C400.819 311.714 400.758 311.412 400.758 311.034V306.922H401.494V311.13C401.494 311.359 401.555 311.538 401.678 311.666C401.806 311.788 401.985 311.85 402.214 311.85H402.966V312.538H402.31ZM400.022 308.794V308.218H402.966V308.794H400.022ZM406.489 312.634C406.116 312.634 405.788 312.57 405.505 312.442C405.222 312.314 404.982 312.146 404.785 311.938C404.593 311.724 404.446 311.487 404.345 311.226C404.249 310.964 404.201 310.698 404.201 310.426V310.282C404.201 310.01 404.252 309.743 404.353 309.482C404.454 309.215 404.604 308.978 404.801 308.77C404.998 308.556 405.238 308.388 405.521 308.266C405.804 308.138 406.126 308.074 406.489 308.074C406.852 308.074 407.174 308.138 407.457 308.266C407.74 308.388 407.98 308.556 408.177 308.77C408.374 308.978 408.524 309.215 408.625 309.482C408.726 309.743 408.777 310.01 408.777 310.282V310.426C408.777 310.698 408.726 310.964 408.625 311.226C408.529 311.487 408.382 311.724 408.185 311.938C407.993 312.146 407.756 312.314 407.473 312.442C407.19 312.57 406.862 312.634 406.489 312.634ZM406.489 311.946C406.809 311.946 407.081 311.876 407.305 311.738C407.534 311.594 407.708 311.402 407.825 311.162C407.948 310.922 408.009 310.652 408.009 310.354C408.009 310.05 407.948 309.778 407.825 309.538C407.702 309.298 407.526 309.108 407.297 308.97C407.073 308.831 406.804 308.762 406.489 308.762C406.18 308.762 405.91 308.831 405.681 308.97C405.452 309.108 405.276 309.298 405.153 309.538C405.03 309.778 404.969 310.05 404.969 310.354C404.969 310.652 405.028 310.922 405.145 311.162C405.268 311.402 405.441 311.594 405.665 311.738C405.894 311.876 406.169 311.946 406.489 311.946ZM410.427 312.49V308.218H411.035V310.05H410.939C410.939 309.628 410.995 309.274 411.107 308.986C411.225 308.692 411.401 308.471 411.635 308.322C411.87 308.167 412.166 308.09 412.523 308.09H412.555C413.094 308.09 413.491 308.258 413.747 308.594C414.009 308.93 414.139 309.415 414.139 310.05V312.49H413.371V309.89C413.371 309.559 413.278 309.295 413.091 309.098C412.905 308.895 412.649 308.794 412.323 308.794C411.987 308.794 411.715 308.898 411.507 309.106C411.299 309.314 411.195 309.591 411.195 309.938V312.49H410.427Z" fill="black"/>
</svg>
