<svg width="29" height="28" viewBox="0 0 29 28" fill="none" xmlns="http://www.w3.org/2000/svg">
<g id="devicon:linkedin" clip-path="url(#clip0_178_440)">
<path id="Vector" d="M26.115 0.656229H3.36499C2.84881 0.650976 2.35162 0.850707 1.98253 1.2116C1.61344 1.57249 1.40259 2.06506 1.39624 2.58123V25.4231C1.40373 25.9385 1.61509 26.43 1.98406 26.7899C2.35303 27.1499 2.84956 27.349 3.36499 27.3437H26.115C26.6312 27.3478 27.1281 27.1474 27.497 26.7863C27.8659 26.4252 28.0768 25.9327 28.0837 25.4165V2.57467C28.0745 2.06001 27.8626 1.56979 27.4939 1.21055C27.1253 0.85132 26.6297 0.652112 26.115 0.656229Z" fill="#0076B2"/>
<path id="Vector_2" d="M5.34674 10.6597H9.3083V23.4062H5.34674V10.6597ZM7.32861 4.31592C7.78299 4.31592 8.22715 4.45068 8.60492 4.70316C8.98268 4.95564 9.27708 5.3145 9.45086 5.73432C9.62464 6.15415 9.67 6.61609 9.58119 7.0617C9.49239 7.50731 9.27342 7.91657 8.95197 8.2377C8.63053 8.55884 8.22106 8.77742 7.77537 8.8658C7.32968 8.95418 6.86778 8.90838 6.44812 8.7342C6.02846 8.56002 5.66989 8.26528 5.41777 7.88728C5.16565 7.50927 5.03131 7.06498 5.03174 6.61061C5.03232 6.00182 5.27457 5.41816 5.70525 4.98788C6.13594 4.55761 6.71982 4.31592 7.32861 4.31592ZM11.7933 10.6597H15.5908V12.4097H15.6433C16.1727 11.4078 17.4633 10.3512 19.3905 10.3512C23.4024 10.3425 24.1461 12.9828 24.1461 16.4062V23.4062H20.1846V17.2047C20.1846 15.7281 20.1583 13.8272 18.1261 13.8272C16.0939 13.8272 15.7483 15.4372 15.7483 17.1084V23.4062H11.7933V10.6597Z" fill="white"/>
</g>
<defs>
<clipPath id="clip0_178_440">
<rect width="28" height="28" fill="white" transform="translate(0.73999)"/>
</clipPath>
</defs>
</svg>
