<svg width="105" height="24" viewBox="0 0 105 24" fill="none" xmlns="http://www.w3.org/2000/svg">
<g id="Group 1">
<path id="Vector" fill-rule="evenodd" clip-rule="evenodd" d="M81.7492 4.01567C81.706 4.03494 81.6087 4.05223 81.5329 4.05404C81.2299 4.06138 80.7854 4.29647 80.7854 4.44935C80.7854 4.49022 80.7675 4.53465 80.746 4.54802C80.7208 4.5636 80.7067 5.17068 80.7067 6.24009V7.9079L79.7383 7.91968L78.7697 7.93148L78.6446 8.07626C78.4198 8.33639 78.3789 8.55808 78.3781 9.51903C78.3773 10.6685 78.4521 10.973 78.7873 11.1876C78.8809 11.2474 79.0071 11.2559 79.7989 11.2559H80.7035L80.72 15.3179C80.7366 19.354 80.7541 19.9247 80.8803 20.5211C80.9126 20.6725 80.9498 20.8495 80.9634 20.9145C80.9768 20.9793 81.002 21.068 81.019 21.1113C81.0358 21.1545 81.0712 21.2608 81.0972 21.3473C81.1764 21.6093 81.5279 22.2844 81.6824 22.4707C81.9376 22.7783 82.363 23.1767 82.4367 23.1767C82.459 23.1767 82.4771 23.1914 82.4771 23.2098C82.4771 23.2554 83.1803 23.6027 83.3355 23.6336C83.4053 23.6475 83.4719 23.6743 83.4835 23.6932C83.495 23.7121 83.548 23.7275 83.6012 23.7275C83.6542 23.7275 83.7284 23.7443 83.7662 23.7648C83.8037 23.7855 83.9936 23.8298 84.1885 23.8634C84.5948 23.9334 86.3326 23.946 86.6671 23.8815C86.7751 23.8605 86.9482 23.8327 87.0516 23.8199C87.1546 23.8067 87.2488 23.7805 87.2603 23.7619C87.2719 23.743 87.3325 23.7275 87.3949 23.7275C87.4573 23.7275 87.5179 23.7121 87.5294 23.6932C87.541 23.6743 87.6029 23.6486 87.6666 23.6357C88.0008 23.5689 88.4571 23.2384 88.4571 23.0634C88.4571 23.0175 88.4713 22.98 88.4884 22.98C88.6108 22.98 88.7087 21.3027 88.6137 20.8359C88.5872 20.706 88.5573 20.5447 88.5471 20.4776C88.5369 20.4104 88.487 20.3074 88.4362 20.2481C88.3601 20.1597 88.3116 20.1408 88.16 20.1408C88.0587 20.1408 87.9567 20.16 87.9331 20.1833C87.9098 20.2069 87.85 20.226 87.8001 20.226C87.7503 20.226 87.7096 20.2418 87.7096 20.2609C87.7096 20.2801 87.6609 20.3058 87.6013 20.3181C87.542 20.3302 87.3781 20.3706 87.2375 20.4073C86.9097 20.4933 86.3308 20.5209 86.099 20.4616C85.8973 20.4102 85.6326 20.3063 85.5503 20.2462C85.321 20.0792 85.0343 19.6506 85.0343 19.4749C85.0343 19.4337 85.0189 19.3999 85 19.3999C84.9659 19.3999 84.9462 19.2913 84.8778 18.731C84.8581 18.5687 84.841 16.8206 84.8397 14.8458L84.8376 11.2559H86.5097C87.4293 11.2559 88.1817 11.2424 88.1817 11.2259C88.1817 11.2094 88.22 11.1784 88.2667 11.157C88.3134 11.1357 88.3911 11.0385 88.4396 10.9412C88.6156 10.5881 88.6342 10.4537 88.6342 9.54452C88.6342 8.74682 88.6271 8.6579 88.544 8.40999C88.4944 8.26206 88.4068 8.09389 88.3491 8.03624L88.2444 7.93148L86.5509 7.91034C85.6195 7.89875 84.8528 7.88548 84.8473 7.88083C84.8421 7.87624 84.8376 7.11885 84.8376 6.19781C84.8376 5.00552 84.8245 4.4984 84.792 4.43723C84.7269 4.31435 84.5588 4.17584 84.4442 4.15051C84.3902 4.13857 84.3104 4.11355 84.2672 4.09495C84.2239 4.07633 84.1177 4.04934 84.0311 4.035C83.7806 3.99345 81.8361 3.97695 81.7492 4.01567ZM58.9502 7.56308C58.7664 7.57853 58.5185 7.62054 58.3995 7.6564C58.2804 7.69228 58.1432 7.73102 58.0944 7.74258C58.0459 7.75415 58.006 7.77925 58.006 7.79837C58.006 7.81747 57.985 7.83312 57.9591 7.83312C57.8964 7.83312 57.4188 8.11993 57.3094 8.22325C57.2617 8.26833 57.2084 8.30547 57.1914 8.30579C57.1599 8.30636 56.2671 9.20689 56.1564 9.3497C56.1236 9.39195 56.0352 9.50615 55.9597 9.60354C55.8842 9.7009 55.8128 9.78942 55.8007 9.80025C55.7889 9.81106 55.7181 9.90603 55.6434 10.0112L55.5078 10.2026L55.4973 9.23312L55.4868 8.26364L55.3832 8.14734C55.326 8.08337 55.1804 7.99091 55.0593 7.94189C54.8481 7.85657 54.7917 7.8528 53.7177 7.8528C52.6463 7.8528 52.5854 7.85681 52.3457 7.94336C52.0936 8.0344 51.9866 8.10624 51.9866 8.1844C51.9866 8.20759 51.969 8.22655 51.9473 8.22655C51.9213 8.22655 51.9079 10.7559 51.9079 15.736V23.2455L52.0385 23.3881C52.1104 23.4666 52.2043 23.5308 52.2471 23.5308C52.2898 23.5308 52.3431 23.5487 52.3651 23.5707C52.4511 23.657 52.9883 23.7008 53.9734 23.7018C54.536 23.7024 55.085 23.69 55.193 23.6743C55.4459 23.6376 55.8422 23.5198 55.8422 23.4815C55.8422 23.4655 55.8655 23.4521 55.8939 23.4521C55.9224 23.4521 55.9843 23.3834 56.0316 23.2992L56.1176 23.1463V18.5042C56.1176 14.4259 56.1247 13.8562 56.1766 13.8132C56.2091 13.7862 56.2356 13.7398 56.2356 13.7101C56.2356 13.6802 56.2495 13.6558 56.2666 13.6558C56.2833 13.6558 56.3308 13.5984 56.3717 13.5279C56.4127 13.4576 56.4567 13.3912 56.4701 13.3804C56.4832 13.3697 56.5637 13.2635 56.6492 13.1444C56.7345 13.0253 56.8226 12.9078 56.8446 12.8832C56.8667 12.8585 56.9202 12.7877 56.9634 12.7258C57.0671 12.5776 57.7246 11.9247 57.7702 11.9247C57.7896 11.9247 57.8463 11.8849 57.8961 11.8361C57.9982 11.7358 58.3779 11.5313 58.4621 11.5313C58.4926 11.5313 58.5175 11.5161 58.5175 11.4974C58.5175 11.4549 58.8676 11.3995 59.1273 11.4009C59.4168 11.4025 59.8158 11.4585 59.8158 11.4974C59.8158 11.5161 59.8604 11.5313 59.9147 11.5313C59.969 11.5313 60.0442 11.5469 60.082 11.5659C60.2554 11.6537 60.562 11.7284 60.7485 11.7282C60.9963 11.728 61.1272 11.6208 61.1938 11.3637C61.2177 11.272 61.2536 11.1349 61.2738 11.0592C61.2938 10.9835 61.3105 10.3827 61.3105 9.72416C61.3108 8.7192 61.3 8.48868 61.2444 8.28981C61.1757 8.04494 61.0173 7.83312 60.9032 7.83312C60.8678 7.83312 60.8387 7.81542 60.8387 7.79378C60.8387 7.77214 60.803 7.75444 60.7595 7.75444C60.7159 7.75444 60.6496 7.73786 60.6118 7.71756C60.3752 7.58993 59.5469 7.5129 58.9502 7.56308ZM69.3563 7.56334C69.0534 7.57803 68.655 7.61913 68.4711 7.65475C68.2873 7.69034 68.0835 7.72855 68.0187 7.73965C67.9539 7.75074 67.8653 7.77406 67.822 7.79153C67.7787 7.80899 67.6371 7.85303 67.5072 7.88933C67.3774 7.92566 67.2358 7.97006 67.1925 7.988C67.1492 8.00594 66.994 8.06905 66.8476 8.12827C66.7013 8.18744 66.5719 8.25149 66.5601 8.27056C66.5483 8.2896 66.5043 8.30523 66.4623 8.30523C66.4203 8.30523 66.386 8.31848 66.3857 8.33474C66.3857 8.35098 66.306 8.39698 66.2087 8.43698C66.1114 8.477 66.0319 8.52571 66.0319 8.54517C66.0319 8.56469 66.0054 8.58063 65.9729 8.58063C65.9404 8.58063 65.9139 8.59432 65.9139 8.61103C65.9139 8.62776 65.852 8.67477 65.7762 8.71558C65.7004 8.75636 65.6385 8.80465 65.6385 8.82285C65.6385 8.84111 65.6157 8.85603 65.5876 8.85603C65.5598 8.85603 65.4711 8.91798 65.3909 8.99373C65.3106 9.06945 65.2353 9.13143 65.2235 9.13143C65.1682 9.13143 64.5369 9.75684 64.5369 9.81177C64.5369 9.83283 64.5059 9.87865 64.4679 9.91366C64.2652 10.1007 63.8245 10.7598 63.61 11.1969C63.5465 11.3267 63.4809 11.4389 63.4649 11.4461C63.4487 11.4533 63.4353 11.4845 63.4353 11.5155C63.4353 11.5464 63.4198 11.6025 63.4007 11.6401C63.3086 11.8225 63.2386 12.0137 63.2386 12.0835C63.2386 12.126 63.221 12.1608 63.1992 12.1608C63.1775 12.1608 63.1599 12.2015 63.1599 12.2513C63.1599 12.301 63.1447 12.3586 63.1261 12.379C63.1074 12.3998 63.061 12.5493 63.0227 12.7116C62.9847 12.874 62.9391 13.0421 62.9215 13.0854C62.9042 13.1287 62.8808 13.217 62.8698 13.2821C62.8585 13.3469 62.8213 13.5507 62.7864 13.7345C62.6726 14.3386 62.6322 14.9198 62.6322 15.9574C62.6319 16.9837 62.6728 17.5804 62.7888 18.2393C62.8231 18.4339 62.8604 18.6597 62.8719 18.741C62.8834 18.8223 62.9086 18.8986 62.928 18.9107C62.9474 18.9225 62.9634 18.9799 62.964 19.0382C62.9645 19.0964 63.0086 19.2679 63.0623 19.4195C63.1158 19.5709 63.1596 19.7259 63.1596 19.7636C63.1599 19.8017 63.1775 19.8326 63.1992 19.8326C63.221 19.8326 63.2386 19.8675 63.2386 19.9103C63.2386 19.9853 63.6136 20.8154 63.6656 20.8555C63.6797 20.8663 63.7172 20.9282 63.7492 20.9932C63.8122 21.121 63.9646 21.341 64.0745 21.463C64.1125 21.5047 64.1435 21.5532 64.1435 21.5705C64.1435 21.5878 64.2319 21.6909 64.3402 21.7997C64.4485 21.9086 64.5369 22.0075 64.5369 22.0195C64.5369 22.0479 64.6429 22.1538 64.6712 22.1538C64.6832 22.1538 64.7821 22.2422 64.891 22.3505C64.9998 22.4586 65.1018 22.5473 65.1176 22.5473C65.1336 22.5473 65.207 22.5989 65.2807 22.6621C65.3547 22.7251 65.4829 22.8093 65.5656 22.8489C65.6484 22.8885 65.7164 22.9341 65.7166 22.9504C65.7169 22.9666 65.7437 22.98 65.7762 22.98C65.8087 22.98 65.8352 22.9939 65.8352 23.0107C65.8352 23.0275 65.9236 23.0758 66.0319 23.1177C66.1402 23.1597 66.2286 23.2079 66.2286 23.2247C66.2286 23.2415 66.264 23.2554 66.3073 23.2554C66.3506 23.2554 66.3862 23.2685 66.3862 23.2848C66.3865 23.3011 66.4972 23.3485 66.6323 23.3902C66.7673 23.4317 66.9043 23.4786 66.9368 23.4944C66.9693 23.5101 67.102 23.5536 67.2318 23.5909C67.3617 23.6284 67.5086 23.6746 67.5584 23.6932C67.608 23.7121 67.6914 23.7275 67.7433 23.7275C67.7952 23.7275 67.8786 23.7433 67.9282 23.7627C68.0502 23.8104 68.4798 23.886 68.8963 23.9332C69.4015 23.9903 71.5427 24.0158 71.5934 23.9652C71.6157 23.9426 71.7502 23.9235 71.8918 23.9229C72.0337 23.9221 72.2913 23.8959 72.4644 23.8647C72.6375 23.8332 72.8355 23.8073 72.9048 23.807C72.9738 23.8065 73.0412 23.7884 73.0545 23.7669C73.0679 23.7451 73.1429 23.7275 73.2214 23.7275C73.2995 23.7275 73.4181 23.7113 73.4844 23.6913C73.551 23.6714 73.747 23.6252 73.9201 23.5888C74.0932 23.5521 74.2702 23.5077 74.3135 23.4902C74.3568 23.4723 74.4365 23.4485 74.4905 23.4367C74.7578 23.3784 74.9627 23.3131 74.9627 23.2858C74.9627 23.2691 75.007 23.2554 75.061 23.2554C75.115 23.2554 75.1594 23.2376 75.1594 23.2161C75.1594 23.1943 75.1943 23.1767 75.2367 23.1767C75.323 23.1767 75.6045 23.0556 75.6249 23.0094C75.6323 22.9931 75.6624 22.98 75.6923 22.98C75.8017 22.98 76.0438 22.6805 76.1225 22.4476C76.1912 22.2441 76.2004 22.11 76.2004 21.3101C76.2004 20.3595 76.1789 20.2064 76.0197 20.0236C75.9467 19.9394 75.9082 19.931 75.6013 19.9326C75.3729 19.9336 75.2583 19.9496 75.2475 19.9816C75.2386 20.0078 75.1974 20.0293 75.1554 20.0293C75.1137 20.0293 75.049 20.0453 75.0112 20.0653C74.9737 20.0849 74.8543 20.1306 74.7463 20.1668C74.6382 20.203 74.5231 20.2431 74.4905 20.2557C74.4074 20.2882 74.0371 20.3999 73.6644 20.5054C73.3672 20.5896 72.8594 20.6982 72.3661 20.7831C72.0285 20.8416 70.7908 20.8807 70.2646 20.85C69.8098 20.8233 69.5347 20.7837 69.2777 20.7084C69.2129 20.6892 69.0754 20.6488 68.9729 20.6187C68.8701 20.5885 68.7859 20.5497 68.7859 20.5327C68.7859 20.5153 68.7617 20.5014 68.7321 20.5014C68.5336 20.5014 67.8404 19.9719 67.5492 19.5976C67.4338 19.4494 67.2122 19.0452 67.2122 18.9828C67.2122 18.9527 67.1988 18.9275 67.1825 18.9275C67.1665 18.9272 67.1206 18.8165 67.081 18.6815C67.0414 18.5464 66.9929 18.3953 66.973 18.3455C66.953 18.2959 66.9368 18.2065 66.9368 18.1469C66.9368 18.0874 66.9208 18.0218 66.9011 18.0011C66.8814 17.9806 66.8528 17.7205 66.8374 17.4228L66.8093 16.8819H71.2277C74.3431 16.8819 75.7167 16.8688 75.8848 16.8376C76.4126 16.7392 76.6549 16.5226 76.8474 15.9771C76.919 15.7743 76.9458 14.587 76.8925 13.9903C76.8674 13.7088 76.8364 13.3589 76.8238 13.2123C76.8112 13.0657 76.7858 12.9361 76.7672 12.9246C76.7483 12.9131 76.7331 12.8438 76.7331 12.7706C76.7331 12.6977 76.6956 12.4908 76.6499 12.3108C76.6043 12.1309 76.5581 11.9262 76.5474 11.8559C76.5366 11.7856 76.512 11.728 76.4928 11.728C76.4734 11.728 76.4577 11.6948 76.4577 11.6541C76.4577 11.589 76.4265 11.4961 76.304 11.1969C76.1424 10.8026 75.8098 10.1921 75.7398 10.1609C75.7235 10.1537 75.7102 10.1308 75.7102 10.11C75.7102 10.0893 75.6921 10.0509 75.67 10.0248C75.6108 9.95447 75.5085 9.82782 75.3758 9.66003C75.1665 9.39576 74.602 8.85603 74.5349 8.85603C74.5142 8.85603 74.4913 8.84108 74.484 8.82277C74.4664 8.77847 74.115 8.53673 73.93 8.44175C73.8487 8.40008 73.7824 8.35237 73.7824 8.33563C73.7824 8.31893 73.7617 8.30523 73.7362 8.30523C73.7108 8.30523 73.5647 8.24467 73.4115 8.17063C73.0957 8.01796 72.5693 7.83312 72.4502 7.83312C72.4064 7.83312 72.3611 7.81739 72.349 7.79811C72.3372 7.77886 72.2698 7.75436 72.1992 7.74366C72.1287 7.73296 71.8585 7.68845 71.5989 7.64478C71.063 7.55466 70.1901 7.52297 69.3563 7.56334ZM97.1125 7.56413C96.7988 7.57921 96.3915 7.62031 96.2076 7.65556C96.0238 7.69081 95.8068 7.72934 95.7258 7.74117C95.6445 7.75302 95.5781 7.77854 95.5781 7.7979C95.5781 7.81726 95.5396 7.83312 95.4926 7.83312C95.3665 7.83312 94.7797 8.03346 94.5028 8.17118C94.4417 8.20163 94.368 8.22655 94.3389 8.22655C94.31 8.22655 94.2806 8.24066 94.2733 8.25789C94.2662 8.27518 94.1804 8.32774 94.0831 8.37474C93.8502 8.48726 93.6732 8.59317 93.6569 8.62981C93.6496 8.64605 93.6231 8.65932 93.5974 8.65932C93.5719 8.65932 93.5035 8.70356 93.445 8.75767C93.3868 8.81176 93.3207 8.85603 93.2981 8.85603C93.2753 8.85603 93.2569 8.86928 93.2567 8.88554C93.2564 8.90177 93.1908 8.95929 93.1111 9.0134C92.9304 9.13562 92.3843 9.6747 92.1745 9.93795C92.0882 10.0461 92.0079 10.1435 91.9961 10.1543C91.8954 10.2462 91.4078 11.0532 91.4078 11.128C91.4078 11.1551 91.3945 11.1772 91.3782 11.1772C91.3617 11.1772 91.3239 11.2348 91.2943 11.3051C91.2644 11.3754 91.2158 11.4905 91.1862 11.5608C91.1566 11.6312 91.1049 11.7512 91.0711 11.8276C90.98 12.0334 90.8591 12.4066 90.8581 12.4853C90.8576 12.5233 90.8413 12.5543 90.8222 12.5543C90.803 12.5543 90.7773 12.6028 90.765 12.6623C90.7073 12.9398 90.6331 13.2483 90.611 13.3018C90.5976 13.3343 90.5774 13.4316 90.5659 13.5181C90.5546 13.6047 90.5292 13.7728 90.5098 13.8919C90.3938 14.5932 90.3784 14.9085 90.3952 16.1968C90.4112 17.4317 90.4565 18.0648 90.5447 18.2786C90.5625 18.3219 90.5851 18.4281 90.595 18.5146C90.6047 18.6012 90.6417 18.7872 90.6771 18.9277C90.7128 19.0683 90.7513 19.2278 90.7631 19.2818C90.7747 19.3359 90.7983 19.4156 90.8153 19.4589C90.8321 19.5021 90.8683 19.6084 90.8956 19.6949C90.9475 19.8607 91.0359 20.0813 91.0965 20.1959C91.1162 20.2337 91.1324 20.2911 91.1324 20.3239C91.1324 20.3567 91.1458 20.3834 91.1621 20.3834C91.1781 20.3837 91.2255 20.4676 91.2672 20.5704C91.3089 20.673 91.3533 20.7661 91.3659 20.7768C91.3787 20.7876 91.4241 20.8673 91.4671 20.9539C91.5104 21.0404 91.555 21.1202 91.5665 21.1309C91.5781 21.1417 91.6575 21.2479 91.7436 21.367C91.8293 21.4861 91.9348 21.6277 91.978 21.6817C92.0809 21.8105 92.5771 22.3062 92.7182 22.4214C92.9312 22.5947 93.3755 22.9013 93.4146 22.9013C93.4361 22.9013 93.4536 22.915 93.4536 22.9318C93.4536 22.9486 93.5331 22.9973 93.6304 23.0401C93.7275 23.0828 93.8072 23.1308 93.8075 23.1471C93.8075 23.1634 93.83 23.1767 93.8576 23.1767C93.8848 23.1767 94.0165 23.23 94.1503 23.2953C94.2838 23.3606 94.4474 23.4246 94.5135 23.438C94.5799 23.4511 94.6339 23.4755 94.6339 23.492C94.6339 23.5083 94.6827 23.5313 94.7422 23.5431C95.0423 23.6022 95.2505 23.6557 95.3119 23.6898C95.3497 23.7105 95.4425 23.7275 95.5186 23.7275C95.5947 23.7275 95.6568 23.7451 95.6568 23.7669C95.6568 23.7884 95.7109 23.8062 95.7772 23.8062C95.8433 23.8062 95.9716 23.8243 96.0623 23.8466C96.4043 23.9303 97.0509 23.9738 98.1845 23.9893C98.9708 23.9998 99.355 23.9919 99.355 23.9646C99.355 23.9413 99.4592 23.924 99.6008 23.9235C99.7361 23.9229 99.9619 23.9043 100.103 23.8823C100.926 23.7517 101.176 23.7063 101.48 23.631C101.62 23.5961 101.802 23.557 101.884 23.5439C101.965 23.5308 102.042 23.5049 102.053 23.4862C102.065 23.4673 102.115 23.4521 102.164 23.4521C102.289 23.4521 102.777 23.283 103.25 23.0752C103.504 22.9638 103.801 22.7093 103.801 22.6029C103.801 22.5722 103.819 22.5473 103.84 22.5473C103.862 22.5473 103.879 22.4888 103.879 22.4174C103.879 22.3461 103.898 22.2692 103.92 22.2467C103.967 22.1995 103.949 20.4854 103.899 20.2675C103.882 20.1927 103.826 20.0865 103.775 20.0314C103.688 19.9378 103.658 19.9312 103.34 19.9349C103.121 19.9375 102.993 19.9551 102.983 19.9842C102.975 20.0089 102.929 20.0293 102.881 20.0293C102.833 20.0293 102.777 20.0435 102.756 20.0605C102.736 20.0779 102.613 20.1253 102.483 20.166C102.353 20.2069 102.229 20.2523 102.207 20.267C102.186 20.2817 102.044 20.3255 101.893 20.3643C101.741 20.4034 101.6 20.45 101.58 20.4684C101.559 20.4865 101.484 20.5014 101.413 20.5014C101.341 20.5014 101.283 20.5169 101.283 20.5355C101.283 20.5544 101.208 20.5807 101.116 20.5938C101.024 20.6069 100.824 20.6454 100.673 20.6793C100.197 20.7855 99.9066 20.8191 99.1977 20.8495C98.0166 20.9004 97.3168 20.8345 96.7191 20.6163C96.5229 20.5447 96.0403 20.2979 95.9786 20.2376C95.9501 20.2095 95.9123 20.1867 95.8947 20.1867C95.8774 20.1867 95.7578 20.0849 95.6293 19.9604C95.3806 19.7198 95.1708 19.4405 95.0452 19.1835C95.0029 19.0969 94.955 19.0201 94.939 19.013C94.9227 19.0056 94.9093 18.9668 94.9093 18.9267C94.9093 18.8866 94.8915 18.8428 94.87 18.8294C94.8485 18.816 94.8306 18.7704 94.8306 18.7281C94.8306 18.6859 94.8141 18.6206 94.7937 18.5828C94.7588 18.5178 94.6908 18.2075 94.5977 17.6861C94.5744 17.555 94.5552 17.3202 94.5552 17.1647V16.8819H98.9713C103.52 16.8819 103.629 16.8785 104.008 16.7293C104.154 16.6718 104.388 16.4308 104.509 16.2131C104.607 16.0369 104.607 16.0313 104.62 14.8361C104.631 13.8738 104.62 13.5465 104.568 13.1837C104.532 12.9348 104.486 12.7006 104.466 12.6628C104.446 12.6253 104.43 12.5246 104.43 12.4391C104.43 12.3535 104.412 12.2725 104.391 12.2592C104.369 12.2458 104.352 12.1961 104.352 12.1486C104.352 12.0611 104.252 11.7251 104.189 11.6007C104.17 11.5631 104.155 11.5083 104.155 11.4789C104.155 11.4291 104.081 11.2483 103.995 11.0893C103.975 11.0517 103.958 10.9941 103.958 10.9614C103.958 10.9286 103.94 10.9018 103.919 10.9018C103.897 10.9018 103.879 10.8769 103.879 10.8465C103.879 10.7825 103.488 10.1018 103.44 10.0822C103.422 10.075 103.407 10.044 103.407 10.0134C103.407 9.98272 103.394 9.95749 103.378 9.95733C103.362 9.95718 103.304 9.89082 103.251 9.8098C102.977 9.39529 101.942 8.53216 101.489 8.34017C101.419 8.31038 101.361 8.27266 101.361 8.25629C101.361 8.23993 101.326 8.22655 101.283 8.22655C101.24 8.22655 101.204 8.20963 101.204 8.18896C101.204 8.16832 101.142 8.13979 101.066 8.1256C100.991 8.11138 100.929 8.084 100.929 8.0648C100.929 8.04557 100.886 8.02984 100.834 8.02984C100.781 8.02984 100.733 8.0163 100.725 7.99978C100.708 7.96046 100.297 7.83312 100.188 7.83312C100.141 7.83312 100.103 7.81542 100.103 7.79378C100.103 7.77214 100.05 7.75444 99.9863 7.75444C99.9223 7.75444 99.8295 7.73823 99.7799 7.7184C99.4531 7.5881 98.1656 7.51366 97.1125 7.56413ZM43.3646 7.57687C43.3541 7.58747 43.1783 7.62196 42.9743 7.65364C42.3731 7.74689 41.9409 7.85062 41.6542 7.97035C41.5761 8.00308 41.4788 8.02984 41.4381 8.02984C41.3974 8.02984 41.3641 8.04754 41.3641 8.06918C41.3641 8.09082 41.335 8.10852 41.2996 8.10852C41.2217 8.10852 40.5629 8.42305 40.5445 8.46916C40.5372 8.48718 40.5062 8.50195 40.4758 8.50195C40.4451 8.50195 40.4199 8.51965 40.4199 8.54129C40.4199 8.56293 40.3845 8.58063 40.3412 8.58063C40.298 8.58063 40.2625 8.59451 40.2625 8.61148C40.2625 8.62847 40.2051 8.67616 40.1348 8.71747C40.0643 8.75878 39.9877 8.81128 39.9641 8.83416C39.9407 8.857 39.8723 8.91111 39.8119 8.95439C39.7091 9.02827 39.589 9.13174 39.3293 9.36945C39.1966 9.49112 38.8942 9.83041 38.7898 9.97501C38.7479 10.0329 38.6726 10.1279 38.6227 10.1861C38.5727 10.2444 38.5315 10.304 38.5315 10.3187C38.5315 10.3334 38.5094 10.3696 38.4824 10.3991C38.4153 10.4721 38.3474 10.5804 38.2658 10.7445C38.228 10.8202 38.1761 10.9045 38.1504 10.9317C38.1247 10.959 38.0811 11.0431 38.0539 11.1186C38.0266 11.1942 37.9901 11.2559 37.9728 11.2559C37.9555 11.2559 37.9413 11.3002 37.9413 11.3543C37.9413 11.4084 37.9238 11.4526 37.902 11.4526C37.8805 11.4526 37.8627 11.4778 37.8627 11.5085C37.8627 11.5391 37.833 11.6233 37.7971 11.6953C37.6785 11.9317 37.6659 11.9624 37.6659 12.0152C37.6659 12.0439 37.6329 12.137 37.5925 12.2223C37.5518 12.3075 37.5062 12.448 37.4905 12.5346C37.475 12.6211 37.4482 12.7095 37.4309 12.7313C37.4139 12.7528 37.3903 12.8325 37.3785 12.9083C37.3667 12.9841 37.337 13.1258 37.3129 13.2231C37.2888 13.3204 37.2502 13.5507 37.2271 13.7345C37.2041 13.9184 37.1705 14.1044 37.1529 14.1476C37.059 14.3766 37.026 16.6939 37.106 17.4327C37.1791 18.1063 37.2313 18.4682 37.2728 18.5894C37.2943 18.6521 37.3119 18.7538 37.3119 18.8155C37.3119 18.8771 37.3297 18.9277 37.3512 18.9277C37.373 18.9277 37.3905 18.9799 37.3905 19.0439C37.3905 19.1077 37.406 19.2008 37.4249 19.2504C37.4435 19.3002 37.491 19.4471 37.5301 19.5769C37.5692 19.7067 37.6158 19.8297 37.6337 19.8502C37.6515 19.8709 37.6665 19.915 37.6673 19.9486C37.6678 19.9821 37.7118 20.0981 37.7651 20.2064C37.8183 20.3144 37.8621 20.4251 37.8624 20.4521C37.8624 20.4794 37.8805 20.5014 37.902 20.5014C37.9238 20.5014 37.9413 20.5232 37.9413 20.55C37.9413 20.6121 38.142 21.016 38.2068 21.0845C38.2338 21.1131 38.2561 21.1495 38.2561 21.1655C38.2561 21.1815 38.287 21.229 38.3251 21.271C38.3628 21.313 38.4174 21.3932 38.4462 21.4493C38.4753 21.5055 38.5637 21.6235 38.6429 21.7114C38.7224 21.7995 38.8195 21.9154 38.8588 21.9694C38.9364 22.0762 39.2771 22.4292 39.3023 22.4292C39.316 22.4292 39.4403 22.5299 39.5693 22.6456C39.6606 22.7272 39.9043 22.9013 39.9271 22.9013C39.9405 22.9013 39.9848 22.9323 40.0262 22.9701C40.1555 23.0889 41.0591 23.5308 41.1724 23.5308C41.2104 23.5308 41.2511 23.5466 41.2632 23.5657C41.275 23.5849 41.3513 23.6129 41.4326 23.6281C41.5139 23.6433 41.5981 23.6698 41.6199 23.6871C41.6414 23.7042 41.7211 23.7275 41.7969 23.7393C41.8727 23.7509 42.0584 23.7894 42.21 23.8248C42.802 23.9631 44.2886 24.0496 44.6886 23.9691C44.7966 23.9473 45.0445 23.9093 45.2394 23.8849C45.8232 23.8112 45.8885 23.7991 45.8885 23.7669C45.8885 23.7498 45.9549 23.7273 46.0359 23.717C46.1172 23.7068 46.2809 23.6685 46.4 23.6315C46.5191 23.5948 46.6652 23.5552 46.7244 23.5434C46.784 23.5316 46.8327 23.5062 46.8327 23.487C46.8327 23.4679 46.8676 23.4521 46.9104 23.4521C46.9859 23.4521 47.3022 23.3213 47.5803 23.1752C47.6561 23.1356 47.7799 23.0718 47.8557 23.0335C47.9315 22.9955 48.0023 22.9533 48.013 22.9396C48.0238 22.9263 48.0901 22.8817 48.1607 22.8408C48.231 22.7998 48.2884 22.7524 48.2884 22.7353C48.2884 22.7185 48.3068 22.7046 48.3296 22.7046C48.4065 22.7046 48.6703 22.4274 48.7521 22.2608C48.8544 22.0523 48.8744 21.9427 48.9255 21.3014C48.9803 20.6166 48.9051 19.4562 48.7894 19.2031C48.6934 18.9931 48.6008 18.9277 48.3996 18.9277C48.2952 18.9277 48.2097 18.9435 48.2097 18.9629C48.2097 18.982 48.1696 19.008 48.1203 19.0203C48.0713 19.0327 47.996 19.0749 47.9532 19.1142C47.9105 19.1536 47.8045 19.2383 47.718 19.3025C47.6314 19.3668 47.5265 19.4502 47.4848 19.488C47.4431 19.5255 47.3767 19.5667 47.3374 19.579C47.2978 19.5916 47.2655 19.6183 47.2655 19.6385C47.2655 19.6587 47.239 19.6753 47.2065 19.6753C47.174 19.6753 47.1475 19.6928 47.1475 19.7146C47.1475 19.7361 47.1294 19.7539 47.1074 19.7539C47.0596 19.7539 46.7402 19.9575 46.7213 19.9997C46.7139 20.016 46.6877 20.0293 46.6628 20.0293C46.6379 20.0293 46.5288 20.0718 46.4202 20.1238C45.8854 20.3803 45.6029 20.4587 44.9443 20.535C44.218 20.6189 43.2067 20.3763 42.7626 20.0115C42.7086 19.9672 42.6037 19.8867 42.5297 19.8326C42.4555 19.7786 42.3532 19.6734 42.3023 19.5995C42.2517 19.5252 42.1922 19.4455 42.1707 19.4224C42.1012 19.3479 41.9325 19.0702 41.8585 18.9081C41.8189 18.8215 41.7534 18.6809 41.713 18.5957C41.6726 18.5105 41.6395 18.4124 41.6395 18.3775C41.6395 18.3426 41.6251 18.2972 41.6075 18.2765C41.59 18.256 41.5443 18.0976 41.506 17.9245C41.468 17.7514 41.421 17.5479 41.4019 17.4721C41.3306 17.1893 41.3122 16.8329 41.3117 15.741C41.3114 14.6995 41.339 14.2835 41.4391 13.8132C41.5257 13.4072 41.5711 13.2406 41.6044 13.2052C41.6238 13.1848 41.6395 13.1357 41.6395 13.0967C41.6395 13.0573 41.6561 12.9946 41.676 12.9569C41.6962 12.9194 41.7867 12.735 41.8772 12.5472C41.9674 12.3594 42.0749 12.1699 42.1158 12.126C42.1568 12.082 42.1903 12.0366 42.1903 12.025C42.1903 11.9706 42.6832 11.4526 42.7348 11.4526C42.7545 11.4526 42.792 11.4271 42.818 11.3959C42.8762 11.3256 43.4168 11.0592 43.501 11.0592C43.5348 11.0592 43.5726 11.0434 43.5844 11.024C43.6195 10.9672 43.8996 10.9364 44.5679 10.9156C44.9511 10.9038 45.2263 10.9116 45.2761 10.9359C45.3207 10.9578 45.4193 10.9848 45.4951 10.9959C45.76 11.0348 45.8885 11.0684 45.8885 11.0986C45.8885 11.1154 45.9504 11.1408 46.0262 11.155C46.102 11.1692 46.1639 11.1977 46.1639 11.2183C46.1639 11.239 46.2067 11.2559 46.2591 11.2559C46.3113 11.2559 46.3598 11.2692 46.3672 11.2854C46.3743 11.3017 46.4865 11.3667 46.6164 11.4299C46.7462 11.4932 46.9088 11.5861 46.9775 11.6365C47.0465 11.6868 47.1218 11.728 47.1449 11.728C47.1679 11.728 47.1868 11.7419 47.1868 11.7589C47.1868 11.7759 47.2443 11.8232 47.3146 11.8641C47.3851 11.905 47.4515 11.9488 47.4622 11.9613C47.5273 12.037 47.8001 12.2128 47.9556 12.2795C48.1471 12.3615 48.4458 12.3851 48.4458 12.3182C48.4458 12.2965 48.4723 12.2788 48.5048 12.2788C48.5373 12.2788 48.5638 12.2523 48.5638 12.2198C48.5638 12.1873 48.5788 12.1608 48.5971 12.1608C48.6315 12.1608 48.7167 11.9726 48.7933 11.728C48.8565 11.5269 48.8888 10.3976 48.8452 9.91828C48.8017 9.43602 48.7477 9.20416 48.6522 9.08715C48.509 8.91182 48.1557 8.58063 48.1119 8.58063C48.1017 8.58063 47.9965 8.51865 47.8779 8.44293C47.7597 8.36719 47.6353 8.30523 47.6018 8.30523C47.5685 8.30523 47.5409 8.29186 47.5409 8.27549C47.5409 8.25913 47.4835 8.22151 47.4132 8.19193C47.3426 8.16229 47.2338 8.11372 47.1708 8.08392C47.1081 8.05418 47.0271 8.02984 46.9906 8.02984C46.9542 8.02984 46.9127 8.01806 46.8986 8.00371C46.8537 7.95913 46.4666 7.83312 46.3743 7.83312C46.326 7.83312 46.277 7.81739 46.2649 7.79811C46.2531 7.77886 46.1857 7.7536 46.1151 7.74193C46.0446 7.73028 45.7834 7.68444 45.5344 7.64011C45.1722 7.57559 44.9126 7.5593 44.233 7.55859C43.7659 7.55812 43.3751 7.56633 43.3646 7.57687ZM69.5137 10.4673C69.4704 10.4869 69.3852 10.5041 69.3243 10.5057C69.1992 10.5088 68.825 10.6204 68.7683 10.6715C68.7476 10.69 68.6991 10.7051 68.66 10.7051C68.6212 10.7051 68.5889 10.7184 68.5886 10.7346C68.5884 10.7509 68.5131 10.7996 68.4216 10.8428C68.2238 10.9361 68.1695 10.9774 67.9051 11.2363C67.6817 11.4548 67.4876 11.7005 67.4876 11.7647C67.4876 11.7878 67.4742 11.8067 67.4577 11.8067C67.4412 11.8067 67.4102 11.8404 67.3887 11.8816C67.1241 12.3919 67.0039 12.7253 66.9478 13.1051C66.9365 13.1809 66.914 13.2603 66.8977 13.2821C66.8812 13.3036 66.8555 13.5029 66.84 13.7246L66.8125 14.128H69.8647H72.9168V13.9472C72.9168 13.638 72.8306 12.8118 72.7941 12.7725C72.775 12.752 72.7595 12.6804 72.7595 12.6133C72.7595 12.5461 72.7453 12.4745 72.7283 12.4538C72.711 12.4333 72.6734 12.3457 72.6451 12.2592C72.5919 12.0976 72.4012 11.6893 72.3157 11.5534C72.2512 11.4508 72.0489 11.2179 71.9579 11.1411C71.9173 11.1069 71.8465 11.0435 71.8006 11.0002C71.7544 10.9569 71.6419 10.8861 71.5501 10.8428C71.4585 10.7996 71.3833 10.7509 71.383 10.7346C71.3828 10.7184 71.3505 10.7051 71.3117 10.7051C71.2726 10.7051 71.2241 10.6904 71.2033 10.6724C71.1506 10.6261 70.8501 10.5404 70.5956 10.4991C70.2715 10.4465 69.6034 10.4268 69.5137 10.4673ZM97.2895 10.4673C97.2463 10.4869 97.149 10.5047 97.0732 10.5069C96.9394 10.5109 96.5468 10.6283 96.4953 10.6797C96.4814 10.6937 96.4374 10.7051 96.3978 10.7051C96.3582 10.7051 96.3256 10.7209 96.3256 10.7402C96.3256 10.7595 96.2855 10.7854 96.2362 10.7977C96.1872 10.81 96.1082 10.8562 96.061 10.9003C96.0135 10.9444 95.9606 10.9805 95.943 10.9805C95.9076 10.9805 95.3814 11.482 95.3814 11.5156C95.3814 11.5271 95.3371 11.5946 95.2831 11.6655C95.229 11.7365 95.1847 11.8149 95.1847 11.8399C95.1847 11.8649 95.1669 11.8854 95.1454 11.8854C95.1239 11.8854 95.106 11.9119 95.106 11.9444C95.106 11.9769 95.0882 12.0034 95.0667 12.0034C95.0452 12.0034 95.0273 12.0229 95.0273 12.0467C95.0273 12.0889 94.9387 12.309 94.8666 12.4454C94.8469 12.4832 94.8306 12.5459 94.8306 12.5852C94.8306 12.6243 94.8154 12.6733 94.7968 12.6938C94.7401 12.7567 94.6129 13.4203 94.5694 13.8819L94.5461 14.128H97.5998H100.653V13.7154C100.653 13.4885 100.636 13.2273 100.615 13.135C100.594 13.0429 100.549 12.8346 100.515 12.6723C100.449 12.362 100.446 12.3533 100.284 11.9925C100.227 11.8675 100.181 11.748 100.181 11.727C100.181 11.7059 100.166 11.6887 100.147 11.6887C100.128 11.6887 100.091 11.6384 100.066 11.5769C100.027 11.4824 99.8282 11.2622 99.5911 11.0503C99.4093 10.888 99.1048 10.7051 99.0162 10.7051C98.9863 10.7051 98.9616 10.6898 98.9616 10.671C98.9616 10.6367 98.7331 10.5758 98.3321 10.5034C98.0229 10.4475 97.3824 10.4253 97.2895 10.4673Z" fill="white"/>
<path id="Vector_2" d="M25.7942 0.0798348C25.8648 0.0782873 25.9576 0.0618417 26.0009 0.0432458C26.2204 -0.0510976 26.2173 -0.0616414 26.2173 0.771083C26.2173 1.20165 26.2018 1.53826 26.1819 1.53826C26.1622 1.53826 26.1365 1.70203 26.1249 1.90218C26.1134 2.1023 26.0872 2.36346 26.0667 2.48248C25.9447 3.19671 25.9211 3.30868 25.8936 3.30868C25.8768 3.30868 25.8632 3.35316 25.8632 3.40758C25.8632 3.46195 25.8477 3.5372 25.8291 3.57479C25.7737 3.68558 25.6982 3.9103 25.6772 4.02668C25.6665 4.08616 25.6457 4.13487 25.6313 4.13487C25.6169 4.13487 25.5707 4.22339 25.5288 4.33158C25.4868 4.43977 25.442 4.52829 25.4291 4.52829C25.4162 4.52829 25.3814 4.59025 25.3517 4.66599C25.3221 4.74171 25.2846 4.80369 25.2683 4.80369C25.2521 4.80369 25.2287 4.83598 25.2161 4.87545C25.2038 4.9149 25.1626 4.98131 25.1251 5.02301C25.0873 5.06469 25.0094 5.1621 24.9517 5.2394C24.8303 5.40196 24.3343 5.90528 24.2952 5.90528C24.2808 5.90528 24.2213 5.94953 24.1628 6.00364C24.1046 6.05772 24.0385 6.102 24.0159 6.102C23.9931 6.102 23.9745 6.11524 23.9742 6.1315C23.974 6.14774 23.9031 6.19485 23.8168 6.23618C23.7306 6.27754 23.66 6.3262 23.66 6.34437C23.66 6.36252 23.6335 6.37739 23.601 6.37739C23.5685 6.37739 23.542 6.3951 23.542 6.41674C23.542 6.43837 23.511 6.45663 23.473 6.45734C23.4352 6.45799 23.3699 6.48456 23.3279 6.51635C23.286 6.54809 23.2107 6.57411 23.1606 6.57411C23.1108 6.57411 23.0699 6.59181 23.0699 6.61345C23.0699 6.63509 23.0182 6.65279 22.955 6.65279C22.892 6.65279 22.833 6.6749 22.8238 6.70192C22.8002 6.77286 21.2937 6.77289 21.2698 6.70197C21.2609 6.67493 21.2019 6.65279 21.1389 6.65279C21.0757 6.65279 21.024 6.63509 21.024 6.61345C21.024 6.59181 20.9921 6.57411 20.953 6.57411C20.9136 6.57411 20.8473 6.54809 20.8053 6.51635C20.7633 6.48456 20.698 6.45799 20.66 6.45734C20.6222 6.45663 20.5913 6.44168 20.5913 6.42408C20.5913 6.40646 20.5302 6.36806 20.4552 6.33868C20.3804 6.30933 20.3101 6.26175 20.2991 6.23301C20.2881 6.20421 20.2519 6.18068 20.2188 6.18068C20.1855 6.18068 20.1585 6.16298 20.1585 6.14134C20.1585 6.1197 20.1205 6.102 20.0741 6.102C19.9946 6.102 19.5684 6.50707 19.5684 6.58247C19.5684 6.59992 19.5159 6.66918 19.4514 6.73643C19.3874 6.80366 19.3242 6.89202 19.3111 6.93275C19.2982 6.97351 19.2712 7.00687 19.251 7.00687C19.2308 7.00687 19.2143 7.03342 19.2143 7.06589C19.2143 7.09833 19.1986 7.1249 19.1791 7.1249C19.16 7.1249 19.1207 7.20456 19.0921 7.30194L19.0396 7.47898H18.733H18.4264L18.4516 7.31178C18.4655 7.21982 18.4922 7.12773 18.5111 7.1072C18.53 7.08666 18.5455 7.03795 18.5455 6.99901C18.5455 6.96006 18.5612 6.92819 18.5801 6.92819C18.5992 6.92819 18.6255 6.89719 18.6381 6.85934C18.664 6.78176 18.7388 6.66171 18.8085 6.58536C18.834 6.55727 18.8662 6.49899 18.8799 6.45584C18.8935 6.41267 18.919 6.37739 18.9363 6.37739C18.9536 6.37739 19.0121 6.31101 19.0664 6.22986C19.3111 5.86321 20.7156 4.45357 21.1027 4.18586C21.1568 4.14843 21.2562 4.05973 21.3238 3.98867C21.3912 3.91762 21.4576 3.85947 21.471 3.85947C21.4846 3.85947 21.5355 3.82511 21.5843 3.78309C21.8589 3.5472 21.9119 3.50547 21.9371 3.50542C21.9523 3.50542 22.0089 3.46112 22.063 3.40703C22.1172 3.35292 22.1799 3.30868 22.2025 3.30868C22.225 3.30868 22.2437 3.2954 22.2439 3.27917C22.2442 3.26291 22.3056 3.2078 22.3808 3.1566C22.6274 2.98869 22.6764 2.93012 22.6764 2.80336C22.6764 2.71959 22.6484 2.66301 22.5878 2.62396C22.4973 2.5656 22.283 2.58 22.283 2.64444C22.283 2.66354 22.2565 2.6792 22.224 2.6792C22.1915 2.6792 22.165 2.69572 22.165 2.71589C22.165 2.73608 22.134 2.76252 22.096 2.77467C22.0582 2.78678 21.9795 2.83785 21.9213 2.88805C21.8631 2.93831 21.7692 3.01363 21.7125 3.05549C21.5048 3.2093 21.4033 3.29186 21.2688 3.41687C21.193 3.48721 21.1203 3.54512 21.1069 3.54562C21.0938 3.54615 21.0122 3.6103 20.9257 3.68825C20.8391 3.76615 20.6812 3.90293 20.5753 3.99221C20.4688 4.08147 20.1522 4.38029 19.8716 4.65616C19.5909 4.93203 19.3481 5.15777 19.3321 5.15777C19.3161 5.15777 19.2922 5.10477 19.2793 5.03998C19.2662 4.97517 19.2198 4.84794 19.176 4.75719C19.1322 4.66647 19.0963 4.55271 19.0963 4.50453C19.0963 4.4563 19.0761 4.41011 19.0514 4.40187C18.9879 4.38071 18.9869 3.08752 19.0504 3.02407C19.0755 2.99884 19.0963 2.93723 19.0963 2.88716C19.0963 2.83712 19.1128 2.76538 19.1327 2.72782C19.1529 2.69024 19.2017 2.57549 19.241 2.47281C19.2804 2.37007 19.326 2.28601 19.342 2.28593C19.3583 2.28585 19.3717 2.25036 19.3717 2.20709C19.3717 2.16381 19.3892 2.1284 19.411 2.1284C19.4325 2.1284 19.4503 2.10608 19.4503 2.07883C19.4503 2.05155 19.4947 1.9815 19.5487 1.92314C19.6027 1.86483 19.6471 1.80752 19.6471 1.7958C19.6471 1.76889 20.1543 1.26286 20.1813 1.26286C20.1921 1.26286 20.2225 1.24492 20.2487 1.22297C20.3468 1.14043 20.5963 0.987467 20.6325 0.987467C20.6529 0.987467 20.67 0.969762 20.67 0.948124C20.67 0.926486 20.7143 0.908781 20.7683 0.908781C20.8224 0.908781 20.8667 0.892179 20.8667 0.871826C20.8667 0.851525 20.9464 0.822962 21.0437 0.808379C21.141 0.79377 21.2208 0.766127 21.2208 0.746927C21.2208 0.727754 21.2905 0.712069 21.3758 0.712069C21.461 0.712069 21.5418 0.694365 21.5552 0.672726C21.5699 0.64899 21.8434 0.633384 22.2437 0.633384C22.609 0.633384 22.9172 0.618434 22.9285 0.6001C22.9398 0.581793 23.1546 0.555093 23.4061 0.54072C23.6576 0.526373 23.8961 0.497102 23.9362 0.475647C23.9761 0.454218 24.0896 0.436671 24.1885 0.436671C24.2874 0.436671 24.3682 0.418967 24.3682 0.397329C24.3682 0.37569 24.4448 0.357986 24.5386 0.357986C24.6325 0.357986 24.7222 0.344714 24.7385 0.328479C24.7676 0.299077 25.1812 0.215515 25.4991 0.174756C25.5912 0.163005 25.6665 0.137432 25.6665 0.117945C25.6665 0.0985095 25.7239 0.0813298 25.7942 0.0798348Z" fill="#87C540"/>
<path id="Vector_3" d="M8.11971 2.24789C8.11971 2.22704 8.28348 2.20289 8.48363 2.19415C9.19607 2.1631 11.0767 2.19761 11.1217 2.24257C11.1454 2.26631 11.2487 2.28574 11.3513 2.28574C11.4539 2.28574 11.5477 2.30156 11.5596 2.32091C11.5716 2.34027 11.6479 2.36445 11.7292 2.37468C11.9392 2.40104 12.3349 2.48379 12.4277 2.52069C12.471 2.53793 12.6126 2.58422 12.7425 2.62364C12.8723 2.66306 12.9954 2.70938 13.0159 2.72656C13.0365 2.74377 13.0904 2.75785 13.1359 2.75785C13.1813 2.75785 13.2353 2.77236 13.2559 2.79011C13.2764 2.80784 13.4172 2.87331 13.5687 2.93552C13.7201 2.99771 13.85 3.06286 13.8571 3.0803C13.8644 3.09769 13.9042 3.11193 13.9457 3.11193C13.9872 3.11193 14.0211 3.1277 14.0211 3.14703C14.0211 3.16631 14.0653 3.19322 14.1195 3.20678C14.1735 3.22036 14.2178 3.24885 14.2178 3.27004C14.2178 3.29128 14.2532 3.30865 14.2965 3.30865C14.3398 3.30865 14.3752 3.32635 14.3752 3.34799C14.3752 3.36963 14.4017 3.38733 14.4342 3.38733C14.4666 3.38733 14.4932 3.40386 14.4932 3.42402C14.4932 3.44422 14.5268 3.47137 14.5678 3.48438C14.6089 3.49741 14.7075 3.56944 14.787 3.64442C14.9496 3.79778 15.044 3.81895 15.044 3.70207C15.044 3.6588 15.0616 3.62339 15.0833 3.62339C15.1048 3.62339 15.1227 3.60012 15.1227 3.57172C15.1227 3.54331 15.167 3.42833 15.221 3.3162C15.2751 3.20407 15.3194 3.07684 15.3194 3.03343C15.3194 2.99005 15.3328 2.95456 15.349 2.95456C15.3802 2.95456 15.4458 2.81986 15.5565 2.5282L15.6229 2.35391L15.6677 2.48308C15.6926 2.55408 15.7128 2.65281 15.7128 2.70238C15.7128 2.75198 15.7304 2.80349 15.7522 2.81687C15.7737 2.83024 15.7915 2.88464 15.7915 2.93775C15.7915 2.99086 15.8086 3.06506 15.8293 3.10265C15.8673 3.17126 15.9376 3.45382 15.9762 3.69258C15.9877 3.76313 16.0126 3.83056 16.0318 3.84245C16.0512 3.85435 16.0669 3.9151 16.0669 3.97747C16.0669 4.03981 16.0834 4.10103 16.1034 4.11346C16.1236 4.1259 16.1521 4.23338 16.1671 4.35235C16.182 4.47132 16.2099 4.57831 16.229 4.59011C16.2479 4.60192 16.2636 4.66261 16.2636 4.72498C16.2636 4.78732 16.2812 4.8493 16.303 4.86268C16.3245 4.87605 16.3423 4.94789 16.3423 5.02236C16.3423 5.09684 16.3588 5.15775 16.3788 5.15775C16.399 5.15775 16.4275 5.25534 16.4425 5.37463C16.4574 5.49392 16.4852 5.60122 16.5044 5.61302C16.5233 5.62482 16.539 5.68551 16.539 5.74788C16.539 5.81023 16.5566 5.87221 16.5784 5.88558C16.5999 5.89896 16.6177 5.96091 16.6177 6.02328C16.6177 6.08563 16.6334 6.14635 16.6523 6.15815C16.6715 6.16995 16.6993 6.27691 16.7142 6.39588C16.7292 6.51485 16.7578 6.62234 16.7777 6.63477C16.7979 6.6472 16.8144 6.71831 16.8144 6.79277C16.8144 6.86726 16.832 6.92816 16.8538 6.92816C16.8753 6.92816 16.8931 6.99011 16.8931 7.06586C16.8931 7.19697 16.8865 7.20356 16.7554 7.20356C16.6796 7.20356 16.6177 7.21922 16.6177 7.23836C16.6177 7.25748 16.5207 7.28531 16.4018 7.30013C16.2833 7.31498 16.176 7.34354 16.1637 7.36368C16.1511 7.38377 16.08 7.40027 16.0055 7.40027C15.931 7.40027 15.8702 7.41797 15.8702 7.43961C15.8702 7.46125 15.8083 7.47895 15.7325 7.47895C15.6567 7.47895 15.5948 7.49461 15.5948 7.51376C15.5948 7.53288 15.4978 7.56071 15.3789 7.57553C15.2604 7.59037 15.1531 7.61894 15.1408 7.63908C15.1282 7.65917 15.0571 7.67567 14.9826 7.67567C14.9081 7.67567 14.8473 7.69337 14.8473 7.71501C14.8473 7.73665 14.7854 7.75435 14.7096 7.75435C14.6338 7.75435 14.5719 7.77001 14.5719 7.78916C14.5719 7.80828 14.4748 7.83611 14.3561 7.85093C14.2374 7.86577 14.1302 7.89433 14.1177 7.91448C14.1053 7.93457 14.0517 7.95107 13.9985 7.95107C13.9454 7.95107 13.8712 7.96657 13.8337 7.98548C13.7344 8.03549 13.193 8.15895 13.1707 8.13663C13.1407 8.10673 13.1996 7.91172 13.2385 7.91172C13.2578 7.91172 13.2736 7.88492 13.2736 7.85216C13.2736 7.79228 13.287 7.75973 13.4056 7.53191C13.4412 7.46364 13.4703 7.37952 13.4703 7.34503C13.4703 7.31049 13.488 7.28224 13.5096 7.28224C13.5313 7.28224 13.549 7.23946 13.549 7.18714C13.549 7.13487 13.5639 7.08619 13.5822 7.07895C13.6005 7.07176 13.6267 7.01977 13.6405 6.96349C13.6623 6.87444 13.6464 6.85136 13.5188 6.78645C13.438 6.74537 13.3631 6.70071 13.3523 6.68715C13.3414 6.67361 13.1998 6.59393 13.0375 6.51011C12.8752 6.42631 12.7366 6.34442 12.7293 6.32819C12.7221 6.31192 12.6857 6.29868 12.6484 6.29868C12.611 6.29868 12.5461 6.27266 12.5041 6.24092C12.4621 6.20914 12.3879 6.18257 12.3392 6.18191C12.2905 6.1812 12.2507 6.16295 12.2507 6.14131C12.2507 6.11967 12.2186 6.10197 12.1794 6.10197C12.1402 6.10197 12.0342 6.06624 11.9438 6.0226C11.8534 5.97893 11.6992 5.93219 11.6009 5.91874C11.5027 5.90528 11.4129 5.87905 11.4014 5.8604C11.3899 5.84178 11.3143 5.82657 11.2333 5.82657C11.1523 5.82657 11.0681 5.80858 11.0461 5.78654C10.9843 5.72475 9.57122 5.69401 9.20163 5.74647C9.02853 5.77104 8.81162 5.80092 8.71969 5.81283C8.62773 5.82476 8.55248 5.85041 8.55248 5.86987C8.55248 5.88931 8.51267 5.90517 8.46396 5.90504C8.35868 5.90481 7.98763 6.03028 7.9689 6.07246C7.96166 6.08869 7.93158 6.10197 7.90202 6.10197C7.87243 6.10197 7.75441 6.15605 7.63974 6.22215C7.52504 6.28824 7.40022 6.35229 7.36237 6.36446C7.32452 6.3766 7.29352 6.40218 7.29352 6.4213C7.29352 6.44039 7.2712 6.45605 7.24395 6.45605C7.21667 6.45605 7.14662 6.5003 7.08826 6.55441C7.02995 6.60849 6.97272 6.65276 6.9611 6.65276C6.89729 6.65276 6.26338 7.27102 6.09132 7.50107C6.02766 7.58623 5.94478 7.69007 5.90712 7.73172C5.8695 7.77342 5.82848 7.83983 5.81597 7.87931C5.80346 7.91875 5.77671 7.95107 5.75651 7.95107C5.73634 7.95107 5.71982 7.98647 5.71982 8.02975C5.71982 8.07303 5.70212 8.10844 5.68048 8.10844C5.65884 8.10844 5.64113 8.13498 5.64113 8.16745C5.64113 8.19989 5.62611 8.22646 5.60772 8.22646C5.58936 8.22646 5.54144 8.30612 5.50131 8.4035C5.46113 8.50086 5.41421 8.58055 5.397 8.58055C5.37982 8.58055 5.36574 8.6051 5.36574 8.63508C5.36574 8.66505 5.3393 8.74028 5.30696 8.80228C5.27465 8.86423 5.2481 8.94596 5.24794 8.98381C5.24781 9.02165 5.23001 9.05266 5.20837 9.05266C5.18673 9.05266 5.16902 9.09541 5.16902 9.14773C5.16902 9.20003 5.15575 9.24869 5.13952 9.25593C5.09781 9.27447 4.97187 9.64515 4.9721 9.74865C4.97223 9.79607 4.95461 9.8458 4.93297 9.85918C4.91133 9.87255 4.89363 9.94439 4.89363 10.0189C4.89363 10.0933 4.87592 10.1542 4.85428 10.1542C4.83265 10.1542 4.81494 10.2085 4.81494 10.2749C4.81494 10.3412 4.79708 10.4289 4.77523 10.4696C4.75344 10.5104 4.72422 10.678 4.71037 10.8421C4.69647 11.0062 4.67008 11.1497 4.65167 11.1611C4.63328 11.1725 4.61823 11.3036 4.61823 11.4526C4.61823 11.6014 4.60052 11.7342 4.57889 11.7476C4.55394 11.763 4.53954 12.2521 4.53954 13.0853C4.53954 13.9183 4.55394 14.4075 4.57889 14.4229C4.60052 14.4363 4.61823 14.5779 4.61823 14.7377C4.61823 14.8974 4.63326 15.0375 4.65167 15.0487C4.67003 15.06 4.69684 15.2221 4.71118 15.4086C4.7255 15.5953 4.75475 15.7805 4.7761 15.8204C4.79747 15.8605 4.81494 15.9473 4.81494 16.0137C4.81494 16.08 4.83265 16.1343 4.85428 16.1343C4.87592 16.1343 4.89363 16.1952 4.89363 16.2697C4.89363 16.3442 4.90978 16.415 4.92953 16.4273C4.94928 16.4394 4.97806 16.5238 4.99343 16.6148C5.00877 16.7059 5.03481 16.8076 5.05126 16.8409C5.0677 16.8742 5.0991 16.9458 5.12105 16.9999C5.16354 17.1045 5.24196 17.2921 5.33072 17.5014C5.36054 17.5719 5.39831 17.6294 5.41468 17.6294C5.43105 17.6294 5.44442 17.6561 5.44442 17.6892C5.44442 17.756 5.63432 18.0745 5.68633 18.0949C5.70474 18.102 5.71982 18.1343 5.71982 18.1662C5.71982 18.2179 5.7894 18.3247 5.99522 18.5888C6.0962 18.7184 6.65368 19.2817 6.68096 19.2817C6.6952 19.2817 6.75455 19.3261 6.81286 19.3801C6.87122 19.4341 6.93978 19.4785 6.96525 19.4785C6.99074 19.4785 7.01744 19.4934 7.02468 19.512C7.04451 19.5626 7.36271 19.7539 7.42715 19.7539C7.45823 19.7539 7.48955 19.7678 7.49679 19.7848C7.51709 19.8331 7.95495 20.0292 8.04208 20.0292C8.08478 20.0292 8.11971 20.045 8.11971 20.0641C8.11971 20.0833 8.16842 20.1085 8.22791 20.1197C8.28739 20.1313 8.40691 20.1596 8.49347 20.1824C8.58002 20.2052 8.71725 20.2244 8.79837 20.2249C8.87952 20.2254 8.94591 20.2435 8.94591 20.2653C8.94591 20.2881 9.07629 20.3046 9.25831 20.3046C9.43016 20.3046 9.58168 20.3222 9.59506 20.344C9.60875 20.366 9.79875 20.3833 10.0302 20.3833C10.2778 20.3833 10.4409 20.3676 10.4409 20.344C10.4409 20.3206 10.5852 20.3046 10.795 20.3046C10.9898 20.3046 11.1491 20.2894 11.1491 20.2708C11.1491 20.2525 11.2771 20.2254 11.4335 20.2107C11.5899 20.1963 11.7351 20.1672 11.7561 20.1462C11.7771 20.125 11.8439 20.1079 11.9045 20.1079C11.9651 20.1079 12.0146 20.0901 12.0146 20.0686C12.0146 20.0468 12.0545 20.0285 12.1031 20.0279C12.1518 20.0271 12.2359 20.0012 12.29 19.9702C12.3441 19.9393 12.4282 19.9133 12.4769 19.9125C12.5256 19.9117 12.5654 19.8934 12.5654 19.8719C12.5654 19.8501 12.6008 19.8325 12.6441 19.8325C12.6874 19.8325 12.7228 19.8147 12.7228 19.7932C12.7228 19.7714 12.7576 19.7539 12.8001 19.7539C12.8711 19.7539 13.1486 19.6429 13.1949 19.5962C13.2057 19.5852 13.3163 19.5241 13.4408 19.4601C13.5652 19.3961 13.667 19.3297 13.667 19.3127C13.667 19.2956 13.7024 19.2817 13.7457 19.2817C13.789 19.2817 13.8244 19.2681 13.8244 19.2516C13.8244 19.2353 13.8581 19.2041 13.8992 19.1829C13.9404 19.1614 14.0423 19.1092 14.1255 19.0667C14.2087 19.0242 14.3109 18.9578 14.3526 18.9195C14.3943 18.8812 14.4607 18.8395 14.5001 18.8269C14.5396 18.8146 14.5719 18.7879 14.5719 18.7677C14.5719 18.7475 14.6062 18.7309 14.6482 18.7309C14.6902 18.7309 14.7356 18.7131 14.7489 18.6916C14.7909 18.6239 15.1342 18.6481 15.2266 18.7252C15.4521 18.9138 15.5943 20.2763 15.4744 21.1007C15.4133 21.5209 15.311 21.957 15.2735 21.957C15.2554 21.957 15.2407 21.9772 15.2407 22.0019C15.2407 22.0638 14.7875 22.4965 14.6902 22.5272C14.6468 22.5411 14.6112 22.5689 14.6112 22.5891C14.6112 22.6093 14.5847 22.6259 14.5522 22.6259C14.5197 22.6259 14.493 22.639 14.4929 22.6552C14.4926 22.6715 14.4129 22.7198 14.3158 22.7625C14.2186 22.8053 14.1391 22.8538 14.1391 22.8706C14.1391 22.8876 14.1213 22.9013 14.0996 22.9013C14.0778 22.9013 13.9683 22.9456 13.8562 22.9996C13.744 23.0536 13.629 23.098 13.6006 23.098C13.5722 23.098 13.549 23.1155 13.549 23.1373C13.549 23.1588 13.5272 23.1767 13.5006 23.1767C13.4463 23.1767 12.9369 23.3582 12.8315 23.4151C12.7939 23.4355 12.7187 23.452 12.6643 23.452C12.6099 23.452 12.5654 23.4688 12.5654 23.4893C12.5654 23.51 12.4592 23.5389 12.3294 23.5536C12.1995 23.5682 12.0933 23.5955 12.0933 23.6144C12.0933 23.6333 12.0225 23.6488 11.9359 23.6488C11.8494 23.6488 11.7786 23.6642 11.7786 23.6831C11.7786 23.7023 11.6856 23.7272 11.572 23.7385C11.2566 23.7702 10.7194 23.8465 10.4999 23.8909C10.2974 23.9315 8.23829 23.9139 7.94267 23.8691C7.85612 23.856 7.58169 23.8169 7.33286 23.7823C7.08401 23.7479 6.84968 23.7036 6.81213 23.6842C6.77454 23.6648 6.6915 23.6488 6.62756 23.6488C6.56364 23.6488 6.50179 23.6333 6.49017 23.6147C6.47858 23.5958 6.39344 23.5685 6.30099 23.5541C6.13042 23.5273 5.90583 23.4649 5.7985 23.4148C5.76603 23.3996 5.62896 23.3529 5.49394 23.3115C5.35889 23.2698 5.24821 23.2223 5.24805 23.206C5.24787 23.1898 5.20344 23.1767 5.14935 23.1767C5.09524 23.1767 5.051 23.1588 5.051 23.1373C5.051 23.1155 5.01559 23.098 4.97231 23.098C4.92903 23.098 4.89363 23.0841 4.89363 23.0673C4.89363 23.0505 4.80511 23.0022 4.69691 22.9603C4.58872 22.9183 4.5002 22.874 4.5002 22.8619C4.5002 22.8501 4.42068 22.8053 4.3235 22.7625C4.22638 22.7198 4.1467 22.6715 4.14646 22.6552C4.14628 22.639 4.11955 22.6259 4.0871 22.6259C4.05463 22.6259 4.02809 22.6109 4.02809 22.5925C4.02809 22.5742 3.95727 22.5272 3.87072 22.4882C3.78417 22.4491 3.71335 22.4021 3.71335 22.3838C3.71335 22.3654 3.69486 22.3505 3.67228 22.3505C3.64969 22.3505 3.58347 22.3061 3.52516 22.2521C3.46683 22.1981 3.40703 22.1537 3.39226 22.1537C3.37752 22.1537 3.2858 22.074 3.18844 21.9767C3.09106 21.8794 2.99983 21.7997 2.98567 21.7997C2.92618 21.7997 2.06466 20.8675 2.02548 20.7608C2.01677 20.7372 1.96806 20.6787 1.91728 20.6312C1.86648 20.5835 1.82491 20.5344 1.82491 20.5221C1.82491 20.4872 1.61209 20.1685 1.57902 20.1538C1.56281 20.1465 1.54951 20.1155 1.54951 20.0849C1.54951 20.0542 1.53624 20.029 1.52 20.029C1.50374 20.0287 1.45556 19.949 1.41284 19.8519C1.37011 19.7546 1.32143 19.6752 1.30464 19.6752C1.28783 19.6752 1.27411 19.6579 1.27411 19.6369C1.27411 19.5784 1.0652 19.1459 1.0298 19.1309C1.01272 19.1236 0.998716 19.0924 0.998716 19.0614C0.998716 19.0305 0.98214 18.9746 0.961892 18.9368C0.867391 18.7616 0.802003 18.5943 0.802003 18.5282C0.802003 18.4883 0.784299 18.4555 0.762661 18.4555C0.741022 18.4555 0.723318 18.4212 0.723318 18.3792C0.723318 18.3373 0.706637 18.2924 0.686258 18.2798C0.665878 18.2672 0.637263 18.1778 0.622758 18.0807C0.608228 17.984 0.580662 17.9048 0.561463 17.9048C0.54229 17.9048 0.526606 17.8429 0.526606 17.7671C0.526606 17.6913 0.508901 17.6294 0.487263 17.6294C0.465625 17.6294 0.447921 17.5848 0.447921 17.5305C0.447921 17.4759 0.431029 17.4009 0.410388 17.3631C0.374376 17.2978 0.308412 16.9875 0.263903 16.6749C0.252336 16.5939 0.227052 16.5175 0.207695 16.5055C0.188339 16.4937 0.172523 16.4048 0.172523 16.3085C0.172523 16.212 0.15537 16.1026 0.134439 16.0648C-0.0452511 15.7425 -0.0448575 10.983 0.134912 10.6564C0.155606 10.6188 0.172523 10.5117 0.172523 10.4184C0.172523 10.325 0.188417 10.2318 0.207852 10.2113C0.227235 10.1908 0.252965 10.1031 0.265004 10.0165C0.318169 9.6339 0.384815 9.32805 0.415057 9.32805C0.433128 9.32805 0.447921 9.26608 0.447921 9.19036C0.447921 9.11461 0.463605 9.05266 0.482804 9.05266C0.501977 9.05266 0.527078 9.00398 0.538592 8.94446C0.585147 8.70371 0.651242 8.48009 0.686205 8.44481C0.706637 8.42422 0.723318 8.36671 0.723318 8.31695C0.723318 8.26717 0.741022 8.22646 0.762661 8.22646C0.784299 8.22646 0.802003 8.19082 0.802003 8.14723C0.802003 8.10366 0.818553 8.03725 0.838828 7.99969C0.924227 7.84117 0.998716 7.65996 0.998716 7.6106C0.998716 7.58148 1.01642 7.55764 1.03806 7.55764C1.0597 7.55764 1.0774 7.53249 1.0774 7.5018C1.0774 7.44601 1.09219 7.41294 1.29843 7.00684C1.35886 6.88782 1.42679 6.75075 1.44937 6.70226C1.47201 6.65373 1.50374 6.61389 1.52 6.61373C1.53624 6.61358 1.54951 6.57801 1.54951 6.53473C1.54951 6.49146 1.5632 6.45605 1.57991 6.45605C1.59664 6.45605 1.6453 6.38967 1.6881 6.30851C1.73088 6.22739 1.7969 6.12667 1.83474 6.08468C1.87259 6.04274 1.90359 5.99283 1.90359 5.97371C1.90359 5.95459 1.92573 5.9143 1.95277 5.88411C2.05879 5.76593 2.10031 5.7109 2.10031 5.68863C2.10031 5.67589 2.14455 5.62443 2.19866 5.5743C2.25275 5.52413 2.29702 5.46745 2.29702 5.44828C2.29702 5.42913 2.42095 5.28194 2.57242 5.12118C2.72389 4.96043 2.84781 4.81856 2.84781 4.80595C2.84781 4.7933 2.88763 4.75299 2.93634 4.71632C2.98504 4.6796 3.12222 4.55796 3.24124 4.44596C3.36024 4.33394 3.51934 4.19598 3.59477 4.1394C3.67018 4.08278 3.76961 3.99667 3.81567 3.94796C3.8617 3.89926 3.91103 3.85944 3.92525 3.85944C3.96257 3.85944 4.28138 3.64851 4.29691 3.61355C4.30414 3.59729 4.33512 3.58404 4.36576 3.58404C4.39644 3.58404 4.42152 3.56668 4.42152 3.54544C4.42152 3.52424 4.46576 3.49576 4.51987 3.48217C4.57396 3.46861 4.61823 3.44501 4.61823 3.42974C4.61823 3.4145 4.68018 3.37768 4.75593 3.34799C4.83165 3.31827 4.89363 3.27956 4.89363 3.26193C4.89363 3.24436 4.9203 3.22996 4.9529 3.22996C5.00623 3.22996 5.3959 3.04269 5.44442 2.99375C5.45523 2.98281 5.56586 2.94011 5.69031 2.8988C5.81474 2.85755 5.91653 2.80892 5.91653 2.79082C5.91653 2.77267 5.95973 2.75785 6.01255 2.75785C6.0654 2.75785 6.11828 2.74219 6.13011 2.72302C6.14191 2.7039 6.23106 2.67633 6.32821 2.66178C6.42534 2.64717 6.51512 2.61858 6.52776 2.5982C6.54035 2.57782 6.59031 2.56114 6.63881 2.56114C6.68733 2.56114 6.74383 2.54661 6.76436 2.52883C6.78493 2.5111 6.97878 2.46522 7.19516 2.42693C7.41155 2.38866 7.6193 2.34124 7.65689 2.32154C7.69445 2.30187 7.81397 2.28574 7.92245 2.28574C8.03096 2.28574 8.11971 2.26869 8.11971 2.24789Z" fill="#87C540"/>
<path id="Vector_4" d="M33.2299 7.64828C33.3328 7.63758 33.4169 7.61185 33.4169 7.59111C33.4169 7.54405 34.3735 7.57246 34.6759 7.62856C35.3872 7.76041 35.7382 7.95217 35.7382 8.20891C35.7382 8.25828 35.7602 8.30604 35.7872 8.31506C35.8255 8.32776 35.8365 8.64273 35.8365 9.71301C35.8365 10.7658 35.8247 11.1063 35.7872 11.1438C35.7602 11.1709 35.7382 11.2514 35.7382 11.3228C35.7382 11.3942 35.7224 11.4526 35.7035 11.4526C35.6844 11.4526 35.659 11.4893 35.6474 11.5342C35.6356 11.5791 35.5892 11.6254 35.5443 11.6372C35.4995 11.6489 35.4628 11.6742 35.4628 11.6933C35.4628 11.7372 35.1373 11.7392 35.0869 11.6956C35.0665 11.6778 34.9434 11.6313 34.8136 11.5924C34.6838 11.5534 34.5469 11.506 34.5094 11.4871C34.4716 11.4681 34.3887 11.4526 34.3247 11.4526C34.2607 11.4526 34.1975 11.4349 34.1841 11.4133C34.1702 11.3906 33.9607 11.3739 33.69 11.3739C33.403 11.3739 33.2202 11.3892 33.2202 11.4133C33.2202 11.4349 33.1846 11.4526 33.141 11.4526C33.0975 11.4526 33.0311 11.4695 32.9934 11.4901C32.9559 11.5106 32.8544 11.5588 32.7678 11.597C32.6812 11.6352 32.5761 11.698 32.5341 11.7365C32.4921 11.7752 32.4444 11.8067 32.4279 11.8067C32.4111 11.8067 32.3534 11.851 32.2994 11.9051C32.2451 11.9591 32.1897 12.0034 32.1758 12.0034C32.1265 12.0034 31.4404 12.7397 31.3738 12.864C31.3509 12.9065 31.31 12.965 31.283 12.9938C31.1828 13.0995 31.0171 13.3369 31.0171 13.3744C31.0171 13.3959 31.0032 13.419 30.9858 13.4263C30.9268 13.4513 30.7417 13.7225 30.7417 13.7841C30.7417 13.8182 30.7196 13.8533 30.6926 13.8623C30.6535 13.8754 30.6391 14.8634 30.6236 18.5571C30.6042 23.151 30.6026 23.2376 30.5258 23.3388C30.434 23.4595 30.1995 23.5702 30.0356 23.5702C29.9721 23.5702 29.9092 23.5877 29.8958 23.6095C29.8824 23.631 29.7143 23.6488 29.522 23.6488C29.3298 23.6488 29.1617 23.6664 29.1483 23.6882C29.1171 23.7385 28.0664 23.7412 28.0664 23.6908C28.0664 23.6706 27.8938 23.6462 27.6826 23.6368C27.2635 23.6179 26.8467 23.5434 26.8467 23.4875C26.8467 23.4681 26.8213 23.4521 26.7904 23.4521C26.7594 23.4521 26.6975 23.4007 26.6527 23.3378L26.5714 23.2237V15.7517V8.28005L26.6794 8.16142C26.8022 8.02702 27.1143 7.9118 27.3558 7.9118C27.4437 7.9118 27.5156 7.8941 27.5156 7.87246C27.5156 7.84754 27.8041 7.83311 28.3024 7.83311C28.8008 7.83311 29.0893 7.84754 29.0893 7.87246C29.0893 7.8941 29.1855 7.9118 29.3033 7.9118C29.4211 7.9118 29.527 7.92748 29.5391 7.94668C29.5509 7.96586 29.6186 7.99245 29.6894 8.00575C29.8197 8.03022 29.9527 8.1644 29.9999 8.31978C30.0141 8.36589 30.0275 8.80341 30.0296 9.29204C30.0317 9.78073 30.0445 10.1915 30.0579 10.2049C30.0878 10.2347 30.1909 10.1367 30.1909 10.0784C30.1909 10.0553 30.2048 10.0363 30.2218 10.0363C30.2386 10.0363 30.2816 9.98762 30.317 9.9281C30.3524 9.86857 30.4138 9.7845 30.4534 9.74117C30.493 9.6979 30.578 9.59167 30.6423 9.50512C30.941 9.10333 31.8081 8.24739 31.9736 8.19084C31.9993 8.18208 32.0468 8.14615 32.0793 8.11103C32.1118 8.07588 32.2136 8.01401 32.3057 7.97352C32.3975 7.93299 32.4727 7.88484 32.4727 7.86648C32.4727 7.84814 32.5171 7.83311 32.5711 7.83311C32.6251 7.83311 32.6694 7.8184 32.6694 7.80038C32.6694 7.75923 32.9837 7.67393 33.2299 7.64828Z" fill="#87C540"/>
<path id="Vector_5" d="M19.3224 7.92373C19.4577 7.91345 19.5684 7.88819 19.5684 7.86757C19.5684 7.81939 21.1476 7.84924 21.4962 7.90406C21.9756 7.97944 22.138 8.03769 22.2927 8.19016L22.4404 8.33528V15.7832V23.231L22.2809 23.38C22.1571 23.4954 22.0776 23.5345 21.9258 23.5546C21.8185 23.5688 21.7209 23.5958 21.7094 23.6147C21.6976 23.6333 21.5211 23.6488 21.3168 23.6488C21.0954 23.6488 20.9454 23.6645 20.9454 23.6882C20.9454 23.7125 20.7355 23.7275 20.3946 23.7275C20.0798 23.7275 19.8438 23.7118 19.8438 23.6908C19.8438 23.6706 19.6712 23.6464 19.4601 23.637C18.8169 23.6087 18.5436 23.504 18.4025 23.2318C18.3577 23.1455 18.3488 21.9133 18.3488 15.7732C18.3488 10.3609 18.3606 8.39537 18.3933 8.3321C18.4492 8.2247 18.5683 8.10848 18.6226 8.10848C18.6451 8.10848 18.6635 8.09314 18.6635 8.07436C18.6635 8.02825 19.0205 7.94665 19.3224 7.92373Z" fill="#87C540"/>
</g>
</svg>
